<svg width="20" height="20" viewBox="0 0 20 20" fill="none" xmlns="http://www.w3.org/2000/svg">
<path d="M4.8553 17.7326C5.10507 17.7326 5.30861 17.529 5.30861 17.2792V12.8241L7.40425 12.214C7.5203 12.18 7.61685 12.1029 7.67488 11.9968C7.73335 11.8908 7.7465 11.7684 7.71295 11.6519C7.64314 11.4121 7.3911 11.2738 7.15085 11.3432L4.90244 11.9978L2.34534 10.68C2.2379 10.6247 2.11505 10.6143 1.99991 10.651C1.88432 10.6877 1.79049 10.7675 1.73473 10.8754C1.6205 11.0975 1.70798 11.3713 1.93011 11.486L4.40245 12.7598V17.2788C4.40245 17.5286 4.60598 17.7321 4.85575 17.7321L4.8553 17.7326Z" fill="#004438"/>
<path d="M8.51312 17.4516L5.43516 18.3473C5.09155 18.4475 4.72755 18.4122 4.40932 18.2485L1.66092 16.8338C1.19537 16.594 0.906162 16.1202 0.906162 15.5967V11.6003C0.906162 10.9856 1.31822 10.4362 1.90888 10.2644L6.37713 8.96387C6.72074 8.86369 7.0852 8.89905 7.40342 9.06269L8.32862 9.53957C8.55075 9.65426 8.82454 9.56632 8.93923 9.3442C8.99453 9.23676 9.00496 9.11392 8.96779 8.99832C8.93107 8.88318 8.85129 8.7889 8.74385 8.73359L7.81865 8.25671C7.29327 7.98609 6.69128 7.92806 6.12374 8.09307L1.65548 9.39361C0.680868 9.67738 0 10.5844 0 11.5999V15.5962C0 16.4607 0.477333 17.2435 1.24614 17.6397L3.99455 19.0545C4.31912 19.2218 4.68222 19.3097 5.04486 19.3097C5.262 19.3097 5.47868 19.2789 5.68856 19.2177L8.76652 18.322C9.00632 18.2522 9.14503 18.0001 9.07522 17.7599C9.00541 17.5201 8.75337 17.3818 8.51312 17.4512V17.4516Z" fill="#004438"/>
<path d="M9.27379 8.7176C9.52357 8.7176 9.7271 8.51407 9.7271 8.2643V5.51408L13.8418 4.31644C14.0816 4.24663 14.2203 3.99459 14.1505 3.75434C14.1165 3.63829 14.0394 3.54174 13.9333 3.48371C13.8273 3.42569 13.7049 3.41209 13.5884 3.44563L9.32094 4.6877L6.76383 3.36993C6.65639 3.31463 6.53355 3.3042 6.41841 3.34092C6.30327 3.37764 6.20898 3.45742 6.15367 3.56531C6.03944 3.78743 6.12693 4.06123 6.34905 4.17591L8.82139 5.44971V8.26384C8.82139 8.51362 9.02493 8.71715 9.2747 8.71715L9.27379 8.7176Z" fill="#004438"/>
<path d="M4.87225 8.14654C5.12203 8.14654 5.32556 7.94301 5.32556 7.69323V4.2898C5.32556 3.67511 5.73807 3.1257 6.32828 2.9539L10.7965 1.65336C11.1401 1.55318 11.5046 1.58854 11.8228 1.75264L14.5712 3.16877C15.0363 3.40857 15.3255 3.88273 15.3255 4.40585V7.50828C15.3255 7.75806 15.5291 7.96159 15.7788 7.96159C16.0286 7.96159 16.2321 7.75806 16.2321 7.50828V4.40585C16.2321 3.54184 15.7548 2.75898 14.9865 2.36279L12.2381 0.946654C11.7127 0.676029 11.1107 0.618006 10.5431 0.78301L6.07488 2.08355C5.09981 2.36732 4.41895 3.27484 4.41895 4.29025V7.69369C4.41895 7.94346 4.62248 8.147 4.87225 8.147V8.14654Z" fill="#004438"/>
<path d="M17.3557 10.7557L13.0882 11.9978L10.5311 10.68C10.4237 10.6247 10.3008 10.6143 10.1857 10.651C10.0701 10.6877 9.97627 10.7675 9.92096 10.8754C9.80628 11.0975 9.89422 11.3713 10.1163 11.486L12.5887 12.7598V17.2788C12.5887 17.5286 12.7922 17.7321 13.042 17.7321C13.2918 17.7321 13.4953 17.5286 13.4953 17.2788V12.8237L17.61 11.626C17.8498 11.5562 17.9885 11.3042 17.9187 11.0639C17.8489 10.8241 17.5968 10.6859 17.3566 10.7552L17.3557 10.7557Z" fill="#004438"/>
<path d="M18.7535 9.67285L16.0051 8.25671C15.4798 7.98609 14.8778 7.92806 14.3102 8.09307L9.84197 9.39361C8.8669 9.67738 8.18604 10.5849 8.18604 11.6003V15.5967C8.18604 16.4611 8.66337 17.2444 9.43218 17.6402L12.1806 19.055C12.5052 19.2222 12.8687 19.3106 13.2309 19.3106C13.448 19.3106 13.6643 19.2798 13.8746 19.2186L18.3433 17.9181C19.3184 17.6343 19.9992 16.7272 19.9992 15.7114V11.7164C19.9992 10.8519 19.5219 10.0695 18.7535 9.67375V9.67285ZM19.0926 11.7155V15.7105C19.0926 16.3251 18.6801 16.8745 18.0899 17.0464L13.6212 18.3469C13.278 18.4471 12.9136 18.4117 12.5954 18.2481L9.84696 16.8333C9.38141 16.594 9.0922 16.1198 9.0922 15.5962V11.5999C9.0922 10.9852 9.50471 10.4358 10.0949 10.264L14.5632 8.96342C14.6905 8.92625 14.8216 8.90766 14.953 8.90766C15.1724 8.90766 15.3923 8.96115 15.589 9.06269L18.3374 10.4788C18.8025 10.7186 19.0917 11.1923 19.0917 11.7159L19.0926 11.7155Z" fill="#004438"/>
</svg>
