<svg width="20" height="20" viewBox="0 0 20 20" fill="none" xmlns="http://www.w3.org/2000/svg">
<path d="M19.7965 7.2883C19.0977 5.13779 16.7796 3.95678 14.6292 4.65537C14.3452 4.74767 14.0576 4.87533 13.7734 5.03349C13.836 4.71439 13.8685 4.40138 13.8685 4.10271C13.8685 1.81963 12.2909 0.00189209 10.0411 0.00189209C7.78801 0.00189209 6.13149 1.82365 6.13149 4.10271C6.13149 4.40134 6.16403 4.71435 6.22664 5.03349C5.94243 4.87537 5.65485 4.74767 5.37079 4.65537C3.22055 3.95666 0.90227 5.13779 0.203481 7.2883C-0.505191 9.46947 0.700591 11.8985 2.83641 12.5925C3.12047 12.6848 3.42813 12.7505 3.75102 12.7897C3.51278 13.0111 3.30254 13.2452 3.12696 13.4868C1.79786 15.3161 2.20485 17.8858 4.03415 19.2148C5.86258 20.5433 8.23747 20.1429 9.57086 18.3076C9.74645 18.066 9.90403 17.7936 10.0411 17.4986C10.1781 17.7936 10.3357 18.066 10.5113 18.3076C11.8465 20.1454 14.1413 20.5405 15.9658 19.2148C17.7951 17.8857 18.2021 15.3161 16.873 13.4868C16.6975 13.2451 16.4872 13.0111 16.2489 12.7896C16.5718 12.7505 16.8796 12.6847 17.1637 12.5925C19.2995 11.8985 20.5052 9.46951 19.7965 7.2883ZM10.0411 1.17357C11.5799 1.17357 12.6968 2.40545 12.6968 4.10271C12.6968 4.86662 12.3979 5.80845 11.8972 6.62213C11.8366 6.7206 11.8086 6.83033 11.8104 6.93849L11.2004 7.99428C11.018 7.91533 10.8184 7.85412 10.6191 7.81353V5.41131C10.6191 5.08779 10.3646 4.82549 10.0411 4.82549C9.71758 4.82549 9.45528 5.08779 9.45528 5.41131V7.81357C9.25133 7.85513 9.05532 7.91849 8.86907 8.0001L8.18801 6.88463C8.18118 6.79424 8.15333 6.70424 8.10278 6.62213C7.60208 5.80845 7.30313 4.86662 7.30313 4.10271C7.30317 2.43283 8.4802 1.17357 10.0411 1.17357ZM3.19844 11.4782C1.69301 10.989 0.814184 9.20033 1.31778 7.65037C1.81692 6.11428 3.47254 5.27064 5.00875 5.76967C5.63938 5.97459 6.32793 6.43553 6.90375 7.02967L7.90981 8.67748C7.74989 8.84728 7.61 9.03603 7.49391 9.24013L5.2077 8.49732C4.89973 8.39728 4.56946 8.56576 4.4695 8.87342C4.36946 9.18115 4.53793 9.51162 4.84559 9.61162L7.13094 10.3542C7.10446 10.5894 7.10625 10.8004 7.13239 11.0247L5.66911 11.5352C4.79211 11.7193 3.88016 11.6997 3.19844 11.4782ZM9.4552 15.1287C9.37946 16.0753 9.06911 17.005 8.62305 17.6189C7.66969 18.931 6.02661 19.2142 4.72286 18.2669C3.41622 17.3176 3.12555 15.4822 4.07489 14.1754C4.85055 13.1078 6.19786 12.6226 6.30004 12.556L7.49973 12.1375C7.60778 12.3256 7.73555 12.501 7.88114 12.6599L6.46805 14.6049C6.27786 14.8667 6.3359 15.2331 6.59762 15.4232C6.85922 15.6133 7.22563 15.5554 7.4159 15.2936L8.8286 13.3492C9.0268 13.4397 9.23641 13.5094 9.45516 13.554L9.4552 15.1287ZM10.0411 12.4413C9.07204 12.4413 8.2836 11.6529 8.2836 10.6838C8.2836 9.71467 9.072 8.92627 10.0411 8.92627C11.0102 8.92627 11.7986 9.71467 11.7986 10.6838C11.7986 11.6529 11.0102 12.4413 10.0411 12.4413ZM15.2771 18.2669C13.9307 19.2452 12.3814 18.8882 11.4591 17.6189C11.0131 17.005 10.6949 16.0753 10.6191 15.1288V13.554C10.8378 13.5094 11.0552 13.4397 11.2534 13.3492L12.6661 15.2937C12.8563 15.5554 13.2227 15.6134 13.4844 15.4233C13.7462 15.2331 13.8042 14.8667 13.614 14.605L12.2009 12.66C12.3453 12.5024 12.4722 12.3286 12.5796 12.1423L13.6716 12.5357C13.8062 12.6355 15.1381 13.0922 15.925 14.1754C16.8745 15.4822 16.5838 17.3176 15.2771 18.2669ZM14.3755 11.5438L12.9491 11.0299C12.9764 10.7995 12.9774 10.587 12.9512 10.3542L15.2365 9.61158C15.5442 9.51158 15.7126 9.18111 15.6126 8.87338C15.5126 8.56564 15.1821 8.39724 14.8744 8.49728L12.5882 9.2401C12.4701 9.03248 12.3273 8.84072 12.1639 8.66865L13.1315 6.99412C13.7 6.41728 14.3733 5.97045 14.9912 5.76967C16.5272 5.27064 18.183 6.11424 18.6822 7.65029C19.1858 9.20029 18.307 10.989 16.8015 11.4782C16.1313 11.696 15.2387 11.7181 14.3755 11.5438Z" fill="#004438"/>
</svg>
