<svg width="20" height="20" viewBox="0 0 20 20" fill="none" xmlns="http://www.w3.org/2000/svg">
<path d="M10.0011 16.9998C10.5712 16.9998 11.0334 16.5468 11.0334 15.9879C11.0334 15.4291 10.5712 14.9761 10.0011 14.9761C9.43093 14.9761 8.96875 15.4291 8.96875 15.9879C8.96875 16.5468 9.43093 16.9998 10.0011 16.9998Z" fill="#004438"/>
<path d="M10.0008 12.0636C8.83076 12.0636 7.73085 12.5102 6.9035 13.3211C6.59206 13.6264 6.59206 14.1231 6.9035 14.4283C7.21494 14.7336 7.72165 14.7336 8.03308 14.4283C8.55869 13.9131 9.25752 13.6295 10.0008 13.6295C10.7441 13.6295 11.4429 13.9132 11.9685 14.4283C12.1195 14.5763 12.3199 14.6577 12.5334 14.6576C12.7468 14.6576 12.9473 14.5761 13.0982 14.4283C13.2492 14.2804 13.3323 14.0839 13.3323 13.8747C13.3323 13.6654 13.2492 13.4689 13.0983 13.321C12.271 12.51 11.1711 12.0635 10.001 12.0635L10.0008 12.0636Z" fill="#004438"/>
<path d="M15.1723 10.6992C13.7906 9.3449 11.9537 8.59912 9.99979 8.59912C8.04589 8.59912 6.20899 9.3449 4.82733 10.6992C4.51589 11.0045 4.51589 11.5011 4.82733 11.8064C4.97814 11.9543 5.17874 12.0357 5.39218 12.0357C5.60562 12.0357 5.8061 11.9542 5.95703 11.8064C7.03695 10.7479 8.47264 10.165 9.99992 10.165C11.5272 10.165 12.9629 10.748 14.0428 11.8064C14.3542 12.1117 14.8611 12.1117 15.1724 11.8064C15.4838 11.5011 15.4838 11.0045 15.1724 10.6992H15.1723Z" fill="#004438"/>
<path d="M17.7664 8.15325C16.7181 7.12583 15.4956 6.33019 14.1327 5.7884C12.8165 5.26525 11.4262 5 10 5C8.57391 5 7.1834 5.26525 5.86739 5.7884C4.50438 6.33007 3.28176 7.12571 2.23358 8.15325C1.92214 8.45851 1.92214 8.95518 2.23358 9.26045C2.38439 9.40828 2.58499 9.48973 2.79831 9.48973C3.01163 9.48973 3.21223 9.40828 3.36316 9.26045C5.13597 7.52276 7.4929 6.56588 9.99991 6.56588C12.5069 6.56588 14.864 7.52288 16.6367 9.26045C16.7876 9.40839 16.9881 9.48973 17.2015 9.48973C17.4148 9.48973 17.6154 9.40828 17.7664 9.26045C18.0778 8.95518 18.0778 8.45851 17.7664 8.15325Z" fill="#004438"/>
</svg>
