<svg width="20" height="20" viewBox="0 0 20 20" fill="none" xmlns="http://www.w3.org/2000/svg">
<path fill-rule="evenodd" clip-rule="evenodd" d="M2.47314 8.81494C2.79675 8.81494 3.05908 8.55261 3.05908 8.229V3.81467C3.05908 3.36661 3.42239 3.00322 3.87076 3.00322H16.1288C16.5771 3.00322 16.9404 3.36661 16.9404 3.81467V8.229C16.9404 8.55261 17.2028 8.81494 17.5264 8.81494C17.85 8.81494 18.1123 8.55261 18.1123 8.229V3.81467C18.1123 2.71921 17.2242 1.83135 16.1288 1.83135H3.87076C2.77538 1.83135 1.88721 2.71921 1.88721 3.81467V8.229C1.88721 8.55261 2.14954 8.81494 2.47314 8.81494Z" fill="#346A5C"/>
<path fill-rule="evenodd" clip-rule="evenodd" d="M0 15.7461C0 16.4707 0.58743 17.0581 1.31203 17.0581H18.688C19.4126 17.0581 20 16.4707 20 15.7461V11.2937C20 10.5691 19.4126 9.98166 18.688 9.98166H1.31203C0.587431 9.98166 0 10.5691 0 11.2937V15.7461ZM1.31203 15.8862C1.2346 15.8862 1.17187 15.8235 1.17187 15.7461V11.2937C1.17187 11.2163 1.2346 11.1535 1.31203 11.1535H18.688C18.7654 11.1535 18.8281 11.2163 18.8281 11.2937V15.7461C18.8281 15.8235 18.7654 15.8862 18.688 15.8862H1.31203Z" fill="#346A5C"/>
<path fill-rule="evenodd" clip-rule="evenodd" d="M1.56201 11.1538C1.88562 11.1538 2.14795 10.8915 2.14795 10.5679V9.64549C2.14795 9.18703 2.51971 8.81518 2.9785 8.81518H17.0212C17.48 8.81518 17.8518 9.18703 17.8518 9.64549V10.5679C17.8518 10.8915 18.1141 11.1538 18.4377 11.1538C18.7613 11.1538 19.0237 10.8915 19.0237 10.5679V9.64549C19.0237 8.53965 18.1271 7.6433 17.0212 7.6433H2.9785C1.87267 7.6433 0.976074 8.53965 0.976074 9.64549V10.5679C0.976074 10.8915 1.23841 11.1538 1.56201 11.1538Z" fill="#346A5C"/>
<path fill-rule="evenodd" clip-rule="evenodd" d="M5.14596 7.64307C5.06983 7.64307 5.0083 7.58141 5.0083 7.50553V6.61381C5.0083 6.53798 5.06981 6.47631 5.14596 6.47631H8.29236C8.36845 6.47631 8.42998 6.53796 8.42998 6.61381V7.50553C8.42998 7.58143 8.36843 7.64307 8.29236 7.64307C7.96876 7.64307 7.70643 7.9054 7.70643 8.229C7.70643 8.55261 7.96876 8.81494 8.29236 8.81494C9.01551 8.81494 9.60186 8.22876 9.60186 7.50553V6.61381C9.60186 5.89059 9.01549 5.30443 8.29236 5.30443H5.14596C4.42281 5.30443 3.83643 5.89057 3.83643 6.61381V7.50553C3.83643 8.22878 4.42279 8.81494 5.14596 8.81494C5.46956 8.81494 5.73189 8.55261 5.73189 8.229C5.73189 7.9054 5.46956 7.64307 5.14596 7.64307Z" fill="#346A5C"/>
<path fill-rule="evenodd" clip-rule="evenodd" d="M11.7075 7.64307C11.6314 7.64307 11.5698 7.58139 11.5698 7.50553V6.61381C11.5698 6.53801 11.6314 6.47631 11.7075 6.47631H14.8539C14.93 6.47631 14.9915 6.53796 14.9915 6.61381V7.50553C14.9915 7.58143 14.93 7.64307 14.8539 7.64307C14.5303 7.64307 14.2679 7.9054 14.2679 8.229C14.2679 8.55261 14.5303 8.81494 14.8539 8.81494C15.577 8.81494 16.1634 8.22876 16.1634 7.50553V6.61381C16.1634 5.89059 15.577 5.30443 14.8539 5.30443H11.7075C10.9844 5.30443 10.3979 5.89055 10.3979 6.61381V7.50553C10.3979 8.22881 10.9844 8.81494 11.7075 8.81494C12.0311 8.81494 12.2934 8.55261 12.2934 8.229C12.2934 7.9054 12.0311 7.64307 11.7075 7.64307Z" fill="#346A5C"/>
<path fill-rule="evenodd" clip-rule="evenodd" d="M1.83301 18.1685C2.15661 18.1685 2.41895 17.9061 2.41895 17.5825V16.4721C2.41895 16.1485 2.15661 15.8862 1.83301 15.8862C1.5094 15.8862 1.24707 16.1485 1.24707 16.4721V17.5825C1.24707 17.9061 1.5094 18.1685 1.83301 18.1685Z" fill="#346A5C"/>
<path fill-rule="evenodd" clip-rule="evenodd" d="M18.167 18.1685C18.4906 18.1685 18.7529 17.9061 18.7529 17.5825V16.4721C18.7529 16.1485 18.4906 15.8862 18.167 15.8862C17.8434 15.8862 17.5811 16.1485 17.5811 16.4721V17.5825C17.5811 17.9061 17.8434 18.1685 18.167 18.1685Z" fill="#346A5C"/>
</svg>
