<svg width="20" height="20" viewBox="0 0 20 20" fill="none" xmlns="http://www.w3.org/2000/svg">
<path fill-rule="evenodd" clip-rule="evenodd" d="M0 2H20V13.6895H0V2ZM1.17188 3.23047V12.459H18.8281V3.23047H1.17188Z" fill="#004438"/>
<path fill-rule="evenodd" clip-rule="evenodd" d="M6.97694 15.3058C8.98033 14.9821 11.0191 14.9821 13.0225 15.3058L17.5337 16.0345L17.3555 17.2507L12.8443 16.5219L12.9334 15.9139L12.8443 16.5219C10.959 16.2174 9.04043 16.2174 7.15514 16.5219C5.53045 16.7844 3.2778 17.1483 2.644 17.2507L2.46582 16.0345C3.0996 15.9321 5.35226 15.5682 6.97694 15.3058Z" fill="#004438"/>
<path fill-rule="evenodd" clip-rule="evenodd" d="M7.94084 14.3679L8.25767 12.9351L9.39918 13.2133L9.08234 14.6462L9.08234 14.6462C8.86563 15.6261 8.10273 16.369 7.15572 16.5219L6.97754 15.3058C7.45099 15.2293 7.83246 14.8579 7.94083 14.3679C7.94084 14.3679 7.94084 14.3679 7.94084 14.3679Z" fill="#004438"/>
<path fill-rule="evenodd" clip-rule="evenodd" d="M10.6011 13.2133L11.7426 12.9351L12.0595 14.3679C12.0595 14.3679 12.0595 14.3679 12.0595 14.3679C12.1678 14.8579 12.5493 15.2293 13.0228 15.3058L12.8446 16.5219C11.8976 16.369 11.1347 15.6261 10.918 14.6462L10.6011 13.2133Z" fill="#004438"/>
</svg>
