<svg width="20" height="20" viewBox="0 0 20 20" fill="none" xmlns="http://www.w3.org/2000/svg">
<g clip-path="url(#clip0_3962_2265)">
<path d="M19.0545 12.9228C18.9818 12.7455 18.7727 12.4546 18.1818 12.4546H17.7273C17.1591 12.4546 16.3091 12.6546 15.8 12.9091L13.6273 13.9955C13.6 13.2228 12.9818 12.4546 11.8136 12.4546H0.454545C0.204545 12.4546 0 12.6591 0 12.9091C0 16.2137 1.84091 18.55 1.91818 18.6455C2.00455 18.7546 2.13636 18.8182 2.27273 18.8182C2.30909 18.8182 3.2 18.8091 5.05 18.3637H5.90909C6.1 18.3955 6.36818 18.4364 6.74091 18.4864C6.83636 18.5 9.06818 18.8182 9.99545 18.8182C11.4545 18.8182 12.1455 18.3864 12.2182 18.3364C12.6318 18.0591 13.3136 17.6137 13.7318 17.3455L17.2 15.1182C17.6455 14.8319 18.3091 14.3 18.6864 13.9319L18.75 13.8682C19.1727 13.4546 19.1182 13.1 19.0455 12.9228H19.0545ZM0.922727 13.3637H2.29091C2.37273 14.5273 2.79545 16.0682 4.13636 17.641C3.31818 17.8137 2.77727 17.8728 2.5 17.8955C2.11818 17.35 1.05909 15.6273 0.927273 13.3637H0.922727ZM16.7182 14.35L13.25 16.5773C12.8273 16.85 12.1409 17.3 11.7273 17.5728C11.7227 17.5728 11.1818 17.9046 10.0045 17.9046C9.13636 17.9046 6.9 17.5864 6.87727 17.5819C6.41364 17.5137 6.03182 17.4591 5.99091 17.4546C5.96818 17.4546 5.94091 17.45 5.91818 17.45H5.20455C3.99545 16.1955 3.32727 14.8228 3.21364 13.3591H11.8273C12.4545 13.3591 12.7364 13.7 12.7364 14.041C12.7364 14.3819 12.4545 14.7228 11.8273 14.7228H8.19091C7.94091 14.7228 7.73636 14.9273 7.73636 15.1773C7.73636 15.4273 7.94091 15.6319 8.19091 15.6319H11.8273C12.4 15.6319 12.8364 15.4455 13.1409 15.1682C13.2227 15.1773 16.2182 13.7182 16.2182 13.7182C16.6 13.5273 16.8545 13.3591 17.2818 13.3591H17.9818C17.6364 13.6819 17.0864 14.1137 16.7227 14.3455L16.7182 14.35Z" fill="#004438"/>
<path d="M4.41822 9.39997C4.36368 9.39997 4.30913 9.39088 4.25913 9.3727C4.02277 9.28633 3.90459 9.0227 3.9955 8.78633C4.8364 6.55451 6.78186 4.9636 9.07731 4.63179C9.32277 4.59542 9.55459 4.76815 9.59095 5.01815C9.62731 5.26815 9.45459 5.49542 9.20459 5.53179C7.2364 5.8136 5.56822 7.18179 4.84095 9.10451C4.77277 9.28633 4.60004 9.39997 4.41368 9.39997H4.41822Z" fill="#004438"/>
<path d="M18.182 11.091H17.2729C17.2729 7.08191 14.0093 3.81827 10.0002 3.81827C5.99109 3.81827 2.72745 7.08191 2.72745 11.091H1.81836C1.81836 6.57736 5.48654 2.90918 10.0002 2.90918C14.5138 2.90918 18.182 6.57736 18.182 11.091Z" fill="#004438"/>
<path d="M19.5456 13.3637H11.8183C11.5683 13.3637 11.3638 13.1591 11.3638 12.9091C11.3638 12.6591 11.5683 12.4546 11.8183 12.4546H19.5456C19.7956 12.4546 20.0001 12.6591 20.0001 12.9091C20.0001 13.1591 19.7956 13.3637 19.5456 13.3637Z" fill="#004438"/>
<path d="M9.99991 3.81818C10.502 3.81818 10.909 3.41117 10.909 2.90909C10.909 2.40701 10.502 2 9.99991 2C9.49783 2 9.09082 2.40701 9.09082 2.90909C9.09082 3.41117 9.49783 3.81818 9.99991 3.81818Z" fill="#004438"/>
<path d="M18.6365 11.5453H1.36373C1.11373 11.5453 0.90918 11.3408 0.90918 11.0908C0.90918 10.8408 1.11373 10.6362 1.36373 10.6362H18.6365C18.8865 10.6362 19.091 10.8408 19.091 11.0908C19.091 11.3408 18.8865 11.5453 18.6365 11.5453Z" fill="#004438"/>
</g>
<defs>
<clipPath id="clip0_3962_2265">
<rect width="20" height="16.8182" fill="white" transform="translate(0 2)"/>
</clipPath>
</defs>
</svg>
