<svg width="20" height="20" viewBox="0 0 20 20" fill="none" xmlns="http://www.w3.org/2000/svg">
<path d="M18 13.3546H17.9994V5.12061C17.9994 3.73704 16.9003 2.61134 15.5496 2.61134H14.2243L13.0444 1.1476C12.9915 1.08193 12.9222 1.0369 12.8463 1.01516V1H12.7468C12.7404 1 12.7339 1 12.7277 1H7.26221C7.17536 1 7.09537 1.02899 7.02997 1.07776C6.98965 1.1006 6.95277 1.13113 6.92146 1.16847L5.70664 2.61112H4.45001C3.09902 2.61134 2 3.73704 2 5.12061V16.4896C2 17.8734 3.09902 18.9991 4.44979 18.9991H8.2495V19H11.7509V18.9991H15.5496C16.9003 18.9991 17.9994 17.8734 17.9994 16.4896V16.4038H18V13.3546ZM2.79194 16.4038H8.2495V18.188H4.44979C3.53562 18.188 2.79194 17.4262 2.79194 16.4896V16.4038ZM8.68611 13.3282L6.30086 3.14729L7.01603 2.2979L9.59299 13.3199L8.68632 13.328L8.68611 13.3282ZM10.5841 13.3256L12.9509 2.30581L13.6071 3.12005L11.2723 13.3394L10.5839 13.3254L10.5841 13.3256ZM17.2072 13.3546H12.0822L14.3513 3.42251H15.5491C16.4633 3.42251 17.207 4.18425 17.207 5.12061V13.3546H17.2072ZM10.9588 18.188H9.04123V16.4038H10.9588V18.188ZM8.24929 15.5926H2.79237V14.1658H17.2074V15.5926H8.2495H8.24929ZM11.9004 3.42251L10.0774 11.9095L8.09318 3.42251H11.9004ZM7.90361 2.61134L7.71661 1.81138H12.2465L12.0747 2.61134H7.90361ZM2.79194 13.3546V5.12061C2.79194 4.18425 3.53562 3.42251 4.44979 3.42251H5.55074L7.87766 13.3546H2.79194ZM11.7507 16.4038H17.2072V16.4896C17.2072 17.426 16.4635 18.188 15.5493 18.188H11.7507V16.4038Z" fill="#004438"/>
</svg>
