<svg width="20" height="20" viewBox="0 0 20 20" fill="none" xmlns="http://www.w3.org/2000/svg">
<g clip-path="url(#clip0_923_375)">
<path d="M0.753769 9.13568H9.19598C11.1638 9.13568 12.7638 7.53568 12.7638 5.56784C12.7638 3.6 11.1638 2 9.19598 2C7.22814 2 5.62814 3.6 5.62814 5.56784C5.62814 5.98392 5.96583 6.32161 6.38191 6.32161C6.79799 6.32161 7.13568 5.98392 7.13568 5.56784C7.13568 4.43216 8.0603 3.50754 9.19598 3.50754C10.3317 3.50754 11.2563 4.43216 11.2563 5.56784C11.2563 6.70352 10.3317 7.62814 9.19598 7.62814H0.753769C0.337688 7.62814 0 7.96583 0 8.38191C0 8.79799 0.337688 9.13568 0.753769 9.13568Z" fill="black"/>
<path d="M12.4121 11.6484H0.753769C0.337688 11.6484 0 11.9861 0 12.4022C0 12.8183 0.337688 13.156 0.753769 13.156H12.4121C13.5477 13.156 14.4724 14.0806 14.4724 15.2163C14.4724 16.352 13.5477 17.2766 12.4121 17.2766C11.2764 17.2766 10.3518 16.352 10.3518 15.2163C10.3518 14.8002 10.0141 14.4625 9.59799 14.4625C9.18191 14.4625 8.84422 14.8002 8.84422 15.2163C8.84422 17.1841 10.4442 18.7841 12.4121 18.7841C14.3799 18.7841 15.9799 17.1841 15.9799 15.2163C15.9799 13.2484 14.3799 11.6484 12.4121 11.6484Z" fill="black"/>
<path d="M16.8342 4.41211C15.0885 4.41211 13.6684 5.83221 13.6684 7.57794C13.6684 7.99402 14.0061 8.33171 14.4222 8.33171C14.8383 8.33171 15.1759 7.99402 15.1759 7.57794C15.1759 6.66337 15.9197 5.91965 16.8342 5.91965C17.7488 5.91965 18.4925 6.66337 18.4925 7.57794C18.4925 8.49251 17.7488 9.23623 16.8342 9.23623H12.0101C11.594 9.23623 11.2563 9.57392 11.2563 9.99C11.2563 10.4061 11.594 10.7438 12.0101 10.7438H16.8342C18.58 10.7438 20.0001 9.32367 20.0001 7.57794C20.0001 5.83221 18.58 4.41211 16.8342 4.41211Z" fill="black"/>
</g>
<defs>
<clipPath id="clip0_923_375">
<rect width="20" height="20" fill="white"/>
</clipPath>
</defs>
</svg>
