<svg width="20" height="20" viewBox="0 0 20 20" fill="none" xmlns="http://www.w3.org/2000/svg">
<path d="M16.4843 14.2611C16.6682 14.2611 16.8393 14.1623 16.9311 14.0033C17.0733 13.7573 16.9885 13.4417 16.7424 13.2995L15.0661 12.3317L16.7167 11.3927C16.8362 11.3247 16.9221 11.2142 16.9588 11.0814C16.9952 10.9486 16.978 10.8096 16.91 10.69C16.7694 10.4432 16.4542 10.3565 16.2073 10.4967L14.0314 11.7341L11.0302 10.0015L14.031 8.26883L16.207 9.5058C16.2847 9.54994 16.3726 9.57337 16.4608 9.57337C16.646 9.57337 16.8178 9.47338 16.9092 9.31247C17.0498 9.06562 16.9631 8.75042 16.7159 8.60981L15.0649 7.67124L16.7413 6.70338C16.9873 6.56121 17.0721 6.24562 16.9299 5.99955C16.7878 5.75349 16.4722 5.66873 16.2261 5.8109L14.5497 6.77876L14.5622 4.87976C14.563 4.74227 14.5103 4.61221 14.4138 4.51456C14.3173 4.41692 14.188 4.36224 14.0506 4.36146H14.047C13.7647 4.36146 13.5338 4.59112 13.5319 4.87351L13.5155 7.37635L10.5146 9.10858V5.64373L12.6741 4.37786C12.9194 4.23413 13.0018 3.91775 12.8581 3.67286C12.7144 3.42797 12.398 3.34516 12.1531 3.4889L10.5146 4.44934V2.51518C10.5146 2.23122 10.2834 2 9.99945 2C9.7155 2 9.48427 2.23122 9.48427 2.51518V4.44973L7.84578 3.48929C7.72705 3.41976 7.58839 3.40062 7.4552 3.43539C7.32201 3.47015 7.21031 3.55451 7.14078 3.67325C7.07126 3.79199 7.05212 3.93064 7.08688 4.06383C7.12164 4.19702 7.20601 4.30873 7.32475 4.37825L9.48427 5.64412V9.10936L6.48343 7.37674L6.46664 4.87312C6.46469 4.59073 6.23385 4.36146 5.95146 4.36146H5.94717C5.81046 4.36224 5.68118 4.41692 5.58471 4.51495C5.48784 4.61299 5.43511 4.74266 5.43629 4.88015L5.44917 6.77994L3.7728 5.81207C3.52673 5.6699 3.21114 5.75466 3.06897 6.00073C2.9268 6.24679 3.01156 6.56238 3.25762 6.70455L4.934 7.67241L3.2834 8.61098C3.03655 8.75159 2.94984 9.06679 3.09006 9.31364C3.18146 9.47456 3.35331 9.57415 3.53845 9.57415C3.62711 9.57415 3.71499 9.55072 3.79272 9.50658L5.96826 8.26961L8.96909 10.0018L5.96826 11.7345L3.79233 10.4971C3.54548 10.3569 3.23028 10.4432 3.08967 10.6904C2.94906 10.9377 3.03577 11.2525 3.28301 11.3931L4.934 12.3317L3.25762 13.2995C3.01156 13.4417 2.9268 13.7573 3.06897 14.0033C3.16076 14.1623 3.33183 14.2611 3.5158 14.2611C3.60563 14.2611 3.69429 14.2373 3.7728 14.192L5.44957 13.2241L5.43707 15.1235C5.43629 15.261 5.48901 15.3911 5.58549 15.4887C5.68235 15.5868 5.81124 15.6411 5.94873 15.6422H5.95224C6.23424 15.6422 6.46547 15.4126 6.46742 15.1306L6.48422 12.6273L9.48505 10.8947V14.3599L7.32553 15.6262C7.08024 15.7699 6.99783 16.0863 7.14156 16.3312C7.2853 16.5765 7.60167 16.6589 7.84656 16.5152L9.48505 15.5547V17.4916C9.48505 17.7756 9.71628 18.0068 10.0002 18.0068C10.2842 18.0068 10.5154 17.7756 10.5154 17.4916V15.5547L12.1539 16.5152C12.2332 16.5617 12.323 16.5859 12.414 16.5859C12.5964 16.5859 12.7671 16.4882 12.8593 16.3312C12.9288 16.2125 12.9479 16.0738 12.9132 15.9406C12.8784 15.8074 12.7941 15.6957 12.6753 15.6262L10.5158 14.3599V10.8951L13.5166 12.6273L13.5334 15.1306C13.5354 15.413 13.7662 15.6426 14.0486 15.6422H14.0529C14.3361 15.6403 14.5657 15.4075 14.5638 15.1235L14.5509 13.2245L16.2273 14.1924C16.3058 14.2377 16.3944 14.2615 16.4843 14.2615V14.2611Z" fill="#004438"/>
</svg>
