<svg width="20" height="20" viewBox="0 0 20 20" fill="none" xmlns="http://www.w3.org/2000/svg">
<g clip-path="url(#clip0_3962_2255)">
<path d="M18.1416 14.5042H1.85841C0.831858 14.5042 0 13.6724 0 12.6458V7.70424C0 6.78035 0.753982 6.02637 1.67788 6.02637C2.60177 6.02637 3.35575 6.77681 3.35575 7.7007L3.36283 10.7874H16.6372L16.6442 7.7007C16.6442 6.77681 17.3982 6.02637 18.3221 6.02637C19.246 6.02637 20 6.78035 20 7.70424V12.6458C20 13.6724 19.1681 14.5042 18.1416 14.5042ZM1.67788 6.91132C1.23894 6.91132 0.884956 7.26531 0.884956 7.70424V12.6458C0.884956 13.1839 1.32035 13.6193 1.85841 13.6193H18.1416C18.6796 13.6193 19.115 13.1839 19.115 12.6458V7.70424C19.115 7.26884 18.7611 6.91132 18.3221 6.91132C17.8832 6.91132 17.5292 7.26531 17.5292 7.70424L17.5221 11.2299C17.5221 11.4742 17.3239 11.6724 17.0796 11.6724H2.92035C2.67611 11.6724 2.47788 11.4742 2.47788 11.2299L2.4708 7.70424C2.4708 7.26884 2.11327 6.91132 1.67788 6.91132Z" fill="#004438"/>
<path d="M17.0795 11.6726H2.92017C2.67593 11.6726 2.4777 11.4743 2.4777 11.2301L2.47062 7.70442C2.47062 7.26903 2.11309 6.9115 1.6777 6.9115C1.63876 6.9115 1.60336 6.91858 1.56796 6.92566C1.44053 6.94336 1.30955 6.90796 1.21044 6.82301C1.11132 6.73805 1.05469 6.6177 1.05469 6.48673V4.85487C1.05469 3.83186 1.88655 3 2.91309 3H17.0901C18.1166 3 18.9485 3.83186 18.9485 4.85841V6.49027C18.9485 6.6177 18.8919 6.74159 18.7963 6.82655C18.6972 6.9115 18.5697 6.9469 18.4423 6.9292C18.3998 6.92212 18.3644 6.91504 18.3255 6.91504C17.8901 6.91504 17.5326 7.26903 17.5326 7.70796L17.5255 11.2336C17.5255 11.4779 17.3273 11.6761 17.083 11.6761L17.0795 11.6726ZM3.36265 10.7876H16.637L16.6441 7.70442C16.6441 6.86903 17.26 6.17522 18.0635 6.05133V4.86195C18.0635 4.32389 17.6281 3.8885 17.0901 3.8885H2.91309C2.37504 3.8885 1.93964 4.32389 1.93964 4.86195V6.05133C2.73964 6.17522 3.35557 6.86903 3.35911 7.70442L3.36619 10.7876H3.36265Z" fill="#004438"/>
<path d="M3.27442 16.6285H1.85849C1.61425 16.6285 1.41602 16.4302 1.41602 16.186V14.0621C1.41602 13.8179 1.61425 13.6196 1.85849 13.6196H4.33637C4.48858 13.6196 4.63371 13.6975 4.71159 13.8285C4.79301 13.9595 4.80009 14.1223 4.72929 14.2603L3.66734 16.3842C3.59301 16.5329 3.44079 16.6285 3.27088 16.6285H3.27442ZM2.30097 15.7435H3.00186L3.62133 14.5046H2.30097V15.7435Z" fill="#004438"/>
<path d="M18.1415 16.6285H16.7256C16.5592 16.6285 16.4034 16.5329 16.3291 16.3842L15.2672 14.2603C15.1999 14.1223 15.207 13.9595 15.2849 13.8285C15.3663 13.6975 15.5079 13.6196 15.6601 13.6196H18.138C18.3822 13.6196 18.5804 13.8179 18.5804 14.0621V16.186C18.5804 16.4302 18.3822 16.6285 18.138 16.6285H18.1415ZM16.9981 15.7435H17.699V14.5046H16.3787L16.9981 15.7435Z" fill="#004438"/>
<path d="M10.0002 11.6724H2.92051C2.67626 11.6724 2.47803 11.4742 2.47803 11.2299V10.168C2.47803 9.14143 3.30989 8.30957 4.33643 8.30957H10.0002C10.2444 8.30957 10.4426 8.5078 10.4426 8.75205V11.2299C10.4426 11.4742 10.2444 11.6724 10.0002 11.6724ZM3.36298 10.7874H9.55767V9.19453H4.33643C3.79838 9.19453 3.36298 9.62992 3.36298 10.168V10.7874Z" fill="#004438"/>
<path d="M17.0797 11.6724H10.0001C9.75585 11.6724 9.55762 11.4742 9.55762 11.2299V8.75205C9.55762 8.5078 9.75585 8.30957 10.0001 8.30957H15.6638C16.6904 8.30957 17.5222 9.14143 17.5222 10.168V11.2299C17.5222 11.4742 17.324 11.6724 17.0797 11.6724ZM10.4426 10.7874H16.6373V10.168C16.6373 9.62992 16.2019 9.19453 15.6638 9.19453H10.4426V10.7874Z" fill="#004438"/>
</g>
<defs>
<clipPath id="clip0_3962_2255">
<rect width="20" height="13.6283" fill="white" transform="translate(0 3)"/>
</clipPath>
</defs>
</svg>
