<svg width="20" height="20" viewBox="0 0 20 20" fill="none" xmlns="http://www.w3.org/2000/svg">
<path fill-rule="evenodd" clip-rule="evenodd" d="M11.7276 10.4224L9.75592 12.3941L8.27246 10.9106L9.10113 10.0819L9.75592 10.7367L10.8989 9.59375L11.7276 10.4224Z" fill="#346A5C"/>
<path fill-rule="evenodd" clip-rule="evenodd" d="M10 8.04153C8.47935 8.04153 7.24661 9.27428 7.24661 10.7949C7.24661 12.3156 8.47935 13.5484 10 13.5484C11.5207 13.5484 12.7534 12.3156 12.7534 10.7949C12.7534 9.27428 11.5207 8.04153 10 8.04153ZM6.07471 10.7949C6.07471 8.62705 7.83213 6.86963 10 6.86963C12.1679 6.86963 13.9253 8.62705 13.9253 10.7949C13.9253 12.9628 12.1679 14.7203 10 14.7203C7.83213 14.7203 6.07471 12.9628 6.07471 10.7949Z" fill="#346A5C"/>
<path fill-rule="evenodd" clip-rule="evenodd" d="M9.37038 0.489258H10.6296L13.6382 5.79173L19.6109 7.01455L20 8.21215L15.8867 12.7121L16.5694 18.7703L15.5507 19.5104L9.99998 16.9891L4.44924 19.5104L3.43055 18.7703L4.11323 12.7121L0 8.21215L0.389079 7.01455L6.36175 5.79173L9.37038 0.489258ZM9.99998 1.75433L7.11831 6.83305L1.39769 8.00426L5.33737 12.3143L4.6835 18.1169L9.99998 15.7019L15.3165 18.1169L14.6626 12.3143L18.6023 8.00426L12.8817 6.83305L9.99998 1.75433Z" fill="#346A5C"/>
</svg>
