<svg width="12" height="12" viewBox="0 0 12 12" fill="none" xmlns="http://www.w3.org/2000/svg">
<path d="M11.9984 6.50481C11.9003 7.64543 11.4785 8.7343 10.7825 9.64332C10.0866 10.5523 9.14554 11.2437 8.07003 11.636C6.99453 12.0284 5.82934 12.1054 4.71156 11.858C3.59377 11.6106 2.56989 11.0491 1.76037 10.2396C0.95085 9.43011 0.389372 8.40623 0.141994 7.28844C-0.105385 6.17066 -0.0283732 5.00547 0.363968 3.92997C0.75631 2.85446 1.44766 1.91339 2.35668 1.21745C3.2657 0.521518 4.35457 0.0996807 5.49519 0.00156892C5.55584 -0.0034342 5.61687 0.00355632 5.67481 0.0221414C5.73276 0.0407266 5.78647 0.0705423 5.83289 0.109886C5.87931 0.14923 5.91753 0.197332 5.94536 0.251445C5.97319 0.305558 5.99008 0.364623 5.99509 0.425266C6.00009 0.48591 5.9931 0.546946 5.97451 0.604888C5.95593 0.66283 5.92611 0.716545 5.88677 0.762964C5.84743 0.809383 5.79932 0.847599 5.74521 0.875429C5.6911 0.903258 5.63203 0.920157 5.57139 0.92516C4.606 1.00811 3.68438 1.36506 2.91497 1.95402C2.14557 2.54298 1.56038 3.33944 1.22827 4.2497C0.896164 5.15996 0.830949 6.14613 1.0403 7.09219C1.24965 8.03825 1.72486 8.90484 2.41001 9.58999C3.09516 10.2751 3.96174 10.7503 4.90781 10.9597C5.85387 11.1691 6.84004 11.1038 7.7503 10.7717C8.66055 10.4396 9.45702 9.85443 10.046 9.08503C10.6349 8.31562 10.9919 7.394 11.0748 6.42861C11.0849 6.30613 11.1433 6.19269 11.237 6.11323C11.3308 6.03377 11.4523 5.99481 11.5747 6.00491C11.6972 6.01502 11.8107 6.07336 11.8901 6.16711C11.9696 6.26086 12.0085 6.38233 11.9984 6.50481ZM5.53329 2.77234V6.00491C5.53329 6.12739 5.58194 6.24485 5.66855 6.33145C5.75515 6.41806 5.87261 6.46671 5.99509 6.46671H9.22766C9.35013 6.46671 9.46759 6.41806 9.5542 6.33145C9.6408 6.24485 9.68945 6.12739 9.68945 6.00491C9.68945 5.88244 9.6408 5.76498 9.5542 5.67837C9.46759 5.59177 9.35013 5.54312 9.22766 5.54312H6.45688V2.77234C6.45688 2.64987 6.40823 2.53241 6.32163 2.4458C6.23502 2.3592 6.11756 2.31055 5.99509 2.31055C5.87261 2.31055 5.75515 2.3592 5.66855 2.4458C5.58194 2.53241 5.53329 2.64987 5.53329 2.77234ZM7.84227 1.38696C7.97927 1.38696 8.1132 1.34633 8.22711 1.27022C8.34102 1.1941 8.42981 1.08592 8.48223 0.959345C8.53466 0.832772 8.54838 0.693494 8.52165 0.559125C8.49493 0.424755 8.42895 0.301329 8.33208 0.204454C8.2352 0.107579 8.11178 0.0416066 7.97741 0.0148789C7.84304 -0.0118489 7.70376 0.00186879 7.57719 0.0542971C7.45061 0.106725 7.34243 0.19551 7.26632 0.309422C7.1902 0.423335 7.14958 0.557261 7.14958 0.694262C7.14958 0.877976 7.22256 1.05417 7.35246 1.18407C7.48237 1.31398 7.65856 1.38696 7.84227 1.38696ZM9.92035 2.77234C10.0574 2.77234 10.1913 2.73172 10.3052 2.6556C10.4191 2.57949 10.5079 2.47131 10.5603 2.34473C10.6127 2.21816 10.6265 2.07888 10.5997 1.94451C10.573 1.81014 10.507 1.68672 10.4102 1.58984C10.3133 1.49297 10.1899 1.42699 10.0555 1.40027C9.92112 1.37354 9.78184 1.38726 9.65527 1.43968C9.5287 1.49211 9.42051 1.5809 9.3444 1.69481C9.26828 1.80872 9.22766 1.94265 9.22766 2.07965C9.22766 2.26336 9.30064 2.43955 9.43054 2.56946C9.56045 2.69936 9.73664 2.77234 9.92035 2.77234ZM11.3057 4.85042C11.4427 4.85042 11.5767 4.8098 11.6906 4.73368C11.8045 4.65757 11.8933 4.54939 11.9457 4.42281C11.9981 4.29624 12.0118 4.15696 11.9851 4.02259C11.9584 3.88822 11.8924 3.7648 11.7955 3.66792C11.6987 3.57105 11.5752 3.50507 11.4409 3.47835C11.3065 3.45162 11.1672 3.46534 11.0407 3.51776C10.9141 3.57019 10.8059 3.65898 10.7298 3.77289C10.6537 3.8868 10.613 4.02073 10.613 4.15773C10.613 4.34144 10.686 4.51763 10.8159 4.64754C10.9458 4.77744 11.122 4.85042 11.3057 4.85042Z" fill="#000000"/>
</svg>
