<svg width="20" height="20" viewBox="0 0 20 20" fill="none" xmlns="http://www.w3.org/2000/svg">
<path fill-rule="evenodd" clip-rule="evenodd" d="M14.8617 3.05484C12.1783 0.372344 7.82167 0.372344 5.13834 3.05484C2.45584 5.73818 2.45584 10.0948 5.13834 12.7782C7.82167 15.4607 12.1783 15.4607 14.8617 12.7782C17.5442 10.0948 17.5442 5.73818 14.8617 3.05484ZM13.9775 3.93901C16.1725 6.13401 16.1725 9.69901 13.9775 11.894C11.7825 14.089 8.21751 14.089 6.02251 11.894C3.82751 9.69901 3.82751 6.13401 6.02251 3.93901C8.21751 1.74401 11.7825 1.74401 13.9775 3.93901Z" fill="#346A5C"/>
<path fill-rule="evenodd" clip-rule="evenodd" d="M14.6225 14.0833C13.335 15.0516 11.7342 15.6249 10 15.6249C8.26588 15.6249 6.66504 15.0516 5.37754 14.0833C5.10171 13.8766 4.70921 13.9324 4.50171 14.2083C4.29504 14.4833 4.35088 14.8758 4.62671 15.0833C6.12421 16.2083 7.98504 16.8749 10 16.8749C12.015 16.8749 13.8759 16.2083 15.3734 15.0833C15.6492 14.8758 15.705 14.4833 15.4984 14.2083C15.2909 13.9324 14.8984 13.8766 14.6225 14.0833Z" fill="#346A5C"/>
<path fill-rule="evenodd" clip-rule="evenodd" d="M9.375 16.25V18.3333C9.375 18.6783 9.655 18.9583 10 18.9583C10.345 18.9583 10.625 18.6783 10.625 18.3333V16.25C10.625 15.905 10.345 15.625 10 15.625C9.655 15.625 9.375 15.905 9.375 16.25Z" fill="#346A5C"/>
<path fill-rule="evenodd" clip-rule="evenodd" d="M12.0623 4.08645C12.3064 4.33061 12.3064 4.72645 12.0623 4.96978C11.8181 5.21395 11.4223 5.21395 11.1781 4.96978C10.9348 4.72645 10.9348 4.33061 11.1781 4.08645C11.4223 3.84228 11.8181 3.84228 12.0623 4.08645Z" fill="#346A5C"/>
<path fill-rule="evenodd" clip-rule="evenodd" d="M9.99977 4.38074C10.2439 4.62491 10.2439 5.02074 9.99977 5.26491C9.75561 5.50908 9.35977 5.50908 9.11561 5.26491C8.87227 5.02074 8.87227 4.62491 9.11561 4.38074C9.35977 4.13741 9.75561 4.13741 9.99977 4.38074Z" fill="#346A5C"/>
<path fill-rule="evenodd" clip-rule="evenodd" d="M13.8301 5.85402C14.0743 6.09819 14.0743 6.49402 13.8301 6.73819C13.586 6.98152 13.1901 6.98152 12.9468 6.73819C12.7026 6.49402 12.7026 6.09819 12.9468 5.85402C13.1901 5.60986 13.586 5.60986 13.8301 5.85402Z" fill="#346A5C"/>
<path fill-rule="evenodd" clip-rule="evenodd" d="M11.7676 6.14895C12.0118 6.39228 12.0118 6.78895 11.7676 7.03228C11.5243 7.27645 11.1276 7.27645 10.8843 7.03228C10.6401 6.78895 10.6401 6.39228 10.8843 6.14895C11.1276 5.90478 11.5243 5.90478 11.7676 6.14895Z" fill="#346A5C"/>
<path fill-rule="evenodd" clip-rule="evenodd" d="M13.536 7.91652C13.7794 8.16069 13.7794 8.55652 13.536 8.80069C13.2919 9.04402 12.896 9.04402 12.6519 8.80069C12.4077 8.55652 12.4077 8.16069 12.6519 7.91652C12.896 7.67236 13.2919 7.67236 13.536 7.91652Z" fill="#346A5C"/>
</svg>
