<svg width="20" height="20" viewBox="0 0 20 20" fill="none" xmlns="http://www.w3.org/2000/svg">
<path d="M17.1443 2.125H6.10309C5.70041 2.125 5.37242 2.45299 5.37242 2.85567V15.8454C5.37242 16.5168 4.82604 17.0631 4.15464 17.0631C3.48323 17.0631 2.93686 16.5168 2.93686 15.8454V6.91495C2.93686 6.69088 2.755 6.50902 2.53093 6.50902C2.30686 6.50902 2.125 6.69088 2.125 6.91495V15.8454C2.125 16.9649 3.03509 17.875 4.15464 17.875H15.5206C16.8188 17.875 17.875 16.8188 17.875 15.5206V2.85567C17.875 2.45299 17.547 2.125 17.1443 2.125ZM15.5206 17.0631H5.77673C6.04058 16.7124 6.18428 16.2862 6.18428 15.8454V2.93686H17.0631V15.5206C17.0631 16.3714 16.3714 17.0631 15.5206 17.0631Z" fill="#004438"/>
<path d="M16.413 5.37256H13.2467C13.0227 5.37256 12.8408 5.55441 12.8408 5.77849C12.8408 6.00256 13.0227 6.18441 13.2467 6.18441H16.413C16.6371 6.18441 16.8189 6.00256 16.8189 5.77849C16.8189 5.55441 16.6371 5.37256 16.413 5.37256Z" fill="#004438"/>
<path d="M16.413 6.99609H13.2467C13.0227 6.99609 12.8408 7.17795 12.8408 7.40202C12.8408 7.62609 13.0227 7.80795 13.2467 7.80795H16.413C16.6371 7.80795 16.8189 7.62609 16.8189 7.40202C16.8189 7.17795 16.6371 6.99609 16.413 6.99609Z" fill="#004438"/>
<path d="M16.413 8.61963H13.2467C13.0227 8.61963 12.8408 8.80148 12.8408 9.02556C12.8408 9.24963 13.0227 9.43148 13.2467 9.43148H16.413C16.6371 9.43148 16.8189 9.24963 16.8189 9.02556C16.8189 8.80148 16.6371 8.61963 16.413 8.61963Z" fill="#004438"/>
<path d="M15.819 14.4653H7.37565C7.15158 14.4653 6.96973 14.6472 6.96973 14.8713C6.96973 15.0953 7.15158 15.2772 7.37565 15.2772H15.819C16.043 15.2772 16.2249 15.0953 16.2249 14.8713C16.2249 14.6472 16.043 14.4653 15.819 14.4653Z" fill="#004438"/>
<path d="M15.819 12.8418H7.37565C7.15158 12.8418 6.96973 13.0237 6.96973 13.2477C6.96973 13.4718 7.15158 13.6537 7.37565 13.6537H15.819C16.043 13.6537 16.2249 13.4718 16.2249 13.2477C16.2249 13.0237 16.043 12.8418 15.819 12.8418Z" fill="#004438"/>
<path d="M15.819 11.2178H7.37565C7.15158 11.2178 6.96973 11.3996 6.96973 11.6237C6.96973 11.8478 7.15158 12.0296 7.37565 12.0296H15.819C16.043 12.0296 16.2249 11.8478 16.2249 11.6237C16.2249 11.3996 16.043 11.2178 15.819 11.2178Z" fill="#004438"/>
<path d="M7.48356 10.0814H12.03C12.254 10.0814 12.4359 9.89954 12.4359 9.67546V5.12907C12.4359 4.905 12.254 4.72314 12.03 4.72314H7.48356C7.25949 4.72314 7.07764 4.905 7.07764 5.12907V9.67546C7.07764 9.89954 7.25949 10.0814 7.48356 10.0814ZM7.88949 9.26954V5.535H11.624V9.26954H7.88949Z" fill="#004438"/>
<path d="M4.15495 16.2514C4.37902 16.2514 4.56088 16.0696 4.56088 15.8455V5.77849C4.56088 5.55441 4.37902 5.37256 4.15495 5.37256C3.93088 5.37256 3.74902 5.55441 3.74902 5.77849V15.8455C3.74902 16.0696 3.93088 16.2514 4.15495 16.2514Z" fill="#004438"/>
</svg>
