<svg width="20" height="20" viewBox="0 0 20 20" fill="none" xmlns="http://www.w3.org/2000/svg">
<path d="M13.75 9.75C13.9687 9.75 14.1469 9.56791 14.1469 9.34436C14.1469 8.23022 14.4424 7.30853 15.0021 6.67844C15.5233 6.09117 16.2501 5.78063 17.1031 5.78063C17.3218 5.78063 17.5 5.59855 17.5 5.375C17.5 5.15145 17.3218 4.96936 17.1031 4.96936C16.2497 4.96936 15.5233 4.65883 15.0021 4.07156C14.4428 3.44147 14.1469 2.51978 14.1469 1.40564C14.1469 1.18209 13.9687 1 13.75 1C13.5313 1 13.3531 1.18209 13.3531 1.40564C13.3531 2.51978 13.0576 3.44147 12.4979 4.07156C11.9767 4.65883 11.2499 4.96936 10.3969 4.96936C10.1782 4.96936 10 5.15145 10 5.375C10 5.59855 10.1782 5.78063 10.3969 5.78063C11.2503 5.78063 11.9767 6.09117 12.4979 6.67844C13.0572 7.30853 13.3531 8.23022 13.3531 9.34436C13.3531 9.56791 13.5313 9.75 13.75 9.75ZM13.75 7.19946C13.5802 6.79698 13.3571 6.43867 13.0858 6.13354C12.8075 5.81985 12.4834 5.5652 12.1222 5.37545C12.4834 5.1857 12.8075 4.93105 13.0858 4.61736C13.3571 4.31179 13.5802 3.95392 13.75 3.55144C13.9198 3.95392 14.1429 4.31224 14.4142 4.61736C14.6925 4.93105 15.0166 5.1857 15.3778 5.37545C15.0166 5.5652 14.6925 5.81985 14.4142 6.13354C14.1429 6.43912 13.9198 6.79698 13.75 7.19946Z" fill="#004438"/>
<path d="M19.5834 15.0086C18.1697 15.0086 17.2916 14.0919 17.2916 12.6164C17.2916 12.4145 17.1046 12.25 16.875 12.25C16.6454 12.25 16.4584 12.4145 16.4584 12.6164C16.4584 14.0919 15.5803 15.0086 14.1666 15.0086C13.937 15.0086 13.75 15.1731 13.75 15.375C13.75 15.5769 13.937 15.7414 14.1666 15.7414C15.5803 15.7414 16.4584 16.6581 16.4584 18.1336C16.4584 18.3355 16.6454 18.5 16.875 18.5C17.1046 18.5 17.2916 18.3355 17.2916 18.1336C17.2916 16.6581 18.1697 15.7414 19.5834 15.7414C19.813 15.7414 20 15.5769 20 15.375C20 15.1731 19.813 15.0086 19.5834 15.0086ZM17.9975 15.375C17.7522 15.502 17.5314 15.6599 17.3407 15.8452C17.1592 16.021 17.0028 16.2221 16.8755 16.4435C16.7482 16.2221 16.5917 16.021 16.4103 15.8452C16.2195 15.6599 15.9987 15.502 15.7534 15.375C15.9987 15.248 16.2195 15.0901 16.4103 14.9048C16.5917 14.729 16.7482 14.5279 16.8755 14.3065C17.0028 14.5279 17.1592 14.729 17.3407 14.9048C17.5318 15.0901 17.7522 15.248 17.9975 15.375Z" fill="#004438"/>
<path d="M9.6024 12.4846C8.38885 12.4846 7.35377 12.0586 6.60938 11.2535C5.8164 10.3954 5.3976 9.14611 5.3976 7.64041C5.3976 7.42525 5.21912 7.25 5 7.25C4.78088 7.25 4.6024 7.42525 4.6024 7.64041C4.6024 9.14611 4.18316 10.3959 3.39062 11.2535C2.64623 12.059 1.61115 12.4846 0.397597 12.4846C0.178477 12.4846 0 12.6598 0 12.875C0 13.0902 0.178477 13.2654 0.397597 13.2654C1.61115 13.2654 2.64623 13.6914 3.39062 14.4965C4.1836 15.3546 4.6024 16.6039 4.6024 18.1096C4.6024 18.3247 4.78088 18.5 5 18.5C5.21912 18.5 5.3976 18.3247 5.3976 18.1096C5.3976 16.6039 5.81684 15.3541 6.60938 14.4965C7.35377 13.691 8.38885 13.2654 9.6024 13.2654C9.82152 13.2654 10 13.0902 10 12.875C10 12.6598 9.82152 12.4846 9.6024 12.4846ZM7.57952 12.875C6.98533 13.1262 6.46139 13.4949 6.0205 13.9721C5.58137 14.4471 5.23856 15.0197 5 15.6756C4.76144 15.0197 4.41818 14.4471 3.9795 13.9721C3.53861 13.4949 3.01467 13.1262 2.42048 12.875C3.01467 12.6238 3.53861 12.2551 3.9795 11.7779C4.41862 11.3029 4.76144 10.7303 5 10.0744C5.23856 10.7303 5.58182 11.3034 6.0205 11.7779C6.46139 12.2551 6.98533 12.6238 7.57952 12.875Z" fill="#004438"/>
</svg>
