<svg width="20" height="20" viewBox="0 0 20 20" fill="none" xmlns="http://www.w3.org/2000/svg">
<g clip-path="url(#clip0_3962_2260)">
<g clip-path="url(#clip1_3962_2260)">
<path d="M19.5652 19.1305H0.434783C0.195652 19.1305 0 18.9348 0 18.6957V11.3044C0 11.0653 0.195652 10.8696 0.434783 10.8696H19.5652C19.8043 10.8696 20 11.0653 20 11.3044V18.6957C20 18.9348 19.8043 19.1305 19.5652 19.1305ZM0.869565 18.2609H19.1304V11.7392H0.869565V18.2609Z" fill="#004438"/>
<path d="M6.5217 19.1305C6.28257 19.1305 6.08691 18.9348 6.08691 18.6957V11.3044C6.08691 11.0653 6.28257 10.8696 6.5217 10.8696C6.76083 10.8696 6.95648 11.0653 6.95648 11.3044V18.6957C6.95648 18.9348 6.76083 19.1305 6.5217 19.1305Z" fill="#004438"/>
<path d="M13.4782 19.1305C13.2391 19.1305 13.0435 18.9348 13.0435 18.6957V11.3044C13.0435 11.0653 13.2391 10.8696 13.4782 10.8696C13.7174 10.8696 13.913 11.0653 13.913 11.3044V18.6957C13.913 18.9348 13.7174 19.1305 13.4782 19.1305Z" fill="#004438"/>
<path d="M11.7392 17.3911H8.26095C8.02182 17.3911 7.82617 17.1955 7.82617 16.9564V14.7824C7.82617 14.5433 8.02182 14.3477 8.26095 14.3477H11.7392C11.9783 14.3477 12.174 14.5433 12.174 14.7824V16.9564C12.174 17.1955 11.9783 17.3911 11.7392 17.3911ZM8.69574 16.5216H11.3044V15.2172H8.69574V16.5216Z" fill="#004438"/>
<path d="M12.174 13.4785H11.3044C11.0653 13.4785 10.8696 13.2828 10.8696 13.0437C10.8696 12.8045 11.0653 12.6089 11.3044 12.6089H12.174C12.4131 12.6089 12.6088 12.8045 12.6088 13.0437C12.6088 13.2828 12.4131 13.4785 12.174 13.4785Z" fill="#004438"/>
<path d="M10.4347 13.4785H9.56515C9.32602 13.4785 9.13037 13.2828 9.13037 13.0437C9.13037 12.8045 9.32602 12.6089 9.56515 12.6089H10.4347C10.6738 12.6089 10.8695 12.8045 10.8695 13.0437C10.8695 13.2828 10.6738 13.4785 10.4347 13.4785Z" fill="#004438"/>
<path d="M8.69546 13.4785H7.8259C7.58677 13.4785 7.39111 13.2828 7.39111 13.0437C7.39111 12.8045 7.58677 12.6089 7.8259 12.6089H8.69546C8.93459 12.6089 9.13024 12.8045 9.13024 13.0437C9.13024 13.2828 8.93459 13.4785 8.69546 13.4785Z" fill="#004438"/>
<path d="M13.0437 7.3913H6.95676C6.71762 7.3913 6.52197 7.19565 6.52197 6.95652V6.52174C6.52197 6.43043 6.54806 6.34348 6.60458 6.26957L8.69589 3.33913V0.434783C8.69589 0.195652 8.89154 0 9.13067 0C9.3698 0 9.56545 0.195652 9.56545 0.434783V3.47826C9.56545 3.56957 9.53936 3.65652 9.48284 3.73043L7.49154 6.52174H12.5089L10.5176 3.73043C10.4655 3.65652 10.435 3.56957 10.435 3.47826V0.434783C10.435 0.195652 10.6307 0 10.8698 0C11.1089 0 11.3046 0.195652 11.3046 0.434783V3.33913L13.3959 6.26957C13.4481 6.34348 13.4785 6.43043 13.4785 6.52174V6.95652C13.4785 7.19565 13.2828 7.3913 13.0437 7.3913Z" fill="#004438"/>
<path d="M19.565 7.39107H14.7824C14.5433 7.39107 14.3477 7.19542 14.3477 6.95629V3.91281C14.3477 3.67368 14.5433 3.47803 14.7824 3.47803H19.565C19.8042 3.47803 19.9998 3.67368 19.9998 3.91281V6.95629C19.9998 7.19542 19.8042 7.39107 19.565 7.39107ZM15.2172 6.52151H19.1303V4.34759H15.2172V6.52151Z" fill="#004438"/>
<path d="M5.21739 7.39107H0.434783C0.195652 7.39107 0 7.19542 0 6.95629V3.91281C0 3.67368 0.195652 3.47803 0.434783 3.47803H5.21739C5.45652 3.47803 5.65217 3.67368 5.65217 3.91281V6.95629C5.65217 7.19542 5.45652 7.39107 5.21739 7.39107ZM0.869565 6.52151H4.78261V4.34759H0.869565V6.52151Z" fill="#004438"/>
<path d="M6.52174 14.3476H0.434783C0.195652 14.3476 0 14.1519 0 13.9128C0 13.6737 0.195652 13.478 0.434783 13.478H6.52174C6.76087 13.478 6.95652 13.6737 6.95652 13.9128C6.95652 14.1519 6.76087 14.3476 6.52174 14.3476Z" fill="#004438"/>
<path d="M17.3912 14.3476H15.6521C15.4129 14.3476 15.2173 14.1519 15.2173 13.9128C15.2173 13.6737 15.4129 13.478 15.6521 13.478H17.3912C17.6303 13.478 17.826 13.6737 17.826 13.9128C17.826 14.1519 17.6303 14.3476 17.3912 14.3476Z" fill="#004438"/>
</g>
</g>
<defs>
<clipPath id="clip0_3962_2260">
<rect width="20" height="20" fill="white"/>
</clipPath>
<clipPath id="clip1_3962_2260">
<rect width="20" height="19.1304" fill="white"/>
</clipPath>
</defs>
</svg>
