<svg width="20" height="20" viewBox="0 0 20 20" fill="none" xmlns="http://www.w3.org/2000/svg">
<path d="M7.36131 2.01852H8.99094V3.20713C8.15779 3.43477 7.56501 4.20069 7.56501 5.07407V5.78704C7.56501 6.06764 7.79367 6.2963 8.07427 6.2963C8.35487 6.2963 8.58353 6.06764 8.58353 5.78704V5.07407C8.58353 4.56889 8.9945 4.15741 9.5002 4.15741C10.0059 4.15741 10.4169 4.56889 10.4169 5.07407V5.78704C10.4169 6.06764 10.6455 6.2963 10.9261 6.2963C11.2067 6.2963 11.4354 6.06764 11.4354 5.78704V5.07407C11.4354 4.20069 10.8426 3.43477 10.0095 3.20713V2.01852H11.7613C12.0068 2.01852 12.237 2.11375 12.4096 2.2869L13.4179 3.29523C13.5142 3.39148 13.642 3.44444 13.778 3.44444C13.9139 3.44444 14.0418 3.39148 14.138 3.29523C14.3366 3.09662 14.3366 2.77375 14.138 2.57514L13.1302 1.56681C12.7646 1.20116 12.2782 1 11.7613 1H7.36131C7.08071 1 6.85205 1.22866 6.85205 1.50926C6.85205 1.78986 7.08071 2.01852 7.36131 2.01852Z" fill="#004438"/>
<path d="M9.5 6.70361C6.46736 6.70361 4 9.17097 4 12.2036V17.1944C4 18.2613 4.86829 19.1295 5.93519 19.1295H13.0648C14.1317 19.1295 15 18.2613 15 17.1944V12.2036C15 9.17097 12.5326 6.70361 9.5 6.70361ZM13.0648 18.111H5.93519C5.42949 18.111 5.01852 17.6995 5.01852 17.1944V12.2036C5.01852 9.73269 7.02907 7.72213 9.5 7.72213C11.9709 7.72213 13.9815 9.73269 13.9815 12.2036V17.1944C13.9815 17.6995 13.5705 18.111 13.0648 18.111Z" fill="#004438"/>
<path d="M11.2818 10.9819H9.8559C8.789 10.9819 7.92072 11.8502 7.92072 12.9171C7.92072 13.2542 8.00882 13.5832 8.17687 13.8761L7.35697 14.696C7.15836 14.8946 7.15836 15.2174 7.35697 15.4161C7.45322 15.5123 7.58104 15.5653 7.71701 15.5653C7.85298 15.5653 7.98081 15.5123 8.07706 15.4161L8.89697 14.5961C9.18928 14.7642 9.51826 14.8523 9.8559 14.8523C10.9228 14.8523 11.7911 13.984 11.7911 12.9171V11.4912C11.7911 11.2106 11.5624 10.9819 11.2818 10.9819ZM9.8559 13.8338C9.35021 13.8338 8.93923 13.4223 8.93923 12.9171C8.93923 12.4119 9.35021 12.0005 9.8559 12.0005H10.7726V12.9171C10.7726 13.4223 10.3616 13.8338 9.8559 13.8338Z" fill="#004438"/>
</svg>
