<svg width="20" height="20" viewBox="0 0 20 20" fill="none" xmlns="http://www.w3.org/2000/svg">
<g clip-path="url(#clip0_923_355)">
<path d="M15.6604 13.8302C15.517 13.8302 15.3698 13.7736 15.2604 13.6642L7.33585 5.73963C7.11321 5.51699 7.11321 5.1585 7.33585 4.93963L8.69057 3.58491C9.1434 3.13208 9.73962 2.8868 10.3811 2.8868C11.0226 2.8868 11.6189 3.13586 12.0717 3.58491L17.4189 8.93208C18.3509 9.86416 18.3509 11.3774 17.4189 12.3094L16.0642 13.6604C15.9547 13.7698 15.8075 13.8264 15.6642 13.8264L15.6604 13.8302ZM8.53585 5.33963L15.6604 12.4642L16.6151 11.5132C17.1057 11.0226 17.1057 10.2264 16.6151 9.73586L11.2679 4.38869C10.7774 3.89812 9.98113 3.89812 9.49057 4.38869L8.53962 5.3434L8.53585 5.33963Z" fill="black"/>
<path d="M15.6 8.4868C15.4491 8.4868 15.3057 8.42642 15.2 8.32076L12.6755 5.79623C12.566 5.69057 12.5094 5.5434 12.5094 5.39246C12.5094 5.24152 12.5736 5.09435 12.683 4.98869C14.166 3.5585 15.5962 2.27548 16.8113 1.2868C17.1925 0.977366 17.717 0.909441 18.1472 1.11321C18.8717 1.45661 19.5358 2.12076 19.8792 2.84529C20.083 3.27548 20.0151 3.80001 19.7057 4.18114C18.717 5.39623 17.4377 6.82642 16.0038 8.30944C15.8981 8.41888 15.7547 8.48303 15.6 8.48303H15.5962L15.6 8.4868ZM13.8868 5.40755L15.5925 7.11321C16.8415 5.80001 17.9547 4.55095 18.8302 3.47171C18.8642 3.4302 18.8755 3.37359 18.8604 3.33586C18.6264 2.84529 18.1585 2.37359 17.6642 2.13963C17.6264 2.12454 17.5698 2.13586 17.5283 2.16982C16.4491 3.04529 15.1962 4.1585 13.8868 5.40755Z" fill="black"/>
<path d="M8.49057 19.4906C5.26792 19.4906 2.36226 17.3849 0.909434 13.9925C0.788679 13.7094 0.811321 13.3849 0.973585 13.1208C1.13208 12.8604 1.40755 12.6943 1.70943 12.6755C2.38491 12.6302 3.04906 12.4943 3.68302 12.2755C3.0717 12.3359 2.44528 12.3321 1.82264 12.2566C0.856604 12.1359 0.101887 11.3321 0.0301887 10.3434C0.0113208 10.0604 0 9.77359 0 9.49057V8.72453C0 8.36227 0.150943 8.01133 0.415094 7.7585C0.675472 7.50944 1.01887 7.38869 1.37358 7.40378C1.47925 7.41133 1.58868 7.41133 1.69811 7.41133C3.83774 7.41133 5.93585 6.49435 7.31321 4.9585C7.41509 4.84152 7.56226 4.77359 7.72075 4.76982C7.8717 4.7585 8.02642 4.82642 8.13585 4.93586L16.0604 12.8604C16.1962 12.9962 16.2528 13.1925 16.2113 13.3811C15.434 16.9208 12.1887 19.4868 8.49057 19.4868V19.4906ZM2.05283 13.7849C3.35472 16.6113 5.8 18.3585 8.49057 18.3585C11.5585 18.3585 14.2604 16.3057 15.034 13.4377L7.7434 6.14718C6.16604 7.66038 3.95094 8.54718 1.69811 8.54718C1.56981 8.54718 1.44151 8.5434 1.31321 8.53586C1.2566 8.53208 1.21887 8.5585 1.19245 8.58114C1.15472 8.61887 1.13208 8.6717 1.13208 8.72453V9.49057C1.13208 9.74718 1.13962 10.0076 1.15849 10.2604C1.19245 10.7132 1.5283 11.0793 1.96226 11.1321C3.87547 11.3698 5.75472 10.8415 7.27925 9.67925C7.50566 9.50567 7.82264 9.52831 8.02264 9.72831C8.22264 9.92831 8.24528 10.2453 8.0717 10.4717C6.6566 12.3283 4.42264 13.5547 2.05283 13.7811V13.7849Z" fill="black"/>
<path d="M5.2717 18.6755C4.98868 18.6755 4.7434 18.4642 4.70943 18.1774C4.6717 17.8679 4.89434 17.5849 5.20377 17.5472C6.44528 17.4 7.63396 16.9359 8.64528 16.2038C8.89811 16.0189 9.25283 16.0755 9.43396 16.3283C9.61887 16.5811 9.56226 16.9359 9.30943 17.117C8.1434 17.9623 6.76981 18.4981 5.33962 18.6679C5.31698 18.6679 5.29434 18.6717 5.2717 18.6717V18.6755Z" fill="black"/>
<path d="M2.83019 16.4717C2.78868 16.4717 2.75094 16.4717 2.71321 16.4679H2.67547C2.36226 16.4604 2.11321 16.2038 2.11698 15.8906C2.12075 15.5811 2.37358 15.3321 2.68302 15.3321H2.69057C2.72453 15.3321 2.75849 15.3321 2.79245 15.3359H2.83019C4.76226 15.3359 6.58868 14.5925 7.97358 13.234C8.19623 13.0151 8.55472 13.0189 8.77358 13.2415C8.99245 13.4642 8.98868 13.8227 8.76604 14.0415C7.16981 15.6038 5.06038 16.4679 2.83019 16.4679V16.4717Z" fill="black"/>
</g>
<defs>
<clipPath id="clip0_923_355">
<rect width="20" height="20" fill="white"/>
</clipPath>
</defs>
</svg>
