<svg width="20" height="20" viewBox="0 0 20 20" fill="none" xmlns="http://www.w3.org/2000/svg">
<path fill-rule="evenodd" clip-rule="evenodd" d="M5.89844 9.96094C5.89844 12.2232 7.73776 14.0625 10 14.0625C12.2622 14.0625 14.1016 12.2232 14.1016 9.96094C14.1016 7.6987 12.2622 5.85938 10 5.85938C7.73776 5.85938 5.89844 7.6987 5.89844 9.96094ZM10 12.8906C8.38497 12.8906 7.07031 11.576 7.07031 9.96094C7.07031 8.34591 8.38497 7.03125 10 7.03125C11.615 7.03125 12.9297 8.34591 12.9297 9.96094C12.9297 11.576 11.615 12.8906 10 12.8906Z" fill="#346A5C"/>
<path fill-rule="evenodd" clip-rule="evenodd" d="M0 4.88281C0 5.20642 0.262333 5.46875 0.585937 5.46875H5.27344C5.59704 5.46875 5.85938 5.20642 5.85938 4.88281V0.585938C5.85938 0.262334 5.59704 6.45717e-07 5.27344 6.45717e-07C4.94983 6.45717e-07 4.6875 0.262334 4.6875 0.585938V4.29688H1.17187V0.585938C1.17187 0.262334 0.909542 6.45717e-07 0.585937 6.45717e-07C0.262333 6.45717e-07 0 0.262334 0 0.585938V4.88281Z" fill="#346A5C"/>
<path fill-rule="evenodd" clip-rule="evenodd" d="M2.92969 5.46875C3.25329 5.46875 3.51562 5.20642 3.51562 4.88281V0.585938C3.51562 0.262334 3.25329 6.45717e-07 2.92969 6.45717e-07C2.60608 6.45717e-07 2.34375 0.262334 2.34375 0.585938V4.88281C2.34375 5.20642 2.60608 5.46875 2.92969 5.46875Z" fill="#346A5C"/>
<path fill-rule="evenodd" clip-rule="evenodd" d="M18.2422 18.8281C17.9186 18.8281 17.6562 18.5658 17.6562 18.2422V13.6719H18.8281V18.2422C18.8281 18.5658 18.5658 18.8281 18.2422 18.8281ZM16.4844 18.2422C16.4844 19.213 17.2714 20 18.2422 20C19.213 20 20 19.213 20 18.2422V13.0859C20 12.7623 19.7377 12.5 19.4141 12.5H17.0703C16.7467 12.5 16.4844 12.7623 16.4844 13.0859V18.2422Z" fill="#346A5C"/>
<path fill-rule="evenodd" clip-rule="evenodd" d="M3.61042 14.1083C4.96776 16.1955 7.32213 17.5781 10.0001 17.5781C13.1248 17.5781 15.8082 15.6965 16.9829 13.0073C17.1125 12.7108 16.9771 12.3654 16.6805 12.2358C16.384 12.1063 16.0386 12.2417 15.909 12.5382C14.914 14.8161 12.6422 16.4063 10.0001 16.4063C7.73535 16.4063 5.74323 15.2384 4.59284 13.4694C4.41642 13.1981 4.05348 13.1212 3.7822 13.2976C3.51091 13.474 3.43401 13.837 3.61042 14.1083Z" fill="#346A5C"/>
<path fill-rule="evenodd" clip-rule="evenodd" d="M16.5519 7.33813C16.8412 7.19311 16.9581 6.84103 16.8131 6.55174C15.5629 4.05793 12.9825 2.34374 10.0002 2.34374C7.95626 2.34374 6.09949 3.14969 4.7319 4.45966C4.4982 4.68351 4.49022 5.05442 4.71407 5.28811C4.93792 5.52181 5.30883 5.52979 5.54252 5.30594C6.70079 4.19646 8.27034 3.51561 10.0002 3.51561C12.522 3.51561 14.7063 4.964 15.7655 7.07691C15.9105 7.3662 16.2626 7.48315 16.5519 7.33813Z" fill="#346A5C"/>
<path fill-rule="evenodd" clip-rule="evenodd" d="M2.92969 18.8281C2.6061 18.8281 2.34375 18.5658 2.34375 18.2422V7.61719C2.34375 7.42128 2.24584 7.23833 2.08284 7.12966C1.52518 6.75788 1.18573 6.13712 1.17229 5.46875H4.68709C4.67365 6.13712 4.33419 6.75788 3.77654 7.12966C3.61353 7.23833 3.51563 7.42128 3.51563 7.61719V18.2422C3.51563 18.5658 3.25327 18.8281 2.92969 18.8281ZM1.17188 18.2422C1.17188 19.213 1.9589 20 2.92969 20C3.90048 20 4.6875 19.213 4.6875 18.2422V7.91109C5.42514 7.30363 5.85938 6.39432 5.85938 5.4275V4.88281C5.85938 4.55921 5.59704 4.29688 5.27344 4.29688H0.585937C0.262333 4.29688 0 4.55921 0 4.88281V5.4275C0 6.39432 0.434232 7.30363 1.17188 7.91109V18.2422Z" fill="#346A5C"/>
<path fill-rule="evenodd" clip-rule="evenodd" d="M15.7031 12.3047C15.7031 13.0598 16.3152 13.6719 17.0703 13.6719H19.4141C19.7377 13.6719 20 13.4095 20 13.0859V0.58594C20 0.393765 19.9058 0.213805 19.7478 0.104344C19.5899 -0.00511917 19.3883 -0.0301683 19.2083 0.0373071C17.0999 0.827951 15.7031 2.84353 15.7031 5.09531V12.3047ZM17.0703 12.5C16.9624 12.5 16.875 12.4126 16.875 12.3047V5.09531C16.875 3.63202 17.6282 2.29611 18.8281 1.53006V12.5H17.0703Z" fill="#346A5C"/>
</svg>
