<svg width="20" height="20" viewBox="0 0 20 20" fill="none" xmlns="http://www.w3.org/2000/svg">
<path d="M12.6796 2.98892C11.985 2.36381 11.0743 2.00347 10.1806 2C10.176 2 10.1715 2 10.167 2C9.27781 2 8.36984 2.35269 7.6735 2.96877C6.9497 3.60987 6.54906 4.4393 6.54558 5.30522L6.53516 7.94432L13.778 7.97316L13.7884 5.33406C13.7919 4.46849 13.3979 3.63558 12.6793 2.98892H12.6796ZM12.7331 7.87447L7.58107 7.85397L7.59114 5.30939C7.59358 4.71346 7.88928 4.14082 8.4244 3.69709C8.92372 3.28289 9.55822 3.04556 10.167 3.04556H10.1764C10.7879 3.048 11.4245 3.29054 11.9228 3.71098C12.4541 4.15923 12.7456 4.73431 12.7432 5.32989L12.7331 7.87447Z" fill="#004438"/>
<path d="M14.3007 7.56035L6.01574 7.52734C6.01296 7.52734 6.01053 7.52734 6.00775 7.52734C4.9184 7.52734 4.0299 8.41133 4.02538 9.50172L4.00001 15.9763C3.99584 17.0695 4.88157 17.9621 5.97439 17.9666L14.2593 17.9997C14.2621 17.9997 14.2645 17.9997 14.2673 17.9997C15.3567 17.9997 16.2452 17.1157 16.2497 16.0253L16.2754 9.55106C16.2775 9.02254 16.0732 8.52426 15.6996 8.14759C15.3261 7.77127 14.8295 7.56279 14.301 7.5607L14.3007 7.56035ZM15.1697 16.0208C15.1687 16.2616 15.0738 16.4878 14.9025 16.6577C14.7322 16.8269 14.5067 16.9197 14.2673 16.9197H14.2638L5.97891 16.8867C5.48132 16.8846 5.07824 16.4784 5.07998 15.9808L5.10569 9.50658C5.10778 9.01003 5.51224 8.60765 6.00809 8.60765H6.01157L14.2965 8.64066C14.5373 8.64171 14.7635 8.73657 14.9334 8.90788C15.1033 9.07918 15.1965 9.30609 15.1954 9.54689L15.1697 16.0211V16.0208Z" fill="#004438"/>
<path d="M10.1282 15.0716H10.1303C10.4239 15.0716 10.6634 14.8336 10.6644 14.5396L10.6734 12.2678L10.729 12.2265C10.9796 12.0399 11.1238 11.7539 11.1248 11.4422C11.1269 10.9005 10.688 10.4581 10.1463 10.4561H10.1425C9.60251 10.4561 9.16225 10.8942 9.16017 11.4346C9.15878 11.7462 9.3009 12.0333 9.54969 12.2219L9.60494 12.264L9.5959 14.5358C9.59486 14.8301 9.83323 15.0709 10.1279 15.072L10.1282 15.0716Z" fill="#004438"/>
</svg>
