<svg width="20" height="20" viewBox="0 0 20 20" fill="none" xmlns="http://www.w3.org/2000/svg">
<path d="M17.0345 14.1152H16.5466V8.56841C16.5466 7.72079 16.2165 6.9238 15.6172 6.32449C15.0179 5.72517 14.2209 5.39505 13.3733 5.39505C12.5257 5.39505 11.7288 5.72517 11.1293 6.32449C10.53 6.9238 10.1999 7.72079 10.1999 8.56841V16.8265C10.1999 18.0063 9.2402 18.966 8.06045 18.966C6.8807 18.966 5.92099 18.0063 5.92099 16.8265V10.7355H7.26373C8.04344 10.7355 8.67784 10.101 8.67784 9.32133V3.86227C8.67784 3.57728 8.44589 3.34532 8.16089 3.34532H7.92826V0.516952C7.92826 0.231959 7.69631 0 7.41131 0H3.3969C3.11191 0 2.87995 0.231959 2.87995 0.516952V3.34545H2.64732C2.36233 3.34545 2.13037 3.57741 2.13037 3.86241V9.32147C2.13037 10.1012 2.76478 10.7356 3.54449 10.7356H4.88722V16.8266C4.88722 17.6743 5.21735 18.4711 5.81666 19.0706C6.41598 19.67 7.21297 20 8.06058 20C8.9082 20 9.70518 19.6699 10.3045 19.0706C10.9038 18.4712 11.2339 17.6743 11.2339 16.8266V8.56854C11.2339 7.38879 12.1937 6.42908 13.3734 6.42908C14.5531 6.42908 15.5129 7.38879 15.5129 8.56854V14.1153H15.025C14.4926 14.1153 14.0595 14.5484 14.0595 15.0808V17.8103C14.0595 18.0725 14.2558 18.2899 14.5092 18.323V19.483C14.5092 19.768 14.7412 20 15.0262 20H17.0334C17.3184 20 17.5504 19.768 17.5504 19.483V18.323C17.8038 18.2899 18.0001 18.0727 18.0001 17.8103V15.0808C18.0001 14.5484 17.5669 14.1152 17.0345 14.1152ZM16.5164 18.3271V18.966H15.543V18.3271H16.5164ZM16.9661 15.1491V17.2932H15.0931V15.1491H16.9661ZM3.91385 3.34545V1.0339H6.8945V3.34545H3.91385ZM7.26373 9.70168H3.54449C3.33489 9.70168 3.16427 9.53106 3.16427 9.32147V4.37936H7.64394V9.32147C7.64394 9.53106 7.47332 9.70168 7.26373 9.70168Z" fill="black"/>
</svg>
