<svg width="20" height="20" viewBox="0 0 20 20" fill="none" xmlns="http://www.w3.org/2000/svg">
<path d="M5.99823 4.30012C5.99823 3.27899 5.16748 2.44824 4.14635 2.44824C3.12523 2.44824 2.29443 3.27899 2.29443 4.30012C2.29443 5.32125 3.12519 6.152 4.14631 6.152C5.16744 6.152 5.99823 5.32125 5.99823 4.30012ZM4.14631 4.98144C3.77062 4.98144 3.465 4.67582 3.465 4.30012C3.465 3.92442 3.77062 3.6188 4.14631 3.6188C4.52201 3.6188 4.82763 3.92442 4.82763 4.30012C4.82763 4.67582 4.52201 4.98144 4.14631 4.98144Z" fill="#346A5C"/>
<path d="M19.9995 9.77717C19.9903 9.54656 19.8463 9.34292 19.6321 9.25721L13.4107 6.76862C13.2303 6.69653 13.026 6.71852 12.8652 6.82737C12.7043 6.93622 12.608 7.11779 12.608 7.31203V15.8962C11.8927 16.1077 11.3381 16.6961 11.175 17.4307H2.8963C2.27227 17.4307 1.76455 16.923 1.76455 16.2989C1.76455 15.6749 2.27227 15.1672 2.8963 15.1672H8.1924C9.39656 15.1672 10.3762 14.1875 10.3762 12.9834C10.3762 11.7792 9.39656 10.7995 8.1924 10.7995H5.17821L7.69632 6.58954C8.12311 5.87604 8.3487 5.05943 8.3487 4.22804C8.3487 1.92632 6.47609 0.0537109 4.17437 0.0537109C1.87265 0.0537109 0 1.92628 0 4.228V4.24293C0 5.06314 0.219986 5.87032 0.636152 6.5771L3.64178 11.6817C3.73554 11.8325 3.90835 11.9715 4.14413 11.97H8.19244C8.75117 11.97 9.20571 12.4246 9.20571 12.9833C9.20571 13.542 8.75117 13.9966 8.19244 13.9966H2.8963C1.6268 13.9966 0.593947 15.0294 0.593947 16.2989C0.593947 17.5684 1.6268 18.6013 2.8963 18.6013H11.256C11.5496 19.3861 12.307 19.9464 13.193 19.9464C14.333 19.9464 15.2604 19.019 15.2604 17.879C15.2604 16.9424 14.6342 16.1497 13.7786 15.8965V13.2517L19.6749 10.325C19.8816 10.2223 20.0088 10.0078 19.9995 9.77717ZM1.64484 5.98316C1.33457 5.45617 1.17056 4.8544 1.17056 4.24289V4.22796C1.17056 2.57171 2.51804 1.22419 4.17433 1.22419C5.83062 1.22419 7.1781 2.57171 7.1781 4.22796C7.1781 4.84781 7.00991 5.4566 6.69174 5.9886L4.15009 10.2379L1.64484 5.98316ZM14.0898 17.8789C14.0898 18.3735 13.6874 18.7758 13.193 18.7758C12.6985 18.7758 12.2961 18.3734 12.2961 17.8789C12.2961 17.385 12.6975 16.9831 13.1912 16.9821C13.192 16.9821 13.1927 16.9822 13.1933 16.9822C13.194 16.9822 13.1946 16.9822 13.1952 16.9822C13.6887 16.9833 14.0898 17.3851 14.0898 17.8789ZM13.7786 11.9448V8.17654L17.9825 9.8581L13.7786 11.9448Z" fill="#346A5C"/>
</svg>
