<svg width="20" height="20" viewBox="0 0 20 20" fill="none" xmlns="http://www.w3.org/2000/svg">
<path d="M10 3C6.13382 3 3 6.13382 3 10C3 13.8662 6.13382 17 10 17C13.8662 17 17 13.8662 17 10C17 6.13382 13.8662 3 10 3ZM10 15.6312C6.89495 15.6312 4.36881 13.1051 4.36881 10C4.36881 6.89495 6.89495 4.36881 10 4.36881C13.1051 4.36881 15.6312 6.89495 15.6312 10C15.6312 13.1051 13.1051 15.6312 10 15.6312Z" fill="#004438"/>
<path d="M12.6526 13.3615C12.4921 13.3615 12.3412 13.2989 12.2281 13.1853L9.61114 10.5684C9.40219 10.3594 9.28711 10.0813 9.28711 9.78603V6.03291C9.28711 5.69879 9.55865 5.42725 9.89278 5.42725C9.9059 5.42725 9.91953 5.42725 9.93265 5.42876C10.2496 5.44945 10.4979 5.72251 10.4979 6.05058V9.56799C10.4979 9.69064 10.5459 9.80572 10.6322 9.89253L13.0645 12.3248C13.2946 12.5549 13.3118 12.9204 13.1038 13.1571C12.9893 13.2873 12.8247 13.362 12.6521 13.362L12.6526 13.3615Z" fill="#004438"/>
</svg>
