<svg width="20" height="20" viewBox="0 0 20 20" fill="none" xmlns="http://www.w3.org/2000/svg">
<path d="M14.3591 5.18457H10.1929C8.41162 5.18457 6.74854 7.64966 6.74854 8.77245C6.74854 9.02993 6.82029 9.24943 6.96381 9.41827C7.082 9.55756 7.29727 9.72218 7.66028 9.72218H13.5571C14.0383 9.72218 14.4984 9.59977 14.8825 9.37184C15.2117 9.17767 15.4903 8.93707 15.7098 8.6627C15.9504 8.36301 16.1277 8.00422 16.2374 7.59478C16.3894 7.02494 16.2712 6.42556 15.9082 5.9528C15.5367 5.46738 14.9711 5.18879 14.3591 5.18879V5.18457ZM13.5571 8.5614H7.94731C8.01907 8.33346 8.19213 7.95357 8.54248 7.50192C9.08277 6.80123 9.72859 6.34536 10.1929 6.34536H14.3591C14.6081 6.34536 14.836 6.45932 14.988 6.65771C15.1315 6.84344 15.1779 7.07559 15.1188 7.29509C15.0513 7.54835 14.9458 7.76362 14.8065 7.93669C14.6714 8.10553 14.4941 8.25326 14.2873 8.37989C14.0847 8.50231 13.8314 8.56562 13.5571 8.56562V8.5614Z" fill="#004438"/>
<path d="M19.9695 10.794C19.6529 9.40945 19.121 7.10899 18.7791 5.63584C18.4583 4.25557 17.2089 3.5 15.2588 3.5H9.77145C8.14635 3.5 7.02355 3.87145 5.63483 4.87606C3.25417 6.58558 1.5953 9.77246 0.852398 12.0983C0.476726 12.2882 0.147485 12.5626 -0.0931137 12.9087C-0.346376 13.2717 -0.375923 13.7402 -0.173313 14.137C0.0335174 14.538 0.442958 14.7871 0.894609 14.7871H15.7316C16.103 14.7871 16.4491 14.6182 16.6771 14.327C16.905 14.0357 16.9852 13.66 16.8966 13.297L16.7826 12.8454C16.7657 12.7778 16.7404 12.7103 16.7151 12.647C16.8839 12.4739 17.2849 12.2544 17.7914 12.2544H18.8002C19.121 12.2544 19.4207 12.1278 19.6487 11.9041C19.9399 11.6128 20.0623 11.195 19.9695 10.794ZM1.45179 13.0986H15.6218C15.6218 13.0986 15.6556 13.1113 15.6556 13.1282L15.7695 13.5798L15.7358 13.6263H0.894609C0.894609 13.6263 0.869283 13.6263 0.856619 13.5756C1.00436 13.3688 1.21119 13.1957 1.4349 13.1029C1.4349 13.1029 1.43912 13.1029 1.45179 13.1029V13.0986ZM18.8002 11.0936H17.7914C16.9008 11.0936 16.1705 11.4946 15.7906 11.9505C15.7358 11.9421 15.6809 11.9379 15.6218 11.9379H2.13137C3.04734 9.37146 4.63867 7.02034 6.3102 5.81313C7.50897 4.94782 8.38273 4.65656 9.77145 4.65656H15.2588C16.6517 4.65656 17.458 5.07445 17.6479 5.89755C17.9898 7.37069 18.5217 9.67116 18.8382 11.0514L18.9944 11.0177L18.8045 11.0979L18.8002 11.0936Z" fill="#004438"/>
</svg>
