<svg width="20" height="20" viewBox="0 0 20 20" fill="none" xmlns="http://www.w3.org/2000/svg">
<path d="M5.81439 18.8153C5.70226 18.8153 5.59273 18.7663 5.5145 18.6683C5.37629 18.4941 5.39715 18.2382 5.56405 18.0939C6.38288 17.378 6.16383 15.7119 6.16122 15.6956C6.12993 15.4723 6.27857 15.2654 6.49241 15.2328C6.70624 15.2028 6.90443 15.3553 6.93572 15.5785C6.94876 15.6656 7.21997 17.7128 6.06734 18.7228C5.99433 18.7881 5.90566 18.8181 5.817 18.8181L5.81439 18.8153Z" fill="#004438"/>
<path d="M5.4104 16.2144C5.23829 16.2144 5.08183 16.0947 5.03228 15.915L3.80664 11.2516L4.56028 11.0366L5.69204 15.3406L7.37142 15.0302L6.86552 9.6019L7.64524 9.52295L8.18765 15.327C8.20851 15.5393 8.06769 15.7326 7.8669 15.768L5.4782 16.209C5.45473 16.2144 5.43126 16.2144 5.4104 16.2144Z" fill="#004438"/>
<path d="M5.47749 10.3866C3.00796 10.3866 1 8.29041 1 5.71236V5.67425C1 3.0962 3.00796 1 5.47749 1C6.66402 1 7.78013 1.47913 8.62504 2.35028C8.66416 2.38295 8.72935 2.42923 8.77107 2.44828L8.80497 2.46462C8.94579 2.5354 9.27437 2.69874 10.7243 2.69874C12.2863 2.69874 14.4221 2.15971 14.4429 2.15427C14.5577 2.12432 14.6828 2.15427 14.7767 2.2305C14.8706 2.30672 14.9253 2.4265 14.9253 2.55173V8.83216C14.9253 8.95738 14.8706 9.07717 14.7767 9.15339C14.6828 9.22962 14.5577 9.25956 14.4429 9.22962C14.4221 9.22417 12.2863 8.68515 10.7243 8.68515C9.27437 8.68515 8.94579 8.85121 8.80497 8.91927L8.76847 8.93561C8.72674 8.95738 8.66155 9.00366 8.62243 9.03361C7.78013 9.90476 6.66141 10.3839 5.47489 10.3839L5.47749 10.3866ZM5.47749 1.8167C3.44085 1.8167 1.78232 3.54811 1.78232 5.67425V5.71236C1.78232 7.83851 3.44085 9.56991 5.47749 9.56991C6.46322 9.56991 7.38897 9.16973 8.08784 8.44286C8.09567 8.4347 8.1061 8.42381 8.11653 8.41564C8.14261 8.39114 8.28864 8.27136 8.4425 8.19513L8.46857 8.18152C8.69023 8.0699 9.09965 7.86573 10.7269 7.86573C11.9317 7.86573 13.3998 8.1543 14.1482 8.32036V3.06353C13.4024 3.22959 11.9317 3.51816 10.7269 3.51816C9.09965 3.51816 8.69023 3.31398 8.46857 3.20237L8.4425 3.18876C8.28864 3.11525 8.14261 2.99275 8.11653 2.96825C8.1061 2.96008 8.09828 2.95191 8.08784 2.94102C7.39158 2.21416 6.46322 1.81398 5.47749 1.81398V1.8167Z" fill="#004438"/>
<path d="M7.20632 6.10186H3.49028C3.27384 6.10186 3.09912 5.91946 3.09912 5.69351C3.09912 5.46755 3.27384 5.28516 3.49028 5.28516H7.20632C7.42276 5.28516 7.59748 5.46755 7.59748 5.69351C7.59748 5.91946 7.42276 6.10186 7.20632 6.10186Z" fill="#004438"/>
<path d="M6.12017 4.49541H4.57378C4.35734 4.49541 4.18262 4.31301 4.18262 4.08706C4.18262 3.86111 4.35734 3.67871 4.57378 3.67871H6.12017C6.33661 3.67871 6.51133 3.86111 6.51133 4.08706C6.51133 4.31301 6.33661 4.49541 6.12017 4.49541Z" fill="#004438"/>
<path d="M6.12017 7.70537H4.57378C4.35734 7.70537 4.18262 7.52298 4.18262 7.29702C4.18262 7.07107 4.35734 6.88867 4.57378 6.88867H6.12017C6.33661 6.88867 6.51133 7.07107 6.51133 7.29702C6.51133 7.52298 6.33661 7.70537 6.12017 7.70537Z" fill="#004438"/>
<path d="M13.1305 2.93018H12.3481V8.45651H13.1305V2.93018Z" fill="#004438"/>
<path d="M17.146 5.29044C17.146 5.29044 17.1251 5.29044 17.1121 5.29044C16.7027 5.27955 16.2958 5.04543 15.9021 4.59625C15.756 4.43018 15.7665 4.17156 15.9282 4.01911C16.0872 3.86666 16.335 3.87755 16.481 4.04634C16.7209 4.32129 16.9478 4.4683 17.1329 4.47374C17.2764 4.47919 17.4172 4.40024 17.5841 4.22873C17.9439 3.86122 18.3403 3.68971 18.7549 3.71421C19.4251 3.75505 19.8658 4.30224 19.9128 4.36485C20.0484 4.5418 20.0223 4.7977 19.8528 4.93926C19.6859 5.08082 19.4408 5.0536 19.3052 4.87937C19.2974 4.86848 19.034 4.54725 18.7054 4.53091C18.5176 4.52002 18.3299 4.61258 18.1317 4.81403C18.0143 4.93382 17.6649 5.29044 17.1434 5.29044H17.146Z" fill="#004438"/>
<path d="M17.146 7.67185C17.146 7.67185 17.1251 7.67185 17.1121 7.67185C16.7027 7.66096 16.2958 7.42684 15.9021 6.97765C15.756 6.81159 15.7665 6.55297 15.9282 6.40052C16.0872 6.24807 16.335 6.25896 16.481 6.42774C16.7209 6.7027 16.9478 6.8497 17.1329 6.85515C17.2764 6.86331 17.4172 6.78164 17.5841 6.61014C17.9439 6.24262 18.3403 6.07384 18.7549 6.09562C19.4251 6.13645 19.8658 6.68364 19.9128 6.74625C20.0484 6.92321 20.0223 7.1791 19.8528 7.32067C19.6859 7.46223 19.4408 7.435 19.3052 7.26077C19.2974 7.24989 19.034 6.92865 18.7054 6.91232C18.5176 6.90143 18.3299 6.99399 18.1317 7.19544C18.0143 7.31522 17.6649 7.67185 17.1434 7.67185H17.146Z" fill="#004438"/>
</svg>
