<svg width="20" height="20" viewBox="0 0 20 20" fill="none" xmlns="http://www.w3.org/2000/svg">
<path d="M14.7544 12.2807H5.63158C5.34035 12.2807 5.10526 12.0456 5.10526 11.7544V0.526316C5.10526 0.235088 5.34035 0 5.63158 0H14.7544C15.0456 0 15.2807 0.235088 15.2807 0.526316V11.7544C15.2807 12.0456 15.0456 12.2807 14.7544 12.2807ZM6.15789 11.2281H14.2281V1.05263H6.15789V11.2281Z" fill="black"/>
<path d="M10.8947 20H9.49123C7.4 20 5.63509 18.3684 5.47018 16.2877C5.45263 16.0702 5.52632 15.8526 5.67719 15.6912C5.82456 15.5298 6.03509 15.4386 6.25263 15.4386H14.1333C14.3509 15.4386 14.5649 15.5298 14.7123 15.6912C14.8597 15.8526 14.9333 16.0702 14.9158 16.2877C14.7509 18.3684 12.986 20 10.8947 20ZM6.55439 16.4912C6.80351 17.8912 8.04211 18.9474 9.49123 18.9474H10.8947C12.3439 18.9474 13.5789 17.8912 13.8316 16.4912H6.55439Z" fill="black"/>
<path d="M16.8596 20C16.5684 20 16.3333 19.7649 16.3333 19.4737V16.8421H14.386C14.0947 16.8421 13.8596 16.607 13.8596 16.3158C13.8596 16.0246 14.0947 15.7895 14.386 15.7895H16.8596C17.1509 15.7895 17.386 16.0246 17.386 16.3158V19.4737C17.386 19.7649 17.1509 20 16.8596 20Z" fill="black"/>
<path d="M3.52632 20C3.23509 20 3 19.7649 3 19.4737V16.3158C3 16.0246 3.23509 15.7895 3.52632 15.7895H6C6.29123 15.7895 6.52632 16.0246 6.52632 16.3158C6.52632 16.607 6.29123 16.8421 6 16.8421H4.05263V19.4737C4.05263 19.7649 3.81754 20 3.52632 20Z" fill="black"/>
<path d="M10.3684 15.614H9.31579V13.8596C9.31579 13.1825 9.86667 12.6316 10.5439 12.6316C11.2211 12.6316 11.7719 13.1825 11.7719 13.8596V14.2105H10.7193V13.8596C10.7193 13.7614 10.6421 13.6842 10.5439 13.6842C10.4456 13.6842 10.3684 13.7614 10.3684 13.8596V15.614Z" fill="black"/>
<path d="M13.5263 15.0877H12.4737C12.1825 15.0877 11.9474 14.8526 11.9474 14.5614C11.9474 14.2702 12.1825 14.0351 12.4737 14.0351H13.5263C13.8175 14.0351 14.0526 14.2702 14.0526 14.5614C14.0526 14.8526 13.8175 15.0877 13.5263 15.0877Z" fill="black"/>
<path d="M7.91228 15.0877H6.85965C6.56842 15.0877 6.33333 14.8526 6.33333 14.5614C6.33333 14.2702 6.56842 14.0351 6.85965 14.0351H7.91228C8.20351 14.0351 8.4386 14.2702 8.4386 14.5614C8.4386 14.8526 8.20351 15.0877 7.91228 15.0877Z" fill="black"/>
<path d="M13.5263 14.9123H12.4737V15.9649H13.5263V14.9123Z" fill="black"/>
<path d="M7.91228 14.9123H6.85965V15.9649H7.91228V14.9123Z" fill="black"/>
<path d="M7.47018 3.89825C7.36842 3.89825 7.26667 3.85965 7.18947 3.78246C7.03158 3.62807 7.02807 3.37193 7.18246 3.21403L7.97895 2.39649C8.13333 2.23509 8.38947 2.23509 8.54737 2.38947C8.70526 2.54386 8.70877 2.8 8.55439 2.95789L7.7579 3.77544C7.67719 3.85614 7.57544 3.89825 7.47018 3.89825Z" fill="black"/>
<path d="M7.78947 5.8386C7.68421 5.8386 7.57544 5.8 7.49474 5.7193C7.32982 5.55789 7.32632 5.29123 7.49123 5.12632L9.71228 2.86667C9.87368 2.70175 10.1404 2.69825 10.3053 2.86316C10.4702 3.02456 10.4737 3.29123 10.3088 3.45614L8.08772 5.71579C8.00702 5.8 7.89825 5.84211 7.78947 5.84211V5.8386Z" fill="black"/>
</svg>
