<svg width="20" height="20" viewBox="0 0 20 20" fill="none" xmlns="http://www.w3.org/2000/svg">
<path d="M18.6788 4.49939C19.557 3.62115 19.6604 2.20689 18.9192 1.20974C18.8828 1.16076 18.8394 1.1174 18.7905 1.08099C17.7933 0.339781 16.379 0.443062 15.5007 1.32138L12.404 4.41814L10.4891 3.79728L10.7359 3.55044C10.98 3.30638 10.98 2.91064 10.7359 2.66658C10.4919 2.42252 10.0961 2.42252 9.85207 2.66658L9.15418 3.36447L7.86402 2.94619L7.91777 2.89244C8.16184 2.64837 8.16184 2.25263 7.91777 2.00857C7.67371 1.76451 7.27797 1.76451 7.03391 2.00857L6.5291 2.51337L3.6441 1.57802C3.42078 1.5056 3.17551 1.56455 3.00941 1.7306L1.76895 2.97111C1.63188 3.10818 1.56617 3.30107 1.59106 3.49334C1.61598 3.68556 1.72863 3.85537 1.89613 3.95298L8.82824 7.99392L7.01293 9.80923C6.62 10.2022 6.07297 11.0121 5.64656 11.8154L2.18813 11.0228C1.97852 10.9748 1.75875 11.0379 1.60656 11.1901L0.770235 12.0264C0.636055 12.1606 0.570118 12.3484 0.590938 12.537C0.611798 12.7256 0.717188 12.8945 0.877423 12.9961L4.62645 15.3737L7.00399 19.1227C7.10563 19.2829 7.27453 19.3883 7.46313 19.4092C7.48606 19.4117 7.50899 19.413 7.53184 19.413C7.69664 19.413 7.8559 19.3477 7.97375 19.2299L8.81012 18.3936C8.96227 18.2414 9.02547 18.0217 8.97738 17.812L8.18473 14.3536C8.98805 13.9271 9.79809 13.3801 10.1909 12.9872L12.0062 11.1719L16.047 18.104C16.1447 18.2714 16.3145 18.3841 16.5067 18.409C16.6989 18.434 16.8918 18.3682 17.0289 18.2312L18.2695 16.9906C18.4355 16.8245 18.4945 16.5794 18.422 16.356L17.4867 13.471L17.9915 12.9662C18.2355 12.7221 18.2355 12.3264 17.9915 12.0823C17.7474 11.8383 17.3517 11.8383 17.1076 12.0823L17.0539 12.1361L16.6356 10.8459L17.3335 10.148C17.5775 9.90396 17.5775 9.50822 17.3335 9.26416C17.0894 9.02009 16.6937 9.02009 16.4496 9.26416L16.2028 9.51099L15.582 7.59619L18.6788 4.49939ZM16.7186 16.7738L12.6777 9.84177C12.5801 9.67431 12.4103 9.56162 12.218 9.5367C12.0257 9.51177 11.8329 9.57748 11.6958 9.71459L9.30711 12.1033C8.98691 12.4235 8.08996 13.0295 7.19914 13.4502C6.93367 13.5756 6.79129 13.8688 6.85684 14.155L7.68172 17.7542L7.64168 17.7942L5.60715 14.586C5.55781 14.5083 5.49188 14.4423 5.4141 14.393L2.20594 12.3584L2.24594 12.3184L5.84516 13.1433C6.13141 13.2088 6.42453 13.0664 6.54992 12.801C6.97059 11.9102 7.5766 11.0133 7.8968 10.693L10.2855 8.30427C10.4226 8.1672 10.4883 7.97431 10.4634 7.78205C10.4385 7.58982 10.3259 7.42001 10.1584 7.32236L3.22629 3.2815L3.62266 2.88509L12.3825 5.72525C12.606 5.79775 12.8512 5.73873 13.0172 5.57267L16.3846 2.20529C16.8058 1.78416 17.4714 1.71619 17.9684 2.03177C18.284 2.5288 18.2161 3.19439 17.7949 3.61556L14.4275 6.98298C14.2614 7.14908 14.2025 7.39423 14.2749 7.61767L17.115 16.3774L16.7186 16.7738Z" fill="#004438"/>
</svg>
