<svg width="20" height="20" viewBox="0 0 20 20" fill="none" xmlns="http://www.w3.org/2000/svg">
<path d="M15.2653 20H2.61224C2.27347 20 2 19.7265 2 19.3878V2.2449C2 1.00816 3.00816 0 4.2449 0H13.6327C14.8694 0 15.8776 1.00816 15.8776 2.2449V6.32653C15.8776 6.66531 15.6041 6.93878 15.2653 6.93878H6.08163V16.3265H15.2653C15.6041 16.3265 15.8776 16.6 15.8776 16.9388V19.3878C15.8776 19.7265 15.6041 20 15.2653 20ZM3.22449 18.7755H14.6531V17.551H5.46939C5.13061 17.551 4.85714 17.2776 4.85714 16.9388V6.32653C4.85714 5.98776 5.13061 5.71429 5.46939 5.71429H14.6531V2.2449C14.6531 1.68163 14.1959 1.22449 13.6327 1.22449H4.2449C3.68163 1.22449 3.22449 1.68163 3.22449 2.2449V18.7755Z" fill="black"/>
<path d="M11.1837 9.79592H9.55102C8.98776 9.79592 8.53061 9.33878 8.53061 8.77551V7.14286C8.53061 6.80408 8.80408 6.53061 9.14286 6.53061C9.48163 6.53061 9.7551 6.80408 9.7551 7.14286V8.57143H10.9796V7.14286C10.9796 6.80408 11.2531 6.53061 11.5918 6.53061C11.9306 6.53061 12.2041 6.80408 12.2041 7.14286V8.77551C12.2041 9.33878 11.7469 9.79592 11.1837 9.79592Z" fill="black"/>
<path d="M10.3673 10.6122C10.0286 10.6122 9.7551 10.3388 9.7551 10V9.18367C9.7551 8.8449 10.0286 8.57143 10.3673 8.57143C10.7061 8.57143 10.9796 8.8449 10.9796 9.18367V10C10.9796 10.3388 10.7061 10.6122 10.3673 10.6122Z" fill="black"/>
<path d="M16.4898 8.57143H11.5918C11.2531 8.57143 10.9796 8.29796 10.9796 7.95918C10.9796 7.62041 11.2531 7.34694 11.5918 7.34694H16.4898C16.8286 7.34694 17.102 7.62041 17.102 7.95918C17.102 8.29796 16.8286 8.57143 16.4898 8.57143Z" fill="black"/>
<path d="M7.91837 5.30612H5.87755C5.31429 5.30612 4.85714 4.84898 4.85714 4.28571V3.46939C4.85714 2.90612 5.31429 2.44898 5.87755 2.44898H7.91837C8.48163 2.44898 8.93878 2.90612 8.93878 3.46939V4.28571C8.93878 4.84898 8.48163 5.30612 7.91837 5.30612ZM6.08163 4.08163H7.71429V3.67347H6.08163V4.08163Z" fill="black"/>
<path d="M10.7755 5.30612H9.95918C9.62041 5.30612 9.34694 5.03265 9.34694 4.69388C9.34694 4.3551 9.62041 4.08163 9.95918 4.08163H10.7755C11.1143 4.08163 11.3878 4.3551 11.3878 4.69388C11.3878 5.03265 11.1143 5.30612 10.7755 5.30612Z" fill="black"/>
<path d="M13.2245 5.30612H12.4082C12.0694 5.30612 11.7959 5.03265 11.7959 4.69388C11.7959 4.3551 12.0694 4.08163 12.4082 4.08163H13.2245C13.5633 4.08163 13.8367 4.3551 13.8367 4.69388C13.8367 5.03265 13.5633 5.30612 13.2245 5.30612Z" fill="black"/>
<path d="M10.3673 17.551C8.45306 17.551 6.89796 15.9959 6.89796 14.0816V12.449C6.89796 12.1102 7.17143 11.8367 7.5102 11.8367H13.2245C13.5633 11.8367 13.8367 12.1102 13.8367 12.449V14.0816C13.8367 15.9959 12.2816 17.551 10.3673 17.551ZM8.12245 13.0612V14.0816C8.12245 15.3184 9.13061 16.3265 10.3673 16.3265C11.6041 16.3265 12.6122 15.3184 12.6122 14.0816V13.0612H8.12245Z" fill="black"/>
<path d="M14.449 15.5102H13.2245C12.8857 15.5102 12.6122 15.2367 12.6122 14.898C12.6122 14.5592 12.8857 14.2857 13.2245 14.2857H14.449C14.5633 14.2857 14.6531 14.1959 14.6531 14.0816V13.6735C14.6531 13.5592 14.5633 13.4694 14.449 13.4694H13.2245C12.8857 13.4694 12.6122 13.1959 12.6122 12.8571C12.6122 12.5184 12.8857 12.2449 13.2245 12.2449H14.449C15.2367 12.2449 15.8776 12.8857 15.8776 13.6735V14.0816C15.8776 14.8694 15.2367 15.5102 14.449 15.5102Z" fill="black"/>
</svg>
