<svg width="20" height="20" viewBox="0 0 20 20" fill="none" xmlns="http://www.w3.org/2000/svg">
<path d="M3.65561 9.65129C3.5808 9.65129 3.5058 9.64301 3.43176 9.62635C3.17263 9.56783 2.95032 9.41026 2.8059 9.18263C2.56686 8.80564 2.56042 8.31618 2.78965 7.93549C2.89321 7.76342 2.94253 7.52464 2.93224 7.24497C2.89167 6.14648 2.89071 4.73763 2.92984 3.65571C2.93994 3.37631 2.8908 3.13753 2.78773 2.9651C2.66859 2.76584 2.61051 2.52534 2.62417 2.288C2.63888 2.03211 2.73301 1.79332 2.89628 1.59739C3.20628 1.22544 3.74705 1.14143 4.18195 1.39759C4.30993 1.47305 4.44445 1.50681 4.58185 1.49799C5.6231 1.43127 7.24838 1.39795 8.87779 1.39795C10.5072 1.39795 12.1646 1.43172 13.2233 1.49925C13.3623 1.50816 13.4983 1.47395 13.6278 1.39768C13.8568 1.26271 14.1233 1.22003 14.3782 1.27757C14.6374 1.33601 14.8596 1.49358 15.004 1.72111C15.243 2.09756 15.2497 2.58693 15.0209 2.96771C14.9176 3.13978 14.8683 3.37829 14.8786 3.65751C14.8816 3.73782 14.8843 3.82039 14.8868 3.90278C14.8928 4.10159 14.7256 4.26735 14.5131 4.27293C14.5095 4.27302 14.5057 4.27311 14.5021 4.27311C14.2947 4.27311 14.1237 4.11851 14.1179 3.92313C14.1155 3.84218 14.1127 3.76123 14.1098 3.68236C14.0946 3.27106 14.1778 2.9018 14.3505 2.61439C14.4437 2.45916 14.4406 2.24316 14.3428 2.08919C14.3046 2.02913 14.2546 1.9906 14.198 1.9779C14.1457 1.96611 14.0902 1.97628 14.0373 2.00743C13.7709 2.16437 13.4713 2.23713 13.1708 2.21795C12.1252 2.15123 10.4989 2.11782 8.8777 2.11782C7.25645 2.11782 5.663 2.15069 4.63435 2.21669C4.33531 2.23578 4.03733 2.16347 3.77234 2.00734C3.73426 1.98492 3.60234 1.92109 3.50263 2.04066C3.35503 2.21777 3.36888 2.46286 3.45888 2.6134C3.63051 2.90054 3.71339 3.26944 3.69849 3.6802C3.65993 4.74708 3.6608 6.13667 3.7008 7.22021C3.71599 7.63215 3.63253 8.00185 3.45955 8.28935C3.36609 8.44449 3.36916 8.66058 3.46705 8.81482C3.50513 8.87488 3.55522 8.91333 3.61186 8.92611C3.66416 8.93791 3.71974 8.92773 3.77253 8.89658C4.03666 8.74099 4.33378 8.66851 4.63185 8.68723C4.75156 8.69471 4.82387 8.702 4.88762 8.70839C4.97368 8.71704 5.048 8.72451 5.23983 8.73153C5.45204 8.73937 5.61742 8.90684 5.60906 9.10556C5.60069 9.30428 5.42185 9.45915 5.20964 9.45131C4.99175 9.4433 4.90137 9.43421 4.8055 9.42457C4.74618 9.41863 4.68493 9.41242 4.5806 9.40593C4.44368 9.39738 4.30964 9.43115 4.18205 9.50633C4.01945 9.60213 3.83801 9.65138 3.65532 9.65138L3.65561 9.65129Z" fill="#004438"/>
<path d="M16.3527 11.7917C16.1717 11.7917 15.9869 11.7435 15.8181 11.644C15.6932 11.5704 15.5619 11.5374 15.4282 11.5459C14.3941 11.6113 12.7754 11.6439 11.1481 11.6439C9.4988 11.6439 7.84054 11.6104 6.77083 11.5435C6.6341 11.535 6.49987 11.5688 6.37228 11.6439C6.14314 11.7789 5.8766 11.8216 5.6217 11.764C5.36257 11.7054 5.14026 11.5479 4.99584 11.3202C4.7568 10.9433 4.75036 10.4539 4.97959 10.0731C5.08324 9.90094 5.13257 9.66215 5.12228 9.38258C5.0817 8.28391 5.08074 6.87505 5.11988 5.7934C5.12997 5.51401 5.08084 5.27522 4.97776 5.1028C4.85863 4.90354 4.80055 4.66304 4.81421 4.42569C4.82892 4.1698 4.92305 3.93101 5.08632 3.73509C5.39632 3.36313 5.93709 3.27912 6.37199 3.53529C6.49997 3.61074 6.63449 3.64451 6.77179 3.63568C8.86207 3.50179 13.3039 3.50242 15.4133 3.63694C15.5523 3.64577 15.6884 3.61164 15.8178 3.53538C16.0468 3.4005 16.3134 3.35782 16.5682 3.41526C16.8273 3.4737 17.0495 3.63118 17.194 3.85871C17.4331 4.23535 17.4397 4.72463 17.211 5.10532C17.1075 5.27738 17.0584 5.5159 17.0687 5.79511C17.109 6.88532 17.1091 8.29426 17.0691 9.38438C17.0588 9.66368 17.108 9.90238 17.2113 10.0744C17.3309 10.2738 17.3893 10.5145 17.3759 10.7522C17.3615 11.0083 17.2674 11.2475 17.1041 11.4437C16.9143 11.6716 16.638 11.7915 16.3525 11.7915L16.3527 11.7917ZM15.4683 10.8243C15.7324 10.8243 15.9932 10.8962 16.2277 11.0344C16.2658 11.0568 16.3979 11.1207 16.4976 11.001C16.6454 10.8235 16.6312 10.5781 16.5408 10.4275C16.3684 10.1403 16.2853 9.7711 16.3003 9.3598C16.3398 8.28472 16.3396 6.89531 16.2999 5.82014C16.2847 5.40875 16.3679 5.03941 16.5406 4.75218C16.6339 4.59704 16.6307 4.38103 16.5328 4.22689C16.4947 4.16692 16.4446 4.12838 16.388 4.11569C16.3357 4.10389 16.2802 4.11407 16.2274 4.14522C15.9611 4.30207 15.6614 4.37482 15.3611 4.35573C14.3153 4.28901 12.6888 4.25561 11.0673 4.25561C9.44591 4.25561 7.85304 4.28847 6.82448 4.35438C6.52564 4.37356 6.22747 4.30117 5.96257 4.14504C5.92449 4.12262 5.79257 4.05878 5.69286 4.17835C5.54526 4.35546 5.55911 4.60055 5.64911 4.7511C5.82074 5.03824 5.90353 5.40713 5.88872 5.81789C5.85016 6.8846 5.85103 8.2741 5.89103 9.35791C5.90622 9.76993 5.82276 10.1396 5.64968 10.427C5.55632 10.5822 5.55939 10.7983 5.65718 10.9524C5.69536 11.0126 5.74536 11.0511 5.80199 11.0639C5.8543 11.0757 5.90987 11.0655 5.96266 11.0344C6.22689 10.8787 6.5241 10.8063 6.82208 10.8249C8.92207 10.9562 13.3192 10.9574 15.3764 10.8273C15.407 10.8254 15.4376 10.8244 15.4682 10.8244L15.4683 10.8243Z" fill="#004438"/>
<path d="M18.3041 18.7498H3.007C2.45316 18.7498 1.91239 18.6071 1.44326 18.3371C1.01057 18.0911 0.648843 17.7439 0.396921 17.3329C0.137307 16.9094 0 16.4257 0 15.934C0 15.4423 0.137211 14.9586 0.396921 14.535C0.648651 14.1245 1.01009 13.7774 1.4423 13.5314C1.91172 13.2611 2.45278 13.1182 3.007 13.1182H18.3041C18.7578 13.1182 19.1839 13.2832 19.5038 13.5828C19.8238 13.8824 19.9999 14.2813 19.9999 14.7061C19.9999 15.1309 19.8237 15.5299 19.5038 15.8294C19.4643 15.8664 19.4234 15.9012 19.381 15.9339C19.4235 15.9667 19.4644 16.0015 19.5038 16.0383C19.8238 16.338 19.9999 16.7369 19.9999 17.1617C19.9999 17.5865 19.8237 17.9855 19.5038 18.285C19.1839 18.5846 18.7578 18.7496 18.3041 18.7496V18.7498ZM3.007 13.8386C2.58912 13.8386 2.19816 13.9418 1.84499 14.1453C1.84432 14.1457 1.84364 14.1462 1.84297 14.1465C1.52086 14.3296 1.25153 14.588 1.06403 14.8938C0.87115 15.2084 0.769227 15.5681 0.769227 15.9341C0.769227 16.3001 0.87115 16.6598 1.06403 16.9744C1.25153 17.2802 1.52086 17.5386 1.84297 17.7216C1.84364 17.722 1.84432 17.7224 1.84499 17.7228C2.19816 17.9263 2.58912 18.0296 3.007 18.0296H18.3041C18.5523 18.0296 18.7852 17.9395 18.9598 17.7759C19.1345 17.6123 19.2307 17.3943 19.2307 17.162C19.2307 16.9296 19.1345 16.7115 18.9598 16.548C18.7851 16.3844 18.5523 16.2943 18.3041 16.2943C18.0917 16.2943 17.9195 16.1331 17.9195 15.9342C17.9195 15.7353 18.0917 15.574 18.3041 15.574C18.5523 15.574 18.7852 15.484 18.9598 15.3204C19.1344 15.1568 19.2307 14.9388 19.2307 14.7064C19.2307 14.474 19.1345 14.2559 18.9598 14.0924C18.7851 13.9288 18.5523 13.8388 18.3041 13.8388H3.007V13.8386Z" fill="#004438"/>
<path d="M18.7408 16.2945H3.88071C3.6683 16.2945 3.49609 16.1333 3.49609 15.9344C3.49609 15.7355 3.6683 15.5742 3.88071 15.5742H18.7407C18.9531 15.5742 19.1253 15.7355 19.1253 15.9344C19.1253 16.1333 18.9531 16.2945 18.7407 16.2945H18.7408Z" fill="#004438"/>
<path d="M19.6147 15.0667C19.4317 15.0667 19.2694 14.9438 19.2365 14.769L18.1801 9.16399C18.0649 8.55262 17.5002 8.10899 16.8373 8.10899C16.6248 8.10899 16.4526 7.94773 16.4526 7.74883C16.4526 7.54993 16.6248 7.38867 16.8373 7.38867C17.8741 7.38867 18.7574 8.0827 18.9376 9.03884L19.994 14.6438C20.0309 14.8397 19.8913 15.0265 19.682 15.0611C19.6594 15.0648 19.6369 15.0667 19.6147 15.0667Z" fill="#004438"/>
<path d="M3.00871 8.11908C2.81525 8.11908 2.64871 7.98276 2.62688 7.79853C2.60352 7.60081 2.75563 7.4228 2.96678 7.40092C3.04515 7.39281 3.12486 7.38867 3.20351 7.38867C3.41592 7.38867 3.58813 7.54993 3.58813 7.74883C3.58813 7.94773 3.41592 8.10899 3.20351 8.10899C3.15303 8.10899 3.10188 8.1116 3.05149 8.11692C3.03707 8.11845 3.02284 8.11917 3.00861 8.11917L3.00871 8.11908Z" fill="#004438"/>
<path d="M0.385083 16.2947C0.366141 16.2947 0.34691 16.2933 0.327583 16.2906C0.117488 16.2611 -0.0272227 16.0778 0.00431559 15.881L1.0922 9.08986C1.23546 8.19531 2.00546 7.50093 2.96459 7.40116C3.17574 7.37919 3.36584 7.52163 3.3893 7.71936C3.41276 7.91709 3.26065 8.0951 3.04949 8.11707C2.43652 8.18082 1.9445 8.62481 1.85286 9.19674L0.764985 15.9879C0.736331 16.1665 0.572294 16.2947 0.385083 16.2947Z" fill="#004438"/>
</svg>
