<svg width="43" height="12" viewBox="0 0 43 12" fill="none" xmlns="http://www.w3.org/2000/svg">
<path d="M4.84806 9.95544C4.72604 9.18391 4.84543 8.44302 5.09341 7.80207C2.46667 7.71546 0.265036 6.0418 0 5.83392C0.265036 5.62605 2.46667 3.95106 5.09341 3.86578C4.84543 3.22483 4.72604 2.48394 4.84806 1.71241C4.97401 0.916885 5.31777 0.330571 5.55001 0.000103342C5.67072 0.539778 5.92788 1.27667 6.53405 1.85499C7.64143 2.91168 8.91675 2.4906 10.1868 3.42471C10.7038 3.80448 11.3257 4.48674 11.7206 5.8126C11.7246 5.81527 11.7272 5.83526 11.7272 5.83526C11.7272 5.83526 11.7246 5.85524 11.7206 5.85791C11.3257 7.18245 10.7038 7.86603 10.1868 8.24581C8.91675 9.17991 7.64012 8.75883 6.53405 9.81553C5.92788 10.3938 5.67203 11.1307 5.55001 11.6704C5.31777 11.3399 4.97401 10.7536 4.84806 9.95811V9.95544Z" fill="black"/>
<path d="M37.9099 6.03467L1.5957 6.03467V5.22991L37.9099 5.22991V6.03467Z" fill="black"/>
<path d="M22.8109 3.74188C23.9486 3.74188 24.8708 4.67853 24.8708 5.83395C24.8708 6.98937 23.9486 7.92603 22.8109 7.92603C21.6732 7.92603 20.751 6.98937 20.751 5.83395C20.751 4.67853 21.6732 3.74188 22.8109 3.74188Z" fill="black"/>
<path d="M13.6589 4.60951C13.2298 4.48691 12.4728 4.20175 11.7839 3.52216C10.5152 2.26825 10.4509 0.633234 10.4443 0.258793C10.7094 0.314759 12.2445 0.665215 13.1222 2.16298C13.7324 3.20369 13.6917 4.2284 13.6576 4.61084L13.6589 4.60951Z" fill="black"/>
<path d="M10.4606 11.4093C10.8897 11.2867 11.6467 11.0016 12.3355 10.322C13.6043 9.06805 13.6686 7.43304 13.6752 7.0586C13.4101 7.11456 11.875 7.46502 10.9972 8.96278C10.3871 10.0035 10.4278 11.0282 10.4619 11.4106L10.4606 11.4093Z" fill="black"/>
<path d="M33.7305 1.48181L35.8731 5.83386L33.7305 10.1846L42.3008 5.83386L33.7305 1.48181Z" fill="black"/>
</svg>
