<svg width="102" height="81" viewBox="0 0 102 81" fill="none" xmlns="http://www.w3.org/2000/svg">
<path fill-rule="evenodd" clip-rule="evenodd" d="M7.20593 23.52H2.97363V27.7523H7.20593V23.52ZM7.20593 12.7547H2.97363V16.987H7.20593V12.7547ZM39.5016 23.52H35.2693V27.7523H39.5016V23.52ZM39.5016 12.7547H35.2693V16.987H39.5016V12.7547ZM28.7359 12.7547H13.7382V27.7523H28.7359V12.7547ZM24.5149 38.5454H28.7471V34.3131H24.5149V38.5454ZM13.7493 38.5176H17.9816V34.2853H13.7493V38.5176ZM24.5149 6.26008H28.7471V2.02779H24.5149V6.26008ZM13.7493 6.23229H17.9816V2H13.7493V6.23229ZM66.7305 23.52H62.4982V27.7523H66.7305V23.52ZM66.7305 12.7547H62.4982V16.987H66.7305V12.7547ZM99.0262 23.52H94.7939V27.7523H99.0262V23.52ZM99.0262 12.7547H94.7939V16.987H99.0262V12.7547ZM88.2613 12.7547H73.2637V27.7523H88.2613V12.7547ZM84.0395 38.5454H88.2717V34.3131H84.0395V38.5454ZM73.2739 38.5176H77.5062V34.2853H73.2739V38.5176ZM84.0395 6.26008H88.2717V2.02779H84.0395V6.26008ZM73.2739 6.23229H77.5062V2H73.2739V6.23229ZM37.6001 63.9746H33.3678V68.2069H37.6001V63.9746ZM37.6001 53.2093H33.3678V57.4416H37.6001V53.2093ZM69.8958 63.9746H65.6635V68.2069H69.8958V63.9746ZM69.8958 53.2093H65.6635V57.4416H69.8958V53.2093ZM59.13 53.2093H44.1324V68.2069H59.13V53.2093ZM54.909 79H59.1413V74.7677H54.909V79ZM44.1435 78.9722H48.3758V74.74H44.1435V78.9722ZM54.909 46.7147H59.1413V42.4824H54.909V46.7147ZM44.1435 46.6869H48.3758V42.4546H44.1435V46.6869ZM19.9816 8.23229V0H11.7493V8.23229H19.9816ZM22.5149 8.26008V0.0277853H30.7471V8.26008H22.5149ZM9.20593 10.7547V18.987H0.973633V10.7547H9.20593ZM9.20593 21.52V29.7523H0.973633V21.52H9.20593ZM33.2693 21.52V29.7523H41.5016V21.52H33.2693ZM41.5016 10.7547V18.987H33.2693V10.7547H41.5016ZM11.7382 10.7547V29.7523H30.7359V10.7547H11.7382ZM22.5149 40.5454V32.3131H30.7471V40.5454H22.5149ZM19.9816 40.5176V32.2853H11.7493V40.5176H19.9816ZM68.7305 21.52V29.7523H60.4982V21.52H68.7305ZM60.4982 10.7547V18.987H68.7305V10.7547H60.4982ZM101.026 21.52V29.7523H92.7939V21.52H101.026ZM92.7939 10.7547V18.987H101.026V10.7547H92.7939ZM90.2613 10.7547V29.7523H71.2637V10.7547H90.2613ZM90.2717 40.5454V32.3131H82.0395V40.5454H90.2717ZM71.2739 40.5176V32.2853H79.5062V40.5176H71.2739ZM90.2717 8.26008V0.0277853H82.0395V8.26008H90.2717ZM71.2739 8.23229V0H79.5062V8.23229H71.2739ZM31.3678 61.9746V70.2069H39.6001V61.9746H31.3678ZM39.6001 51.2093V59.4416H31.3678V51.2093H39.6001ZM63.6635 61.9746V70.2069H71.8958V61.9746H63.6635ZM71.8958 51.2093V59.4416H63.6635V51.2093H71.8958ZM42.1324 51.2093V70.2069H61.13V51.2093H42.1324ZM52.909 81V72.7677H61.1413V81H52.909ZM50.3758 80.9722V72.74H42.1435V80.9722H50.3758ZM52.909 48.7147V40.4824H61.1413V48.7147H52.909ZM50.3758 48.6869V40.4546H42.1435V48.6869H50.3758Z" fill="black"/>
</svg>
