<svg width="24" height="24" viewBox="0 0 24 24" fill="none" xmlns="http://www.w3.org/2000/svg">
<path d="M21.2707 10.7673V4.09413C21.2707 2.73719 20.1668 1.63324 18.8099 1.63324H5.19005C3.83311 1.63324 2.72925 2.73719 2.72925 4.09413V10.7673C1.16569 11.1434 0 12.5528 0 14.2301V19.2074C0 19.6023 0.320109 19.9224 0.714984 19.9224H2.7292V21.6517C2.7292 22.0466 3.04931 22.3667 3.44419 22.3667C3.83906 22.3667 4.15917 22.0466 4.15917 21.6517V19.9224H19.8407V21.6517C19.8407 22.0466 20.1608 22.3667 20.5557 22.3667C20.9506 22.3667 21.2707 22.0466 21.2707 21.6517V19.9224H23.2849C23.6798 19.9224 23.9999 19.6023 23.9999 19.2074V14.2301C24 12.5528 22.8343 11.1434 21.2707 10.7673ZM4.15922 4.09413C4.15922 3.52572 4.62169 3.06326 5.19005 3.06326H18.8099C19.3783 3.06326 19.8408 3.52572 19.8408 4.09413V10.668H17.478V9.53997C17.478 7.67107 15.9576 6.15063 14.0887 6.15063H9.91139C8.04248 6.15063 6.52205 7.67111 6.52205 9.53997V10.6679H4.15922V4.09413ZM16.0481 9.53997V10.6679H7.95192V9.53997C7.95192 8.45955 8.83087 7.5806 9.9113 7.5806H14.0887C15.169 7.58055 16.0481 8.4596 16.0481 9.53997ZM1.42997 18.4924V14.2301C1.42997 13.0544 2.38645 12.0979 3.56212 12.0979H20.4378C21.6135 12.0979 22.5699 13.0544 22.5699 14.2301V18.4924H1.42997Z" fill="#000000"/>
</svg>
