<svg width="86" height="77" viewBox="0 0 86 77" fill="none" xmlns="http://www.w3.org/2000/svg">
<path fill-rule="evenodd" clip-rule="evenodd" d="M37 2H2V11H37V2ZM15 20H6V29H15V20ZM34 20H25V29H34V20ZM84 2H49V11H84V2ZM62 20H53V29H62V20ZM81 20H72V29H81V20ZM37 47H2V56H37V47ZM15 65H6V74H15V65ZM34 65H25V74H34V65ZM84 47H49V56H84V47ZM62 65H53V74H62V65ZM81 65H72V74H81V65ZM0 0V13H39V0H0ZM4 18V31H17V18H4ZM36 18V31H23V18H36ZM47 0V13H86V0H47ZM64 18V31H51V18H64ZM70 18V31H83V18H70ZM39 45V58H0V45H39ZM4 63V76H17V63H4ZM36 63V76H23V63H36ZM47 45V58H86V45H47ZM64 63V76H51V63H64ZM70 63V76H83V63H70Z" fill="black"/>
</svg>
