<svg width="30" height="30" viewBox="0 0 30 30" fill="none" xmlns="http://www.w3.org/2000/svg">
<path fill-rule="evenodd" clip-rule="evenodd" d="M27.7071 2.29289C28.0976 2.68341 28.0976 3.31658 27.7071 3.7071L3.70734 27.7071C3.31682 28.0976 2.68365 28.0976 2.29313 27.7071C1.9026 27.3166 1.9026 26.6834 2.29312 26.2929L26.2929 2.2929C26.6834 1.90237 27.3166 1.90237 27.7071 2.29289Z" fill="black"/>
<path fill-rule="evenodd" clip-rule="evenodd" d="M2.29314 2.29289C1.90262 2.68341 1.90261 3.31658 2.29314 3.7071L26.2929 27.7071C26.6834 28.0976 27.3166 28.0976 27.7071 27.7071C28.0976 27.3166 28.0976 26.6834 27.7071 26.2929L3.70736 2.2929C3.31684 1.90237 2.68367 1.90237 2.29314 2.29289Z" fill="black"/>
</svg>
