<svg width="89" height="79" viewBox="0 0 89 79" fill="none" xmlns="http://www.w3.org/2000/svg">
<path fill-rule="evenodd" clip-rule="evenodd" d="M11.5 21H2.5V30H11.5V21ZM36.5 2H27.5V11H36.5V2ZM63.5 22H54.5V31H63.5V22ZM86.5 2H77.5V11H86.5V2ZM11.5 56H2.5V65H11.5V56ZM36.5 40H27.5V49H36.5V40ZM63 56H54V65H63V56ZM86.5 40H77.5V49H86.5V40ZM25.5 0V13H38.5V0H25.5ZM0.5 19V32H13.5V19H0.5ZM65.5 20V33H52.5V20H65.5ZM75.5 0V13H88.5V0H75.5ZM13.5 54V67H0.5V54H13.5ZM25.5 38V51H38.5V38H25.5ZM65 54V67H52V54H65ZM75.5 38V51H88.5V38H75.5Z" fill="black"/>
</svg>
