<svg width="101" height="77" viewBox="0 0 101 77" fill="none" xmlns="http://www.w3.org/2000/svg">
<path fill-rule="evenodd" clip-rule="evenodd" d="M20 66V75H29V66H20ZM20 21V56H80V21H20ZM20 2V11H29V2H20ZM37 66V75H46V66H37ZM37 2V11H46V2H37ZM54 66V75H63V66H54ZM54 2V11H63V2H54ZM71 66V75H80V66H71ZM71 2V11H80V2H71ZM2 43V52H11V43H2ZM2 24V33H11V24H2ZM90 43V52H99V43H90ZM90 24V33H99V24H90ZM18 13H31V0H18V13ZM18 19H82V58H18V19ZM18 64H31V77H18V64ZM35 64H48V77H35V64ZM35 13H48V0H35V13ZM52 64H65V77H52V64ZM52 13H65V0H52V13ZM69 64H82V77H69V64ZM69 13H82V0H69V13ZM0 41H13V54H0V41ZM0 35H13V22H0V35ZM88 41H101V54H88V41ZM88 35H101V22H88V35Z" fill="black"/>
</svg>
