<svg width="18" height="18" viewBox="0 0 18 18" fill="none" xmlns="http://www.w3.org/2000/svg">
<g clip-path="url(#clip0_2426_204)">
<path d="M9.0431 6.67004C8.70269 6.65876 8.4375 6.36787 8.4375 6.02714V4.56235C8.4375 4.22163 8.70237 3.93074 9.0431 3.91945C9.38383 3.90817 9.69133 4.19279 9.69133 4.54605V6.04344C9.69133 6.39671 9.39888 6.68196 9.0431 6.67004Z" fill="#000000"/>
<path d="M10.7522 6.81082C11.0293 6.49172 10.9424 6.072 10.5635 5.84349C10.1845 5.61498 9.68703 5.41656 9.06481 5.41656C8.50247 5.41656 7.98621 5.57549 7.57181 5.87609C7.14238 6.18767 6.86967 6.6215 6.80322 7.09795C6.73394 7.59635 6.90039 8.096 7.27152 8.50475C7.63545 8.90504 8.18118 9.21066 8.89335 9.41252C9.7889 9.66674 10.3315 10.093 10.2751 10.4983C10.2265 10.8466 9.75003 11.2227 9.0645 11.2227C8.22694 11.2227 7.51288 10.614 7.50818 10.6096C7.24833 10.3808 6.85211 10.4059 6.62329 10.6654C6.39447 10.9253 6.41954 11.3215 6.67909 11.5503C6.72203 11.5882 7.74516 12.4763 9.0645 12.4763C10.3838 12.4763 11.3737 11.7001 11.5167 10.6707C11.59 10.1423 11.4095 9.61345 11.0083 9.18119C10.613 8.75583 10.0168 8.42764 9.23565 8.20603C8.60309 8.02673 7.98965 7.66782 8.04482 7.27035C8.08589 6.97539 8.47833 6.67008 9.0645 6.67008C9.0645 6.67008 9.75191 6.72118 10.0296 6.92806C10.3907 7.19669 10.7518 6.81051 10.7518 6.81051L10.7522 6.81082Z" fill="#000000"/>
<path d="M9.0431 14.0805C8.70269 14.0692 8.4375 13.7783 8.4375 13.4376V11.8659C8.4375 11.5252 8.70237 11.2343 9.0431 11.223C9.38383 11.2118 9.69133 11.4964 9.69133 11.8496V13.4539C9.69133 13.8072 9.39888 14.0924 9.0431 14.0805Z" fill="#000000"/>
<path d="M9 18C6.59609 18 4.33606 17.0637 2.63618 15.3638C0.936298 13.6643 0 11.4039 0 9C0 6.59609 0.936298 4.33606 2.63618 2.63618C4.33606 0.936298 6.59609 0 9 0C11.4039 0 13.6643 0.936298 15.3638 2.63618C17.0637 4.33606 18 6.59609 18 9C18 11.4039 17.0637 13.6639 15.3638 15.3638C13.6639 17.0637 11.4039 18 9 18ZM10.3203 1.36229C7.32833 0.870786 4.43386 2.06945 2.66596 4.53291C1.99547 5.46702 1.5488 6.54531 1.3626 7.68003C0.871099 10.672 2.06976 13.5661 4.53291 15.334C5.46702 16.0045 6.54531 16.4512 7.68003 16.6377C10.672 17.1292 13.5665 15.9306 15.3344 13.4671C16.0048 12.533 16.4515 11.4547 16.6377 10.32C17.1292 7.32802 15.9306 4.43386 13.4674 2.66596C12.5333 1.99547 11.455 1.54879 10.3203 1.36229Z" fill="#000000"/>
</g>
<defs>
<clipPath id="clip0_2426_204">
<rect width="18" height="18" fill="white"/>
</clipPath>
</defs>
</svg>
