<svg width="24" height="24" viewBox="0 0 24 24" fill="none" xmlns="http://www.w3.org/2000/svg">
<path d="M23.7747 4.35821L19.6418 0.225311C19.3392 -0.0751035 18.851 -0.0751035 18.5484 0.225311L0.225311 18.5484C-0.0751035 18.851 -0.0751035 19.3392 0.225311 19.6418L4.35601 23.7725C4.50621 23.9227 4.70502 23.9978 4.90161 23.9978C5.09821 23.9978 5.29701 23.9227 5.44942 23.7725L23.7747 5.45163C23.9205 5.30584 24.0022 5.11146 24.0022 4.90382C24.0022 4.69618 23.9227 4.504 23.7747 4.35821ZM4.65642 18.4202C4.80221 18.2745 4.88173 18.0801 4.88394 17.8746C4.88394 17.667 4.80442 17.4748 4.65642 17.329L4.22347 16.8961C4.1815 16.8541 4.17929 16.7834 4.22347 16.7393L4.94137 16.0214C4.97009 15.9926 5.00322 15.9882 5.01868 15.9882C5.03415 15.9882 5.06949 15.9926 5.096 16.0214L6.15407 17.0794C6.44565 17.371 6.95591 17.371 7.24749 17.0794C7.39328 16.9336 7.4728 16.7393 7.4728 16.5338C7.4728 16.3284 7.39328 16.134 7.24749 15.9882L6.18942 14.9301C6.1607 14.9014 6.15628 14.8683 6.15628 14.8528C6.15628 14.8374 6.1607 14.802 6.18942 14.7755L6.90732 14.0576C6.9515 14.0156 7.01997 14.0156 7.06415 14.0576L7.4971 14.4906C7.79751 14.791 8.2879 14.791 8.59052 14.4906C8.89093 14.1879 8.89093 13.6998 8.59052 13.3971L8.15757 12.9642C8.12885 12.9355 8.12444 12.9023 8.12444 12.8869C8.12444 12.8714 8.12885 12.8361 8.15757 12.8096L8.87547 12.0917C8.90419 12.063 8.93732 12.0585 8.95278 12.0585C8.96825 12.0585 9.00359 12.063 9.0301 12.0917L9.46305 12.5246C9.75462 12.8162 10.2649 12.8162 10.5565 12.5246C10.8569 12.2242 10.8569 11.7338 10.5565 11.4312L10.1235 10.9983C10.0948 10.9695 10.0904 10.9364 10.0904 10.9209C10.0904 10.9055 10.0948 10.8701 10.1235 10.8436L10.8414 10.1257C10.8856 10.0838 10.9541 10.0838 10.9983 10.1257L12.0563 11.1838C12.3567 11.4842 12.8471 11.4864 13.1497 11.1838C13.2955 11.038 13.3773 10.8436 13.3773 10.636C13.3773 10.4283 13.2977 10.2362 13.1497 10.0904L12.0917 9.03231C12.063 9.00359 12.0585 8.97046 12.0585 8.95499C12.0585 8.93953 12.063 8.90419 12.0917 8.87768L12.8096 8.15978C12.8538 8.11781 12.9222 8.11781 12.9664 8.15978L13.3994 8.59273C13.702 8.89314 14.1902 8.89314 14.4928 8.59273C14.6386 8.44694 14.7203 8.25255 14.7203 8.04712C14.7203 7.84169 14.6408 7.64731 14.4928 7.50152L14.0598 7.06857C14.0179 7.0266 14.0179 6.95591 14.0598 6.91174L14.7777 6.19383C14.8219 6.14965 14.8904 6.15186 14.9346 6.19383L15.3675 6.62678C15.6701 6.9272 16.1583 6.9272 16.4609 6.62678C16.6067 6.48099 16.6884 6.28661 16.6884 6.07897C16.6884 5.87133 16.6089 5.67915 16.4609 5.53336L16.028 5.10041C15.9993 5.0717 15.9948 5.03856 15.9948 5.0231C15.9948 5.00764 15.9993 4.9723 16.028 4.94579L16.7459 4.22789C16.7746 4.19917 16.8077 4.19475 16.8232 4.19475C16.8387 4.19475 16.8718 4.19917 16.9005 4.22789L17.9586 5.28596C18.2612 5.58859 18.7494 5.58638 19.052 5.28596C19.1978 5.14017 19.2795 4.94579 19.2795 4.73815C19.2795 4.53051 19.2 4.33833 19.052 4.19254L17.9939 3.13447C17.9652 3.10575 17.9608 3.07262 17.9608 3.05716C17.9608 3.04169 17.9652 3.00635 17.9939 2.97984L19.0233 1.95048C19.0675 1.9063 19.1359 1.90851 19.1801 1.95048L22.0628 4.83313C22.0915 4.86185 22.0959 4.89498 22.0959 4.91045C22.0959 4.92591 22.0915 4.96125 22.0628 4.98776L4.98113 22.0561C4.95242 22.0849 4.91928 22.0893 4.90382 22.0893C4.88836 22.0893 4.85301 22.0849 4.82651 22.0561L1.94386 19.1735C1.90189 19.1315 1.90189 19.0608 1.94386 19.0167L2.97322 17.9873C3.00193 17.9586 3.03507 17.9542 3.05053 17.9542C3.06599 17.9542 3.10133 17.9586 3.12784 17.9873L3.56079 18.4202C3.86121 18.7207 4.35159 18.7207 4.65421 18.4202H4.65642Z" fill="black"/>
</svg>
