<svg width="22" height="20" viewBox="0 0 22 20" fill="none" xmlns="http://www.w3.org/2000/svg">
<path d="M12.9051 17.061C13.134 15.7388 12.91 14.4691 12.4448 13.3706C17.3726 13.2222 21.5028 10.354 22 9.99772C21.5028 9.64147 17.3726 6.77095 12.4448 6.6248C12.91 5.52637 13.134 4.25668 12.9051 2.93446C12.6688 1.57113 12.0239 0.566339 11.5883 0C11.3618 0.924869 10.8794 2.18771 9.74222 3.17881C7.6648 4.98972 5.27232 4.2681 2.88968 5.86892C1.91989 6.51975 0.753188 7.68897 0.0123062 9.96118C0.00492201 9.96575 0 10 0 10C0 10 0.00492201 10.0343 0.0123062 10.0388C0.753188 12.3087 1.91989 13.4802 2.88968 14.1311C5.27232 15.7319 7.66726 15.0103 9.74222 16.8212C10.8794 17.8123 11.3594 19.0751 11.5883 20C12.0239 19.4337 12.6688 18.4289 12.9051 17.0655V17.061Z" fill="#000000"/>
</svg>
