<svg width="501" height="562" viewBox="0 0 501 562" fill="none" xmlns="http://www.w3.org/2000/svg">
<path opacity="1" d="M441.939 0.265648C410.804 1.79449 350.363 8.56042 277.912 40.1294C265.788 37.2669 253.142 34.6158 240.447 32.3225C194.398 24.0115 88.1696 22.1899 34.2394 80.1557C-19.7071 138.138 7.10293 187.012 62.9913 210.14C66.3854 211.538 70.0242 212.807 73.8752 213.946C66.1406 230.242 61.0821 246.507 58.7813 262.429C49.3007 328.153 83.4374 377.336 144.107 373.124C204.776 368.912 276.542 310.198 315.329 270.838C354.116 231.478 376.145 223.46 376.145 223.46C318.511 280.092 278.206 335.993 252.848 375.401C202.28 392.576 165.091 395.894 122.372 407.246C106.707 411.41 91.4984 417.412 77.1551 424.958C74.3811 426.422 71.6234 427.935 68.8983 429.496C66.2222 431.041 63.5624 432.619 60.9515 434.261C45.6128 443.841 31.2043 455.324 20.0266 469.62C11.1334 480.989 3.08876 496.732 0.690054 511.061C-2.72036 531.392 6.46654 552.324 29.2298 558.813C60.152 567.628 97.0301 556.748 126.255 543.346C152.233 531.44 172.908 519.698 200.273 498.652C227.376 477.817 277.113 430.39 307.905 367.675C372.67 336.481 410.233 287.834 410.233 287.834C410.233 287.834 410.478 286.696 408.52 284.142C406.562 281.589 404.294 281.816 404.294 281.816C363.809 324.819 341.03 340.888 314.872 352.403C315.313 351.346 315.77 350.322 316.21 349.264C345.566 277.441 373.747 240.944 399.659 216.922C425.572 192.9 453.818 180.718 455.335 180.067C456.853 179.4 457.212 178.587 456.722 177.156C456.233 175.725 454.732 175.871 454.732 175.871C405.632 181.515 349.172 224.127 310.156 263.747C271.157 303.35 243.09 321.111 210.226 342.254C177.362 363.398 75.8823 394.853 87.5984 303.041C91.172 274.985 105.271 247.548 125.309 221.443C178.749 223.672 244.02 213.572 288.421 198.608C352.941 176.863 477.185 106.976 495.738 56.4099C514.275 5.81177 480.856 -1.65354 441.939 0.265648ZM230.705 411.394C211.564 442.947 189.764 473.409 162.774 498.814C156.41 504.799 149.736 510.443 142.752 515.697C123.579 530.123 102.121 542.045 78.6237 547.575C57.4595 552.551 20.7119 555.024 12.6836 528.497C10.905 522.609 11.4924 516.217 13.2874 510.329C19.3249 490.471 34.2394 472.922 50.0513 459.959C63.3829 449.029 78.6074 440.572 94.3703 433.66C151.662 408.499 183.726 407.799 243.074 390.868C240.006 395.845 237.249 400.448 234.785 404.595C233.447 406.872 232.076 409.133 230.705 411.394ZM38.7431 185.467C-4.97221 147.051 27.4185 104.064 52.3031 82.3677C79.9291 58.264 145.396 28.289 227.605 41.2191C239.925 43.1545 251.282 45.2851 261.791 47.4971C248.687 53.7426 235.242 60.8013 221.567 68.8033C152.739 109.025 104.259 156.744 78.591 204.61C62.1101 200.267 48.4032 193.924 38.7594 185.451M468.683 76.5613C440.715 104.373 383.276 148.449 293.316 183.629C243.417 203.146 183.645 213.084 133.043 211.685C179.125 156.354 250.009 107.594 300.561 72.5766C306.028 68.787 311.462 65.1926 316.863 61.7771C337.44 68.1527 351.75 73.7476 361.28 76.3499C380.992 81.7334 374.742 76.1059 353.349 64.8511C347.018 61.5169 338.549 58.0363 328.612 54.572C394.225 15.6516 451.174 4.12028 475.178 10.2519C502.543 17.2293 496.652 48.7332 468.7 76.5613" fill="#000000"/>
</svg>
