<svg width="24" height="20" viewBox="0 0 24 20" fill="none" xmlns="http://www.w3.org/2000/svg">
<path d="M23.2969 7.06866H20.6611V4.43268C20.6611 4.04431 20.3461 3.72955 19.9579 3.72955H17.322V1.09375C17.322 0.705383 17.0072 0.390625 16.6188 0.390625H0.703125C0.314758 0.390625 0 0.705383 0 1.09375V12.2236C0 12.612 0.314758 12.9268 0.703125 12.9268H3.33893V15.5626C3.33893 15.9509 3.65369 16.2657 4.04205 16.2657H6.67804V18.9017C6.67804 19.2899 6.9928 19.6048 7.38116 19.6048H23.2969C23.6852 19.6048 24 19.2899 24 18.9017V7.77179C24 7.38342 23.6852 7.06866 23.2969 7.06866ZM1.40625 1.79688H15.9157V11.5205H1.40625V1.79688ZM4.74518 12.9268H16.6188C17.0072 12.9268 17.322 12.612 17.322 12.2236V5.1358H19.2548V14.8596H4.74518V12.9268ZM22.5938 18.1985H8.08429V16.2659H19.9579C20.3463 16.2659 20.6611 15.9509 20.6611 15.5627V8.47491H22.5938V18.1985Z" fill="#000000"/>
</svg>
