<svg width="223" height="148" viewBox="0 0 223 148" fill="none" xmlns="http://www.w3.org/2000/svg">
<g id="Layer_1" clip-path="url(#clip0_7_1329)">
<path id="Vector" d="M49.5303 83.2898L49.1103 116.27L50.7803 83.4598L49.5303 83.2898ZM47.1803 82.2698L46.4403 127.44L48.4403 82.4398L47.1803 82.2698ZM50.0803 138.81C48.9203 138.81 45.1403 138.69 45.1403 137.11C45.1403 133.93 45.5803 88.7298 46.1503 80.2698C46.1503 80.1698 46.2003 80.0898 46.2503 80.0198H45.0303V78.4799L48.4303 78.0898L49.2703 79.5998L51.3403 79.7498L50.0803 138.83V138.81Z" fill="black"/>
<path id="Vector_2" d="M172.43 138.56C173.59 138.56 177.37 138.44 177.37 136.86C177.37 133.68 176.93 88.4797 176.36 80.0197C176.36 79.9197 176.32 79.8397 176.27 79.7697H177.71V78.2197H173.98L173.39 78.5897L173.01 79.5997L171.46 79.8497L172.44 138.57L172.43 138.56Z" fill="black"/>
<path id="Vector_3" d="M160.37 78.9697H150.05V80.5197H151.26C151.22 80.5897 151.17 80.6697 151.17 80.7697C150.6 89.2297 150.16 134.44 150.16 137.61C150.16 139.19 153.93 139.31 155.09 139.31C156.25 139.31 160.02 139.19 160.02 137.61C160.02 134.43 159.58 89.2297 159.01 80.7697C159.01 80.6697 158.97 80.5897 158.92 80.5197H160.36V78.9697H160.37Z" fill="black"/>
<path id="Vector_4" d="M73.2001 78.9697H62.8701V80.5197H64.0901C64.0401 80.5897 64.0001 80.6697 63.9901 80.7697C63.4301 89.2297 62.9801 134.44 62.9801 137.61C62.9801 139.19 66.7601 139.31 67.9201 139.31C69.0801 139.31 72.8601 139.19 72.8601 137.61C72.8601 134.43 72.4101 89.2297 71.8501 80.7697C71.8501 80.6697 71.8101 80.5897 71.7601 80.5197H73.2001V78.9697Z" fill="black"/>
<path id="Vector_5" d="M111.83 20.2305L111.56 20.6305L111.21 20.4205L111.54 18.7105L111.89 19.0005L111.82 20.2305H111.83ZM115.86 9.21047C115.78 8.96047 115.69 8.04047 115.69 7.70047C115.69 7.36047 115.27 6.86047 115.19 6.61047C115.11 6.36047 114.69 5.61047 114.69 5.27047C114.69 4.93047 114.11 4.43047 113.94 4.18047C113.77 3.92047 113.35 3.92047 113.35 3.92047L113.02 3.59047L113.35 2.75047C113.35 2.75047 113.52 2.33047 113.68 2.08047C113.85 1.83047 113.6 1.41047 113.6 1.41047L113.18 0.910469C113.18 0.910469 112.93 0.410469 112.59 0.160469C112.26 -0.0895313 111.5 0.490469 111.5 0.490469L111.08 1.41047L110.99 2.00047C110.99 2.00047 111.33 3.09047 111.24 3.34047C111.16 3.59047 110.65 3.67047 110.65 3.67047C110.23 3.25047 109.39 3.25047 109.39 3.25047C109.39 3.25047 108.47 3.08047 108.13 2.91047L108.38 1.99047L109.64 2.07047C109.64 2.07047 110.15 1.65047 110.31 1.40047C110.48 1.15047 110.64 0.230469 110.64 0.230469L109.97 -0.0195312L108.97 0.0604687C107.63 0.810469 106.79 2.99047 106.79 3.49047C107.12 3.66047 108.88 4.75047 109.47 4.75047C109.39 5.34047 109.97 7.10047 109.97 7.10047L109.3 7.68047L110.05 8.43047L108.29 9.44047L108.37 11.1105L109.04 12.5405C109.04 12.5405 108.87 13.8805 108.87 14.4705C108.87 15.0605 109.37 16.4805 109.37 16.4805L110.13 17.7405L109.54 20.6705L108.03 22.0105V23.1805L115.23 22.9305L115.06 22.0105L113.72 21.5105L113.13 20.8405C113.13 20.8405 113.3 19.2505 113.38 18.6605C113.46 18.0805 114.13 16.1505 114.3 15.8105C114.47 15.4705 114.97 14.8905 114.97 14.8905C114.97 14.8905 114.38 12.8805 114.47 12.6305C114.55 12.3805 114.55 11.0405 114.55 10.3705C114.55 9.70047 113.88 8.36047 113.88 8.36047L114.05 7.78047L113.8 6.78047L114.39 7.61047C114.39 7.61047 114.64 8.87047 114.72 9.12047C114.8 9.38047 115.22 10.5505 115.22 10.5505C115.22 10.5505 115.97 10.3805 116.14 10.1305C116.31 9.88047 115.89 9.46047 115.8 9.21047" fill="black"/>
<path id="Vector_6" d="M179.94 74.86C180.2 74.74 180.33 73.6 180.33 73.48C180.33 71.54 149.51 69.75 111.49 69.75C73.4704 69.75 42.6504 71.54 42.6504 73.48C42.6504 73.61 42.7904 74.74 43.0504 74.86C46.7304 73.1 75.9604 71.25 111.49 71.25C147.02 71.25 176.25 73.09 179.93 74.86" fill="black"/>
<path id="Vector_7" d="M111.75 22.7297C77.7902 22.7297 50.3502 46.6297 45.6602 73.5797L48.1902 72.7197C53.3002 46.1697 79.0202 23.9997 111.75 23.9997C144.48 23.9997 171.8 46.5097 176.81 73.2197L179.15 73.7797C174.6 46.6397 145.89 22.7197 111.74 22.7197" fill="black"/>
<path id="Vector_8" d="M174.8 72.9702C174.55 67.7002 165.51 37.0502 129.58 26.2402C135.86 28.2502 164.25 38.3002 173.3 72.4702L174.81 72.9702H174.8Z" fill="black"/>
<path id="Vector_9" d="M169.53 72.2195C168.52 66.6895 160.74 44.0795 138.38 31.7695C148.18 38.2995 160.74 48.6095 168.02 72.2195H169.53Z" fill="black"/>
<path id="Vector_10" d="M162.49 71.9698C161.74 68.7098 156.71 48.3598 140.63 36.5498C148.92 44.0898 157.21 55.3898 160.73 71.9698H162.49Z" fill="black"/>
<path id="Vector_11" d="M155.21 70.4603C154.71 66.6903 151.69 54.3803 140.14 40.5703C146.92 49.1103 152.2 61.9303 153.71 70.7203L155.22 70.4703L155.21 70.4603Z" fill="black"/>
<path id="Vector_12" d="M148.68 70.9698C148.18 67.1998 145.92 55.3998 138.13 43.5898C143.66 54.6498 145.67 62.4298 147.17 71.2298L148.68 70.9798V70.9698Z" fill="black"/>
<path id="Vector_13" d="M141.39 70.7098C140.89 66.9398 139.63 57.8998 133.6 46.3398C137.62 57.3898 138.37 62.1598 139.88 70.9598L141.39 70.7098Z" fill="black"/>
<path id="Vector_14" d="M126.96 49.8604C129.3 60.3504 129.89 66.3004 130.57 70.7104H132.14C131.62 66.9303 130.72 61.1404 126.96 49.8604Z" fill="black"/>
<path id="Vector_15" d="M96.2803 58.9199C95.0203 63.5199 94.1503 67.1999 93.5303 70.2099H95.1703C95.3803 67.1299 95.7103 63.4499 96.2703 58.9199" fill="black"/>
<path id="Vector_16" d="M87.4799 62.9404C86.5599 66.0304 85.8598 68.6604 85.3398 70.9704H86.6298C86.8298 68.6204 87.0999 65.9804 87.4799 62.9404Z" fill="black"/>
<path id="Vector_17" d="M78.5901 65.4397C78.0701 67.1697 77.5801 68.8897 77.1201 70.5597L77.9901 70.5397C78.1701 68.9397 78.3601 67.2497 78.5901 65.4297" fill="black"/>
<path id="Vector_18" d="M119.78 52.1201C120.73 61.3801 120.34 65.4801 120.72 70.7801L122.69 70.8901C122.21 67.1701 121.65 61.9301 119.78 52.1201Z" fill="black"/>
<path id="Vector_19" d="M104.98 56.5195C104.37 62.4295 103.72 66.8195 103.22 70.2095H105.07C104.98 66.6795 104.88 62.6995 104.98 56.5195Z" fill="black"/>
<path id="Vector_20" d="M59.7397 58.4102C57.2297 62.6802 55.2097 68.8402 54.7197 72.2302L56.7297 71.9802C56.6397 68.4402 57.7297 63.6902 59.7397 58.4202" fill="black"/>
<path id="Vector_21" d="M112.57 54.7598C112.32 62.3998 112.08 66.3798 112.01 70.4598H113.87C113.69 66.9398 113.4 62.1298 112.57 54.7598Z" fill="black"/>
<path id="Vector_22" d="M151.69 59.6602C149.68 59.1602 146.41 59.1602 145.16 59.1602C146.92 59.4102 152.2 61.1702 152.2 61.1702L151.69 59.6602Z" fill="black"/>
<path id="Vector_23" d="M164.25 60.1602C162.24 59.6602 158.98 59.6602 157.72 59.6602C159.48 59.9102 164.76 61.6702 164.76 61.6702L164.25 60.1602Z" fill="black"/>
<path id="Vector_24" d="M170.28 61.9199C171.4 62.0799 173.93 62.8499 175.64 63.3899L175.15 62.1399C173.32 61.9299 171.22 61.9299 170.28 61.9299" fill="black"/>
<path id="Vector_25" d="M162.74 48.9805C163.86 49.1405 166.69 50.3305 168.39 50.8605L167.64 49.4805C165.76 49.1005 163.69 48.9805 162.74 48.9805Z" fill="black"/>
<path id="Vector_26" d="M138.13 58.9004C137.12 58.9004 132.6 58.9004 130.84 59.1604C131.34 59.4104 137.12 59.6604 138.38 60.1604L138.13 58.9004Z" fill="black"/>
<path id="Vector_27" d="M155.08 46.4698C154.08 46.2198 150.68 45.5898 149.43 45.5898L155.96 47.5998L155.08 46.4698Z" fill="black"/>
<path id="Vector_28" d="M144.53 46.5996C143.78 46.3496 140.89 46.3496 139.63 46.3496C139.88 46.3496 144.15 47.3496 145.16 47.5996L144.53 46.5996Z" fill="black"/>
<path id="Vector_29" d="M153.45 52.1201C152.2 52.1201 148.93 51.8701 147.92 51.8701C147.92 51.8701 152.95 53.1301 153.95 53.3801L153.45 52.1201Z" fill="black"/>
<path id="Vector_30" d="M166.26 53.6299C165.51 53.3799 161.74 53.3799 160.73 53.3799C160.73 53.3799 165.75 54.6399 166.76 54.8899L166.26 53.6299Z" fill="black"/>
<path id="Vector_31" d="M141.9 51.1201C141.14 50.8701 137.38 50.8701 136.37 50.8701C136.37 50.8701 141.27 51.7501 142.27 52.0001L141.89 51.1201H141.9Z" fill="black"/>
<path id="Vector_32" d="M49.9502 72.4704C49.9502 70.9604 53.2102 56.9004 62.0102 48.6104C56.7302 54.3904 53.9702 61.4204 51.9602 72.2204L49.9502 72.4704Z" fill="black"/>
<path id="Vector_33" d="M45.4302 76.4905L43.1602 76.9905V73.7305L45.4302 73.2305V76.4905Z" fill="black"/>
<path id="Vector_34" d="M47.9397 76.3696L46.4297 76.6196V73.3496L47.9397 73.0996V76.3696Z" fill="black"/>
<path id="Vector_35" d="M50.7004 76.2397L49.1904 76.4897V73.2297L50.7004 72.9697V76.2397Z" fill="black"/>
<path id="Vector_36" d="M53.9601 76.1096L52.8301 76.2396V72.9696L53.9601 72.8496V76.1096Z" fill="black"/>
<path id="Vector_37" d="M57.8605 72.4697H56.7305V75.7397H57.8605V72.4697Z" fill="black"/>
<path id="Vector_38" d="M62.25 72.2197H61.5V75.4897H62.25V72.2197Z" fill="black"/>
<path id="Vector_39" d="M177.74 76.4905L180 76.9905V73.7305L177.74 73.2305V76.4905Z" fill="black"/>
<path id="Vector_40" d="M175.23 76.3696L176.73 76.6196V73.3496L175.23 73.0996V76.3696Z" fill="black"/>
<path id="Vector_41" d="M172.46 76.2397L173.97 76.4897V73.2297L172.46 72.9697V76.2397Z" fill="black"/>
<path id="Vector_42" d="M169.19 76.1096L170.32 76.2396V72.9696L169.19 72.8496V76.1096Z" fill="black"/>
<path id="Vector_43" d="M166.43 72.4697H165.3V75.7397H166.43V72.4697Z" fill="black"/>
<path id="Vector_44" d="M161.66 72.2197H160.91V75.4897H161.66V72.2197Z" fill="black"/>
<path id="Vector_45" d="M58.8201 140.01C58.6001 140.38 57.1601 140.69 55.0901 140.69C53.0201 140.69 50.7801 140.29 50.5601 139.88C50.5601 136.7 51.0701 91 51.6701 81.22C53.4601 80.83 56.6001 80.32 58.5201 82.51C59.1201 92.29 58.8301 136.79 58.8301 140.01M60.6301 139.92C60.6301 136.56 60.1301 88.72 59.5001 79.77C59.4801 79.5 59.2601 79.29 59.0001 79.29H51.2101C50.9501 79.29 50.7301 79.5 50.7101 79.77C50.0801 88.72 49.5801 136.56 49.5801 139.92C49.5801 140.08 49.6301 140.23 49.7001 140.36L59.5401 141.11C60.1801 140.84 60.6301 140.46 60.6301 139.92Z" fill="black"/>
<path id="Vector_46" d="M56.8701 80.1495L57.1501 100.37L57.9901 79.7695L56.8701 80.1495Z" fill="black"/>
<path id="Vector_47" d="M55.0596 79.9404L55.2996 97.4504L56.0196 79.9404H55.0596Z" fill="black"/>
<path id="Vector_48" d="M53.4404 79.9404L53.6304 93.6704L54.1904 79.9404H53.4404Z" fill="black"/>
<path id="Vector_49" d="M51.7803 79.9404L51.9503 92.8104L52.4803 79.9404H51.7803Z" fill="black"/>
<path id="Vector_50" d="M57.3203 123.19L56.8203 140.9L58.3203 141.02L57.3203 123.19Z" fill="black"/>
<path id="Vector_51" d="M54.8398 140.74L55.7398 140.81L55.1398 130.23L54.8398 140.74Z" fill="black"/>
<path id="Vector_52" d="M52.7598 140.57L53.3598 140.62L52.9598 133.49L52.7598 140.57Z" fill="black"/>
<path id="Vector_53" d="M75.4601 82.3098C77.2501 81.9098 80.3901 81.3798 82.3001 83.6498C82.8601 93.1598 82.6401 134.23 82.6101 142.27L84.4001 142.33C84.3501 134.35 83.8701 89.5798 83.2801 80.7898C83.2601 80.5098 83.0401 80.2998 82.7801 80.2998H74.9901C74.7301 80.2998 74.5101 80.5198 74.4901 80.7898C73.9001 89.4398 73.4301 133.03 73.3701 141.95L74.3701 141.98C74.4401 133.48 74.9101 91.7498 75.4701 82.2898" fill="black"/>
<path id="Vector_54" d="M80.6504 81.2L80.9304 102.22L81.7704 80.79L80.6504 81.2Z" fill="black"/>
<path id="Vector_55" d="M78.8496 80.9697L79.0896 99.1797L79.7996 80.9697H78.8496Z" fill="black"/>
<path id="Vector_56" d="M77.2197 80.9697L77.4097 95.2597L77.9697 80.9697H77.2197Z" fill="black"/>
<path id="Vector_57" d="M75.5596 80.9697L75.7396 94.3597L76.2596 80.9697H75.5596Z" fill="black"/>
<path id="Vector_58" d="M81.1002 125.96L80.6602 142.21L81.9802 142.26L81.1002 125.96Z" fill="black"/>
<path id="Vector_59" d="M78.6797 142.14L79.3997 142.17L78.9197 133.28L78.6797 142.14Z" fill="black"/>
<path id="Vector_60" d="M162.22 79.2805H172.16V77.7805H162.22V79.2805ZM137.71 79.4005H149.27V77.6405H137.71V79.4005ZM172.3 77.2505C159.74 76.0005 131.98 75.4905 112 75.4305C79.4402 75.3405 52.2602 77.1105 49.9502 77.2505C61.2502 76.5005 154.9 76.8605 172.3 77.2505ZM159.63 80.0705C148.17 80.6705 133.61 80.9505 116.25 81.0105C116.25 80.9705 116.3 80.8905 116.26 80.8905C112.58 80.7705 111.25 80.9305 106.62 80.8905C106.58 80.8905 106.62 80.9705 106.63 81.0105C88.7202 80.9505 72.7002 80.5305 61.1702 79.9005L48.8602 79.8405V78.9605C44.8802 78.5205 42.6602 78.0205 42.6602 77.5005C42.6602 75.5605 73.4802 73.9805 111.5 73.9805C149.52 73.9805 180.34 75.5605 180.34 77.5005C180.34 78.0305 178.03 78.5405 173.9 78.9905V80.2705H160.83L159.64 80.0705H159.63ZM50.5102 79.2805H60.2802V77.7805H50.5102V79.2805ZM73.2402 79.4005H84.2902V77.6405H73.2402V79.4005ZM105.73 79.4005H117.29V77.6405H105.73V79.4005Z" fill="black"/>
<path id="Vector_61" d="M167.39 140.7C165.33 140.7 163.88 140.38 163.67 140.02C163.67 136.8 163.37 92.2998 163.97 82.5198C165.88 80.3298 168.93 81.0898 170.96 82.6098C171.56 92.3898 171.91 136.71 171.92 139.89C171.7 140.3 169.45 140.7 167.39 140.7ZM172.92 139.93C172.92 136.57 172.42 88.7298 171.79 79.7798C171.77 79.5098 171.55 79.2998 171.29 79.2998H163.5C163.24 79.2998 163.02 79.5098 163 79.7798C162.36 88.7298 161.87 136.57 161.87 139.93C161.87 140.57 162.49 140.98 163.32 141.25L172.71 140.52C172.84 140.35 172.92 140.16 172.92 139.93Z" fill="black"/>
<path id="Vector_62" d="M169.45 80.1495L169.73 100.37L170.57 79.7695L169.45 80.1495Z" fill="black"/>
<path id="Vector_63" d="M167.65 79.9404L167.89 97.4504L168.6 79.9404H167.65Z" fill="black"/>
<path id="Vector_64" d="M166.02 79.9404L166.22 93.6704L166.78 79.9404H166.02Z" fill="black"/>
<path id="Vector_65" d="M164.36 79.9404L164.54 92.8104L165.07 79.9404H164.36Z" fill="black"/>
<path id="Vector_66" d="M169.86 122.94L169.37 140.77L170.86 140.66L169.86 122.94Z" fill="black"/>
<path id="Vector_67" d="M167.38 140.89H167.83L168.3 140.85L167.69 129.98L167.38 140.89Z" fill="black"/>
<path id="Vector_68" d="M165.3 140.84L165.94 140.85L165.51 133.24L165.3 140.84Z" fill="black"/>
<path id="Vector_69" d="M140.17 82.9396C142.08 80.6596 146.09 82.2596 147.11 83.6196C147.67 93.0796 148.07 133.48 148.13 141.99L149.13 141.95C149.07 133 148.59 89.4496 148.01 80.7996C147.99 80.5196 147.77 80.3096 147.5 80.3096H139.71C139.45 80.3096 139.23 80.5296 139.21 80.7996C138.61 89.5996 138.14 134.47 138.08 142.37L139.87 142.3C139.84 134.31 139.59 92.4596 140.16 82.9396" fill="black"/>
<path id="Vector_70" d="M145.86 81.2L146.14 102.22L146.98 80.79L145.86 81.2Z" fill="black"/>
<path id="Vector_71" d="M144.06 80.9697L144.3 99.1797L145.01 80.9697H144.06Z" fill="black"/>
<path id="Vector_72" d="M142.43 80.9697L142.62 95.2597L143.19 80.9697H142.43Z" fill="black"/>
<path id="Vector_73" d="M140.78 80.9697L140.95 94.3597L141.48 80.9697H140.78Z" fill="black"/>
<path id="Vector_74" d="M145.91 126.22L145.49 142.09L146.77 142.04L145.91 126.22Z" fill="black"/>
<path id="Vector_75" d="M143.51 142.16L144.2 142.14L143.74 133.54L143.51 142.16Z" fill="black"/>
<path id="Vector_76" d="M76.5996 142.07L77.0296 142.09L76.7396 136.68L76.5996 142.07Z" fill="black"/>
<path id="Vector_77" d="M100.71 80.4805H90.3896V82.0305H91.6096C91.5596 82.1005 91.5196 82.1805 91.5196 82.2805C90.9496 90.7405 90.5097 135.94 90.5097 139.12C90.5097 140.7 94.2896 140.82 95.4496 140.82C96.6096 140.82 100.39 140.7 100.39 139.12C100.39 135.94 99.9396 90.7405 99.3796 82.2805C99.3796 82.1805 99.3397 82.1005 99.2896 82.0305H100.73V80.4805H100.71Z" fill="black"/>
<path id="Vector_78" d="M132.48 80.4805H122.16V82.0305H123.38C123.33 82.1005 123.29 82.1805 123.28 82.2805C122.72 90.7405 122.27 135.94 122.27 139.12C122.27 140.7 126.05 140.82 127.21 140.82C128.37 140.82 132.15 140.7 132.15 139.12C132.15 135.94 131.7 90.7405 131.14 82.2805C131.14 82.1805 131.1 82.1005 131.05 82.0305H132.49V80.4805H132.48Z" fill="black"/>
<path id="Vector_79" d="M107.95 81.9997C109.74 81.5897 112.88 81.0297 114.79 83.3797C115.33 92.7997 115.14 132.18 115.1 142.68H116.88C116.79 131.86 116.33 89.1097 115.76 80.4397C115.74 80.1497 115.52 79.9297 115.25 79.9297H107.47C107.21 79.9297 106.99 80.1497 106.97 80.4397C106.4 89.1097 105.94 131.77 105.85 142.65H106.85C106.94 132.17 107.4 91.4497 107.94 81.9997" fill="black"/>
<path id="Vector_80" d="M113.14 80.8497L113.42 102.53L114.26 80.4297L113.14 80.8497Z" fill="black"/>
<path id="Vector_81" d="M111.34 80.6201L111.58 99.4001L112.29 80.6201H111.34Z" fill="black"/>
<path id="Vector_82" d="M109.71 80.6201L109.9 95.3501L110.46 80.6201H109.71Z" fill="black"/>
<path id="Vector_83" d="M108.05 80.6201L108.23 94.4301L108.75 80.6201H108.05Z" fill="black"/>
<path id="Vector_84" d="M113.59 127.54L113.19 142.68H114.4L113.59 127.54Z" fill="black"/>
<path id="Vector_85" d="M111.2 142.67H111.83L111.41 134.89L111.2 142.67Z" fill="black"/>
<path id="Vector_86" d="M109.12 142.66H109.47L109.23 138.31L109.12 142.66Z" fill="black"/>
<path id="Vector_87" d="M141.49 142.24L141.95 142.22L141.64 136.55L141.49 142.24Z" fill="black"/>
<path id="Vector_88" d="M220.77 133.4C220.77 133.4 220.78 133.48 220.78 133.52C220.78 140.18 171.74 146.59 111.25 146.59C50.7602 146.59 1.71023 140.18 1.71023 133.52C1.71023 133.48 1.71023 133.44 1.72023 133.4C0.590234 134.09 -0.00976562 134.8 -0.00976562 135.53C-0.00976562 142.19 49.8002 147.59 111.24 147.59C172.68 147.59 222.49 142.19 222.49 135.53C222.49 134.8 221.9 134.1 220.76 133.4" fill="black"/>
<path id="Vector_89" d="M43.0804 126.15C39.7304 126.49 17.2904 128.16 14.9404 132.51C15.9404 129.5 35.3704 125.14 41.4004 124.47L43.0704 101.36V126.15H43.0804Z" fill="black"/>
<path id="Vector_90" d="M178.61 126.15C181.96 126.49 204.4 128.16 206.75 132.51C205.74 129.5 186.32 125.14 180.29 124.47L178.61 101.36V126.15Z" fill="black"/>
<path id="Vector_91" d="M177.22 132.85L177.39 130.93C182.58 131.16 194.99 133.42 196.79 134.54C186.02 132.85 178.8 132.85 177.22 132.85ZM25.3502 134.54C27.1502 133.41 39.5602 131.15 44.7502 130.93L44.9202 132.85C43.3402 132.85 36.1202 132.85 25.3502 134.54ZM172.25 138.62C171.54 140.5 163.18 140.17 163.18 139.5C163.18 138.83 162.92 126.33 162.92 126.33C158.41 126.05 153.62 125.8 148.6 125.59L148.52 140.07C148.39 141.62 139.59 141.81 139.22 141.1L138.97 125.26C131.56 125.04 123.76 124.9 115.69 124.87V140.63C115.12 142.27 107.4 141.76 106.52 141.26L106.6 124.87C98.6002 124.9 90.8802 125.04 83.5302 125.26V140.06C81.1802 142.11 74.6502 140.9 73.9802 140.23L74.1002 125.6C69.1502 125.8 64.4202 126.05 59.9502 126.32L59.5202 138.73C58.7302 140.31 50.5402 139.56 50.1602 139.18L49.9802 127.04C30.0602 128.68 17.4502 131.1 17.4502 133.8C17.4502 138.73 59.4402 142.73 111.24 142.73C163.04 142.73 205.03 138.73 205.03 133.8C205.03 131.08 192.24 128.64 172.08 127L172.25 138.64V138.62Z" fill="black"/>
</g>
<defs>
<clipPath id="clip0_7_1329">
<rect width="222.49" height="147.59" fill="white"/>
</clipPath>
</defs>
</svg>
