<svg width="16" height="16" viewBox="0 0 16 16" fill="none" xmlns="http://www.w3.org/2000/svg">
<path d="M7.73964 0C5.21165 0 3.14377 2.06936 3.14377 4.59734C3.14377 6.14309 3.91921 7.51192 5.09808 8.34471C2.3539 9.44483 0.407466 12.1288 0.407466 15.2597C0.385557 16.2468 1.87742 16.2468 1.85552 15.2597C1.85552 11.9364 4.5351 9.25823 7.85842 9.25823C9.01849 9.25823 10.0953 9.58886 11.0119 10.1561C11.8358 10.6615 12.5938 9.42558 11.7699 8.92026C11.3572 8.66495 10.91 8.46584 10.4491 8.29377C11.587 7.45671 12.3313 6.11236 12.3313 4.59734C12.3313 2.06936 10.2676 0 7.73964 0ZM7.73964 1.44949C9.48504 1.44949 10.8832 2.85193 10.8832 4.59734C10.8832 6.34274 9.48504 7.73942 7.73964 7.73942C5.99423 7.73942 4.59182 6.34274 4.59182 4.59734C4.59182 2.85193 5.99423 1.44949 7.73964 1.44949ZM12.1814 13.7692V15.2173C12.2023 16.1615 13.6085 16.1615 13.6294 15.2173V13.7692H15.0789C16.0452 13.7692 16.0452 12.3198 15.0789 12.3198H13.6294V10.8717C13.6341 10.4658 13.3043 10.1352 12.8983 10.1392C12.4979 10.1419 12.1767 10.4713 12.1814 10.8717V12.3198H10.6987C9.69771 12.3661 9.767 13.8154 10.7333 13.7692H12.1814Z" fill="black"/>
</svg>
