<svg width="71" height="77" viewBox="0 0 71 77" fill="none" xmlns="http://www.w3.org/2000/svg">
<path fill-rule="evenodd" clip-rule="evenodd" d="M46.7841 21.545V53.7207H22.5859V21.545H46.7841ZM44.7841 23.545H24.5859V51.7207H44.7841V23.545ZM14.4868 69.982V75H19.5048V69.982H14.4868ZM13.1805 63.1261V13.1802H56.1895V63.1261H13.1805ZM54.1895 61.1261V15.1802H15.1805V61.1261H54.1895ZM26.2796 69.982V75H31.2976V69.982H26.2796ZM38.0724 69.982V75H43.0904V69.982H38.0724ZM49.8651 69.982V75H54.8832V69.982H49.8651ZM2 54.027V59.045H7.01802V54.027H2ZM2 40.8468V45.8649H7.01802V40.8468H2ZM2 27.6667V32.6847H7.01802V27.6667H2ZM2 14.4865V19.5045H7.01802V14.4865H2ZM63.0453 54.027V59.045H68.0633V54.027H63.0453ZM63.0452 40.8468V45.8649H68.0632V40.8468H63.0452ZM63.0452 27.6667V32.6847H68.0632V27.6667H63.0452ZM63.0452 14.4865V19.5045H68.0632V14.4865H63.0452ZM14.4868 2V7.01802H19.5048V2H14.4868ZM26.2796 2V7.01802H31.2976V2H26.2796ZM38.0724 2V7.01802H43.0904V2H38.0724ZM49.8651 2V7.01802H54.8832V2H49.8651ZM12.4868 0H21.5048V9.01802H12.4868V0ZM61.0452 21.5045H70.0632V12.4865H61.0452V21.5045ZM0 21.5045H9.01802V12.4865H0V21.5045ZM12.4868 67.982H21.5048V77H12.4868V67.982ZM24.2796 77H33.2976V67.982H24.2796V77ZM36.0724 67.982H45.0904V77H36.0724V67.982ZM47.8651 77H56.8832V67.982H47.8651V77ZM0 52.027H9.01802V61.045H0V52.027ZM0 47.8649H9.01802V38.8468H0V47.8649ZM0 25.6667H9.01802V34.6847H0V25.6667ZM61.0453 52.027H70.0633V61.045H61.0453V52.027ZM61.0452 47.8649H70.0632V38.8468H61.0452V47.8649ZM61.0452 25.6667H70.0632V34.6847H61.0452V25.6667ZM24.2796 9.01802H33.2976V0H24.2796V9.01802ZM36.0724 0H45.0904V9.01802H36.0724V0ZM47.8651 9.01802H56.8832V0H47.8651V9.01802Z" fill="black"/>
</svg>
