<svg width="50" height="50" viewBox="0 0 50 50" fill="none" xmlns="http://www.w3.org/2000/svg">
<path fill-rule="evenodd" clip-rule="evenodd" d="M0 6.64946C0 6.35037 0.242459 6.10791 0.541548 6.10791H49.4585C49.7575 6.10791 50 6.35037 50 6.64946V49.2986C50 49.5977 49.7575 49.8402 49.4585 49.8402H0.541548C0.242459 49.8402 0 49.5977 0 49.2986V6.64946ZM1.0831 7.19101V48.7571H48.9169V7.19101H1.0831Z" fill="black"/>
<path fill-rule="evenodd" clip-rule="evenodd" d="M6.72026 0C7.01935 0 7.26181 0.242459 7.26181 0.541548V12.7574C7.26181 13.0565 7.01935 13.299 6.72026 13.299C6.42117 13.299 6.17871 13.0565 6.17871 12.7574V0.541548C6.17871 0.242459 6.42117 0 6.72026 0Z" fill="black"/>
<path fill-rule="evenodd" clip-rule="evenodd" d="M43.3501 0C43.6492 0 43.8917 0.242459 43.8917 0.541548V12.7574C43.8917 13.0565 43.6492 13.299 43.3501 13.299C43.0511 13.299 42.8086 13.0565 42.8086 12.7574V0.541548C42.8086 0.242459 43.0511 0 43.3501 0Z" fill="black"/>
<path fill-rule="evenodd" clip-rule="evenodd" d="M25.0435 0C25.3426 0 25.585 0.242459 25.585 0.541548V12.7574C25.585 13.0565 25.3426 13.299 25.0435 13.299C24.7444 13.299 24.502 13.0565 24.502 12.7574V0.541548C24.502 0.242459 24.7444 0 25.0435 0Z" fill="black"/>
<path fill-rule="evenodd" clip-rule="evenodd" d="M9.79239 22.6206C9.93624 22.6208 10.0741 22.6782 10.1756 22.7801L13.8688 26.4911C14.0783 26.7016 14.0791 27.0417 13.8706 27.2533L10.1774 30.9997C10.0761 31.1025 9.93797 31.1606 9.79368 31.1611C9.64938 31.1616 9.51084 31.1045 9.40881 31.0025L5.6801 27.2738C5.57854 27.1722 5.52148 27.0345 5.52148 26.8909C5.52148 26.7472 5.57854 26.6095 5.6801 26.5079L9.4088 22.7792C9.51052 22.6775 9.64853 22.6204 9.79239 22.6206ZM6.8289 26.8909L9.78898 29.8509L12.7227 26.8749L9.79082 23.9289L6.8289 26.8909Z" fill="black"/>
<path fill-rule="evenodd" clip-rule="evenodd" d="M25.0438 22.6206C25.1877 22.6204 25.3257 22.6775 25.4274 22.7792L29.1383 26.4902C29.3491 26.7009 29.3499 27.0424 29.1402 27.2542L25.4292 31.0006C25.3277 31.1032 25.1894 31.1609 25.0451 31.1611C24.9008 31.1613 24.7624 31.1038 24.6606 31.0016L20.9497 27.2729C20.7394 27.0616 20.7394 26.7201 20.9497 26.5088L24.6606 22.7801C24.7621 22.6782 24.9 22.6208 25.0438 22.6206ZM25.0454 23.9289L22.0976 26.8909L25.0436 29.8509L27.9914 26.8749L25.0454 23.9289Z" fill="black"/>
<path fill-rule="evenodd" clip-rule="evenodd" d="M40.3139 22.6206C40.4577 22.6208 40.5956 22.6782 40.6971 22.7801L44.3902 26.4911C44.5998 26.7016 44.6006 27.0417 44.392 27.2533L40.6989 30.9997C40.5976 31.1025 40.4595 31.1606 40.3152 31.1611C40.1709 31.1616 40.0323 31.1045 39.9303 31.0025L36.2016 27.2738C36.1 27.1722 36.043 27.0345 36.043 26.8909C36.043 26.7472 36.1 26.6095 36.2016 26.5079L39.9303 22.7792C40.032 22.6775 40.17 22.6204 40.3139 22.6206ZM37.3504 26.8909L40.3105 29.8509L43.2442 26.8749L40.3123 23.9289L37.3504 26.8909Z" fill="black"/>
<path fill-rule="evenodd" clip-rule="evenodd" d="M9.40972 35.5625C9.62135 35.3519 9.96354 35.3523 10.1747 35.5634L13.8679 39.2566C14.0783 39.467 14.0795 39.8078 13.8706 40.0197L10.1774 43.7661C10.0761 43.8689 9.93797 43.927 9.79368 43.9275C9.64938 43.928 9.51084 43.8709 9.40881 43.7689L5.6801 40.0402C5.57838 39.9385 5.52131 39.8005 5.52148 39.6566C5.52166 39.5128 5.57905 39.3749 5.68101 39.2734L9.40972 35.5625ZM6.82981 39.6582L9.78898 42.6174L12.7218 39.6422L9.79082 36.7113L6.82981 39.6582Z" fill="black"/>
<path fill-rule="evenodd" clip-rule="evenodd" d="M24.6615 35.5634C24.8727 35.3523 25.2148 35.3519 25.4265 35.5625L29.1374 39.2557C29.3491 39.4663 29.3503 39.8085 29.1402 40.0206L25.4292 43.7671C25.3277 43.8696 25.1894 43.9273 25.0451 43.9275C24.9008 43.9277 24.7624 43.8703 24.6606 43.768L20.9497 40.0393C20.7391 39.8277 20.7395 39.4855 20.9506 39.2744L24.6615 35.5634ZM25.0454 36.7113L22.0985 39.6582L25.0436 42.6174L27.9904 39.6423L25.0454 36.7113Z" fill="black"/>
<path fill-rule="evenodd" clip-rule="evenodd" d="M39.9312 35.5625C40.1428 35.3519 40.485 35.3523 40.6962 35.5634L44.3893 39.2566C44.5997 39.467 44.6009 39.8078 44.392 40.0197L40.6989 43.7661C40.5976 43.8689 40.4595 43.927 40.3152 43.9275C40.1709 43.928 40.0323 43.8709 39.9303 43.7689L36.2016 40.0402C36.0999 39.9385 36.0428 39.8005 36.043 39.6566C36.0431 39.5128 36.1005 39.3749 36.2025 39.2734L39.9312 35.5625ZM37.3513 39.6582L40.3105 42.6174L43.2432 39.6422L40.3123 36.7113L37.3513 39.6582Z" fill="black"/>
<path fill-rule="evenodd" clip-rule="evenodd" d="M0 18.7056C0 18.4065 0.242459 18.1641 0.541548 18.1641H49.4585C49.7575 18.1641 50 18.4065 50 18.7056C50 19.0047 49.7575 19.2472 49.4585 19.2472H0.541548C0.242459 19.2472 0 19.0047 0 18.7056Z" fill="black"/>
</svg>
