<svg width="19" height="18" viewBox="0 0 19 18" fill="none" xmlns="http://www.w3.org/2000/svg">
<path d="M9.45069 6.67008C9.11028 6.65879 8.84509 6.3679 8.84509 6.02717V4.56239C8.84509 4.22166 9.10996 3.93077 9.45069 3.91948C9.79142 3.9082 10.0989 4.19282 10.0989 4.54609V6.04347C10.0989 6.39674 9.80647 6.68199 9.45069 6.67008Z" fill="black"/>
<path d="M11.1594 6.81081C11.4365 6.49171 11.3497 6.07199 10.9707 5.84348C10.5917 5.61497 10.0943 5.41655 9.47204 5.41655C8.9097 5.41655 8.39343 5.57547 7.97904 5.87608C7.5496 6.18766 7.2769 6.62148 7.21044 7.09794C7.14117 7.59633 7.30761 8.09599 7.67875 8.50474C8.04267 8.90502 8.5884 9.21064 9.30058 9.41251C10.1961 9.66672 10.7387 10.093 10.6823 10.4983C10.6337 10.8466 10.1573 11.2227 9.47173 11.2227C8.63417 11.2227 7.92011 10.614 7.91541 10.6096C7.65555 10.3808 7.25934 10.4059 7.03052 10.6654C6.80169 10.9253 6.82677 11.3215 7.08631 11.5503C7.12926 11.5882 8.15238 12.4762 9.47173 12.4762C10.7911 12.4762 11.781 11.7001 11.9239 10.6707C11.9973 10.1422 11.8167 9.61344 11.4155 9.18118C11.0202 8.75582 10.424 8.42763 9.64287 8.20601C9.01032 8.02671 8.39688 7.6678 8.45205 7.27034C8.49311 6.97538 8.88556 6.67007 9.47173 6.67007C9.47173 6.67007 10.1591 6.72116 10.4369 6.92804C10.798 7.19668 11.1591 6.8105 11.1591 6.8105L11.1594 6.81081Z" fill="black"/>
<path d="M9.45069 14.0805C9.11028 14.0692 8.84509 13.7783 8.84509 13.4376V11.8659C8.84509 11.5252 9.10996 11.2343 9.45069 11.223C9.79142 11.2118 10.0989 11.4964 10.0989 11.8496V13.4539C10.0989 13.8072 9.80647 14.0924 9.45069 14.0805Z" fill="black"/>
<path d="M9.40747 18C7.00356 18 4.74353 17.0637 3.04365 15.3638C1.34377 13.6643 0.407471 11.4039 0.407471 9C0.407471 6.59609 1.34377 4.33606 3.04365 2.63618C4.74353 0.936298 7.00356 0 9.40747 0C11.8114 0 14.0717 0.936298 15.7713 2.63618C17.4712 4.33606 18.4075 6.59609 18.4075 9C18.4075 11.4039 17.4712 13.6639 15.7713 15.3638C14.0714 17.0637 11.8114 18 9.40747 18ZM10.7278 1.36229C7.7358 0.870786 4.84133 2.06945 3.07343 4.53291C2.40294 5.46702 1.95627 6.54531 1.77007 7.68003C1.27857 10.672 2.47723 13.5661 4.94038 15.334C5.87449 16.0045 6.95278 16.4512 8.0875 16.6377C11.0795 17.1292 13.9739 15.9306 15.7418 13.4671C16.4123 12.533 16.859 11.4547 17.0452 10.32C17.5367 7.32802 16.338 4.43386 13.8749 2.66596C12.9408 1.99547 11.8625 1.5488 10.7278 1.36229Z" fill="black"/>
</svg>
