<svg width="13" height="12" viewBox="0 0 13 12" fill="none" xmlns="http://www.w3.org/2000/svg">
<path d="M12.4059 6.50481C12.3078 7.64543 11.886 8.7343 11.19 9.64332C10.4941 10.5523 9.55301 11.2437 8.4775 11.636C7.402 12.0284 6.23681 12.1054 5.11903 11.858C4.00124 11.6106 2.97736 11.0491 2.16784 10.2396C1.35832 9.43011 0.796843 8.40623 0.549464 7.28844C0.302086 6.17066 0.379097 5.00547 0.771439 3.92997C1.16378 2.85446 1.85513 1.91339 2.76415 1.21745C3.67317 0.521518 4.76204 0.0996807 5.90266 0.00156892C5.96331 -0.0034342 6.02434 0.00355632 6.08229 0.0221414C6.14023 0.0407266 6.19394 0.0705423 6.24036 0.109886C6.28678 0.14923 6.325 0.197332 6.35283 0.251445C6.38066 0.305558 6.39755 0.364623 6.40256 0.425266C6.40756 0.48591 6.40057 0.546946 6.38199 0.604888C6.3634 0.66283 6.33358 0.716545 6.29424 0.762964C6.2549 0.809383 6.20679 0.847599 6.15268 0.875429C6.09857 0.903258 6.0395 0.920157 5.97886 0.92516C5.01347 1.00811 4.09185 1.36506 3.32244 1.95402C2.55304 2.54298 1.96785 3.33944 1.63574 4.2497C1.30364 5.15996 1.23842 6.14613 1.44777 7.09219C1.65712 8.03826 2.13233 8.90484 2.81748 9.58999C3.50263 10.2751 4.36921 10.7503 5.31528 10.9597C6.26134 11.1691 7.24751 11.1038 8.15777 10.7717C9.06803 10.4396 9.86449 9.85443 10.4534 9.08503C11.0424 8.31562 11.3994 7.394 11.4823 6.42861C11.4924 6.30613 11.5508 6.19269 11.6445 6.11323C11.7383 6.03377 11.8597 5.99481 11.9822 6.00491C12.1047 6.01502 12.2181 6.07336 12.2976 6.16711C12.377 6.26086 12.416 6.38233 12.4059 6.50481ZM5.94076 2.77234V6.00491C5.94076 6.12739 5.98942 6.24485 6.07602 6.33145C6.16262 6.41806 6.28008 6.46671 6.40256 6.46671H9.63513C9.7576 6.46671 9.87506 6.41806 9.96167 6.33145C10.0483 6.24485 10.0969 6.12739 10.0969 6.00491C10.0969 5.88244 10.0483 5.76498 9.96167 5.67837C9.87506 5.59177 9.7576 5.54312 9.63513 5.54312H6.86435V2.77234C6.86435 2.64987 6.8157 2.53241 6.7291 2.4458C6.64249 2.3592 6.52503 2.31055 6.40256 2.31055C6.28008 2.31055 6.16262 2.3592 6.07602 2.4458C5.98942 2.53241 5.94076 2.64987 5.94076 2.77234ZM8.24974 1.38696C8.38674 1.38696 8.52067 1.34633 8.63458 1.27022C8.74849 1.1941 8.83728 1.08592 8.88971 0.959345C8.94213 0.832772 8.95585 0.693494 8.92912 0.559125C8.9024 0.424755 8.83642 0.301329 8.73955 0.204454C8.64267 0.107579 8.51925 0.0416066 8.38488 0.0148789C8.25051 -0.0118489 8.11123 0.00186879 7.98466 0.0542971C7.85809 0.106725 7.7499 0.19551 7.67379 0.309422C7.59767 0.423335 7.55705 0.557261 7.55705 0.694262C7.55705 0.877976 7.63003 1.05417 7.75993 1.18407C7.88984 1.31398 8.06603 1.38696 8.24974 1.38696ZM10.3278 2.77234C10.4648 2.77234 10.5987 2.73172 10.7127 2.6556C10.8266 2.57949 10.9154 2.47131 10.9678 2.34473C11.0202 2.21816 11.0339 2.07888 11.0072 1.94451C10.9805 1.81014 10.9145 1.68672 10.8176 1.58984C10.7208 1.49297 10.5973 1.42699 10.463 1.40027C10.3286 1.37354 10.1893 1.38726 10.0627 1.43968C9.93617 1.49211 9.82798 1.5809 9.75187 1.69481C9.67575 1.80872 9.63513 1.94265 9.63513 2.07965C9.63513 2.26336 9.70811 2.43955 9.83801 2.56946C9.96792 2.69936 10.1441 2.77234 10.3278 2.77234ZM11.7132 4.85042C11.8502 4.85042 11.9841 4.8098 12.098 4.73368C12.212 4.65757 12.3007 4.54939 12.3532 4.42281C12.4056 4.29624 12.4193 4.15696 12.3926 4.02259C12.3659 3.88822 12.2999 3.7648 12.203 3.66792C12.1061 3.57105 11.9827 3.50507 11.8483 3.47835C11.714 3.45162 11.5747 3.46534 11.4481 3.51776C11.3216 3.57019 11.2134 3.65898 11.1373 3.77289C11.0611 3.8868 11.0205 4.02073 11.0205 4.15773C11.0205 4.34144 11.0935 4.51763 11.2234 4.64754C11.3533 4.77744 11.5295 4.85042 11.7132 4.85042Z" fill="black"/>
</svg>
