<svg width="20" height="20" viewBox="0 0 20 20" fill="none" xmlns="http://www.w3.org/2000/svg">
<path fill-rule="evenodd" clip-rule="evenodd" d="M8 4H5C4.44 4 4 4.44 4 5V8C4 8.55 4.44 9 5 9H8C8.55 9 9 8.55 9 8V5C9 4.44 8.55 4 8 4ZM15 4H12C11.44 4 11 4.44 11 5V8C11 8.55 11.44 9 12 9H15C15.55 9 16 8.55 16 8V5C16 4.44 15.55 4 15 4ZM8 11H5C4.44 11 4 11.44 4 12V15C4 15.55 4.44 16 5 16H8C8.55 16 9 15.55 9 15V12C9 11.44 8.55 11 8 11ZM15 11H12C11.44 11 11 11.44 11 12V15C11 15.55 11.44 16 12 16H15C15.55 16 16 15.55 16 15V12C16 11.44 15.55 11 15 11Z" fill="black"/>
</svg>
