<svg width="14" height="14" viewBox="0 0 14 14" fill="none" xmlns="http://www.w3.org/2000/svg">
<path d="M7 0C3.13382 0 0 3.13382 0 7C0 10.8662 3.13382 14 7 14C10.8662 14 14 10.8662 14 7C14 3.13382 10.8662 0 7 0ZM7 12.6312C3.89495 12.6312 1.36881 10.1051 1.36881 7C1.36881 3.89495 3.89495 1.36881 7 1.36881C10.1051 1.36881 12.6312 3.89495 12.6312 7C12.6312 10.1051 10.1051 12.6312 7 12.6312Z" fill="black"/>
<path d="M9.6526 10.3615C9.4921 10.3615 9.34119 10.2989 9.22813 10.1853L6.61114 7.56835C6.40219 7.3594 6.28711 7.08129 6.28711 6.78603V3.03291C6.28711 2.69879 6.55865 2.42725 6.89278 2.42725C6.9059 2.42725 6.91953 2.42725 6.93265 2.42876C7.24962 2.44945 7.49794 2.72251 7.49794 3.05058V6.56799C7.49794 6.69064 7.54589 6.80572 7.6322 6.89253L10.0645 9.32479C10.2946 9.55494 10.3118 9.92036 10.1038 10.1571C9.98925 10.2873 9.82522 10.3615 9.6526 10.3615Z" fill="black"/>
</svg>
