<svg viewBox="0 0 24 24" fill="none" xmlns="http://www.w3.org/2000/svg" id="instagram" class="v-icon__icon v-icon__icon--instagram"><path d="M15.333 12c0-.92-.325-1.706-.976-2.357A3.212 3.212 0 0012 8.667c-.92 0-1.706.325-2.357.976A3.211 3.211 0 008.667 12c0 .92.325 1.706.976 2.357a3.211 3.211 0 002.357.976c.92 0 1.706-.325 2.357-.976A3.212 3.212 0 0015.333 12zm1.797 0c0 1.424-.499 2.634-1.497 3.633-.998.998-2.21 1.497-3.633 1.497-1.424 0-2.635-.499-3.633-1.497C7.37 14.635 6.87 13.423 6.87 12c0-1.424.499-2.635 1.497-3.633C9.365 7.37 10.577 6.87 12 6.87c1.424 0 2.635.499 3.633 1.497.998.998 1.497 2.21 1.497 3.633zm1.407-5.339c0 .33-.118.612-.352.847a1.154 1.154 0 01-.846.351c-.33 0-.612-.117-.847-.351a1.154 1.154 0 01-.351-.847c0-.33.117-.612.351-.846.235-.234.517-.351.847-.351.33 0 .612.117.846.351.234.234.352.517.352.846zM12 3.797l-.996-.007a70.638 70.638 0 00-1.374 0 48.25 48.25 0 00-1.256.04 10.32 10.32 0 00-1.341.13c-.37.065-.68.145-.931.24a3.378 3.378 0 00-1.146.756c-.33.33-.582.712-.755 1.146a5.22 5.22 0 00-.241.93c-.065.37-.109.816-.13 1.342-.022.525-.035.944-.04 1.256-.004.313-.004.77 0 1.374l.007.996-.007.996a70.63 70.63 0 000 1.374c.005.312.018.731.04 1.256.021.525.065.973.13 1.341.065.37.145.68.24.931.174.434.426.816.756 1.146.33.33.712.582 1.146.755.251.096.562.176.93.241.37.065.817.109 1.342.13.525.022.944.035 1.256.04.313.004.77.004 1.374 0l.996-.007.996.007a71.3 71.3 0 001.374 0c.312-.005.731-.018 1.256-.04.525-.021.973-.065 1.342-.13.368-.065.679-.145.93-.24a3.378 3.378 0 001.146-.756c.33-.33.582-.712.755-1.146.096-.251.176-.562.241-.93.066-.37.109-.817.13-1.342.022-.525.035-.944.04-1.256.004-.313.004-.77 0-1.374L20.203 12l.007-.996c.004-.603.004-1.061 0-1.374a48.017 48.017 0 00-.04-1.256 10.32 10.32 0 00-.13-1.341 5.22 5.22 0 00-.24-.931 3.379 3.379 0 00-.756-1.146 3.379 3.379 0 00-1.146-.756 5.223 5.223 0 00-.93-.24 10.321 10.321 0 00-1.342-.13 48.252 48.252 0 00-1.256-.04c-.313-.004-.77-.004-1.374 0L12 3.797zM22 12c0 1.988-.022 3.364-.065 4.128-.087 1.805-.625 3.203-1.615 4.192-.99.99-2.387 1.528-4.192 1.615-.764.043-2.14.065-4.128.065s-3.364-.022-4.128-.065c-1.805-.087-3.203-.625-4.192-1.615-.99-.99-1.528-2.387-1.615-4.192C2.022 15.364 2 13.988 2 12s.022-3.364.065-4.128C2.152 6.067 2.69 4.67 3.68 3.68c.99-.99 2.387-1.528 4.192-1.615C8.636 2.022 10.012 2 12 2s3.364.022 4.128.065c1.805.087 3.203.625 4.192 1.615.99.99 1.528 2.387 1.615 4.192.043.764.065 2.14.065 4.128z" fill="currentColor"/></svg>