<svg width="264" height="111" viewBox="0 0 264 111" fill="none" xmlns="http://www.w3.org/2000/svg">
<path d="M27.5798 101.874C21.5662 106.51 14.4789 109.479 6.4653 108.458C5.123 108.297 3.45854 106.805 2.8545 105.314C1.57931 97.9503 8.29084 92.0245 14.1164 88.1681C23.9018 81.7989 36.0229 80.6702 46.9224 77.1766C42.6404 86.381 35.3651 94.9135 27.5798 101.874ZM14.7339 41.0711C14.7339 41.0711 5.88811 38.6928 3.31088 33.1164C0.586004 27.2175 4.61292 21.0499 9.9016 17.2472C27.0428 4.8985 49.7144 10.1658 49.7144 10.1658C49.7144 10.1658 40.4256 15.2047 30.3181 23.0386C19.9152 31.1142 14.7339 41.0711 14.7339 41.0711ZM60.4797 13.2295C64.5334 14.0357 70.8825 16.0244 71.3523 16.105C71.8221 16.1856 71.8893 15.9572 71.7282 15.7691C71.5671 15.581 67.0972 12.907 62.9495 11.4155C70.0503 6.06753 81.6075 2.81575 87.1781 2.3992C89.997 2.19765 92.1178 2.53358 93.4467 3.90416C94.9501 5.44942 95.1917 7.19624 94.5474 9.10431C92.6681 14.6404 86.8023 18.7253 81.97 22.8639C65.2717 33.9898 47.0029 42.9389 25.9153 42.3611L26.1703 41.9445C35.7947 29.7034 48.3318 21.2111 60.4931 13.2161M103.004 54.7366C105.662 52.2508 108.36 49.0662 111.192 49.644C113.313 50.0874 108.172 54.9651 104.789 56.0938C104.131 56.3088 101.809 56.9537 100.883 57.0344C100.883 57.0344 101.769 55.8922 103.017 54.7366M121.434 54.5754C124.092 52.0895 126.79 48.9049 129.622 49.4827C131.743 49.9262 126.441 54.9651 123.219 55.9325C122.521 56.1341 120.212 56.7388 119.313 56.8731C119.313 56.8731 120.199 55.731 121.447 54.5754M223.087 54.4813C225.771 52.0223 228.509 48.8646 231.328 49.4693C233.449 49.9262 228.093 54.9247 224.858 55.8519C224.16 56.0535 221.838 56.6178 220.939 56.7522C220.939 56.7522 221.838 55.61 223.087 54.4679M256.738 56.8866C252.309 61.9927 245.798 69.1277 241.328 69.3024C240.107 69.2352 239.798 68.4425 239.718 67.5556C239.355 62.5839 246.859 59.7083 250.953 54.4276C252.201 53.0704 252.778 49.5365 251.1 47.7493C249.449 45.9891 244.724 48.0853 244.107 47.8703C244.496 47.4403 246.402 42.912 244.792 40.8427C244.577 40.5605 243.718 40.4261 243.181 40.7621C240.657 42.7508 240.147 45.8816 240.778 48.3271C238.966 51.4714 231.422 61.482 224.805 66.5747C224.254 67.0047 222.925 67.8647 222.925 67.8647C222.12 68.3081 219.355 69.5309 217.06 69.3024C213.194 68.9262 217.355 61.9255 218.925 59.8696C220.241 59.4396 224.375 58.7946 227.744 56.8059C230.536 55.4085 234.469 51.6192 233.61 49.2409C233.006 48.139 231.825 47.7493 230.724 47.7493C224.952 48.4481 220.174 51.8342 216.013 56.1072C213.892 58.0018 212.066 60.8371 210.026 63.3095C208.71 64.8951 207.14 66.2253 205.811 67.2062C205.61 67.354 203.368 68.8187 203.059 68.9665C202.026 69.4502 200.737 69.7458 200.227 68.9531C199.717 68.0662 200.147 67.3675 200.428 66.4C200.939 64.6532 216.415 49.2543 216.617 48.7034C216.053 48.7034 213.113 48.6899 211.704 48.7034C211.704 48.7034 196.294 64.0485 194.495 65.6744C192.697 67.2869 190.791 69.3293 188.2 69.1546C187.502 69.0606 186.898 68.5634 186.992 67.8647C187.932 59.789 200.885 57.6928 199.194 49.8455C198.388 47.4537 195.73 47.7359 194.106 47.6956C194.791 45.7069 195.489 41.8773 194.375 41.0174C193.381 40.2515 192.227 40.8024 191.542 41.5011C189.65 43.342 189.784 46.4594 190.442 48.9184C190.442 48.9184 184.401 57.3569 181.046 55.2607C181.408 53.4332 182.133 50.0605 181.086 48.3943C180.576 47.6419 179.233 48.0853 178.898 48.5153C176.576 50.9339 176.321 55.9191 178.106 56.9537C177.233 60.1518 171.461 66.5209 166.133 69.289C164.656 69.9743 163.716 69.4905 162.938 68.3215C161.851 66.6956 164.2 61.267 165.877 59.668C167.542 58.0825 208.764 15.3391 208.764 15.3391L203.1 15.2854L175.274 43.1807L156.32 61.7239V61.697L148.911 68.9665C148.226 69.4771 147.233 70.1758 146.535 69.1949C146.36 68.8456 146.468 68.214 146.669 67.8109C150.79 62.1942 160.334 57.2762 158.602 50.5039C158.28 49.2543 156.978 48.6765 155.434 48.9318C152.777 49.3752 148.401 52.7614 145.206 55.2607C145.367 53.7288 145.77 51.767 145.152 49.8858C144.736 48.3003 143.045 48.1122 141.662 48.5287C140.401 48.8915 137.367 51.767 133.837 55.5429C129.206 60.5146 123.581 66.7628 118.132 69.3159C118.132 69.3293 115.944 70.149 115.125 69.9071C111.823 69.1546 115.783 62.0733 117.326 60.004C120.427 58.6468 122.763 58.8752 126.118 56.8463C128.884 55.4219 132.79 51.5924 131.904 49.214C131.3 48.1256 130.105 47.7359 129.004 47.7493C123.246 48.5018 118.508 51.9417 114.373 56.255C112.521 58.3109 111.581 60.434 110.776 61.603C109.366 63.6454 100.682 69.6652 96.6951 70.0549C93.299 69.7727 97.3528 62.2211 98.8964 60.1518C101.997 58.8081 103.527 59.0231 106.897 56.9941C109.662 55.5697 114.36 51.7402 113.487 49.3752C112.883 48.2868 111.675 47.8972 110.588 47.9106C105.031 48.5556 100.091 52.103 95.9568 56.4163C93.8628 58.3378 92.0641 61.1864 90.0506 63.6723C88.7486 65.2847 87.3929 66.7359 86.0774 67.7303C85.0304 68.5365 83.715 69.0874 82.7754 69.1412C82.0237 69.0337 80.7351 68.4962 81.2988 66.9644C82.7485 62.6645 87.4197 59.6815 90.3728 56.2685C92.4399 54.0648 93.7151 49.859 91.9701 47.7897C90.695 46.2847 88.4802 47.3194 86.7888 47.4537C84.0908 45.6935 88.3325 42.8583 85.7284 40.7889C85.1244 40.2649 83.6613 40.1843 83.1512 41.1114C81.8894 43.4092 82.1176 46.3922 82.3324 49.0796C79.2182 55.7847 72.9094 61.4149 66.9898 66.0641C65.567 67.1256 61.1911 70.1086 59.8085 70.7133C63.7549 58.3646 73.943 42.6836 86.2519 36.395C86.8828 36.0725 88.064 35.5485 88.1714 35.4947C88.4667 35.3469 88.2117 34.7288 87.7687 34.8094C71.3389 37.5237 61.6877 51.7939 49.5533 61.6836C42.0498 67.1391 34.345 72.6886 24.5998 72.393C21.3112 71.9361 17.9017 69.5712 17.0829 66.1985C15.9017 58.2437 18.6132 50.8533 23.526 44.9276C23.526 44.9276 36.7343 44.2557 42.1975 42.9389C52.4124 40.4933 70.6275 34.0435 82.9767 24.4091C89.1782 19.5718 98.7354 12.383 95.7018 4.36102C94.9635 2.41264 92.4668 -3.96997 66.01 3.63542C60.936 5.05975 56.1037 7.035 52.9762 8.3787C36.7343 5.40911 18.3447 5.50317 6.12973 17.0725C1.48535 21.3052 -0.635494 27.5937 1.51219 33.5464C4.84111 41.5414 13.9285 42.9389 13.9285 42.9389C13.9285 42.9389 12.6265 46.1369 12.1969 47.494C10.4117 53.1914 9.83449 64.6532 16.9084 70.9283C20.13 73.777 25.1099 74.4085 28.7744 73.7904C33.7409 72.9573 40.2914 70.2968 45.768 66.5881C54.9091 60.434 62.1978 52.3583 62.3589 52.1298C63.3656 51.2564 68.963 45.9891 72.6275 44.2557C66.8288 50.383 60.6273 57.3165 55.5266 64.0351C52.8822 67.354 51.1372 71.0089 48.6003 74.1532C36.439 79.219 23.9421 78.3053 13.6601 84.876C6.25053 89.3371 -2.47445 98.5952 0.653119 106.389C2.27731 109.358 5.6465 110.635 8.84118 110.608C21.3112 110.474 31.6738 103.607 41.3115 96.4319C49.4459 90.3852 54.0232 82.0945 58.7078 73.4814C68.1979 68.6037 78.7216 59.3052 84.1982 49.7918C84.1982 49.7918 85.621 48.999 87.2587 48.7034C88.9365 48.4078 90.8426 48.6093 90.8695 49.429C90.8963 50.6921 88.9634 53.3392 86.7217 54.8441C82.9633 57.3703 78.037 58.9962 77.4061 64.3979C77.1914 66.7897 76.8558 70.0146 79.4599 70.888C81.3391 71.3583 84.0774 70.3908 85.6747 69.4502C87.9701 68.1065 90.0104 65.8894 91.8762 64.5188C91.7688 66.2522 91.4198 69.0471 93.5004 70.2027C95.2722 71.103 96.4803 71.0492 97.6884 70.7268C100.668 69.934 108.628 65.3654 110.346 63.941C110.239 65.6744 110.024 68.8456 112.064 70.3102C114.534 71.7748 118.373 70.5252 119.152 70.1355C126.239 66.4403 130.105 60.7027 135.421 55.2741C137.582 52.9629 140.937 49.738 142.092 49.9933C142.79 50.0874 142.79 50.6114 142.642 51.2161C139.528 58.0153 128.199 71.0492 128.199 71.0492L133.863 70.9955C133.863 70.9955 143.703 58.2706 150.025 53.1242C151.609 51.9148 152.844 50.6652 155.099 50.5308C155.609 50.5577 156.548 50.7861 156.105 51.7267C152.777 56.8328 146.911 58.929 143.984 64.1426C143.112 66.2388 142.441 68.6843 144.146 70.5521C147.515 72.7558 152.481 68.0528 156.199 64.4919C157.985 62.8257 159.408 61.0521 159.783 60.7968C160.857 60.0846 160.683 60.5952 160.683 60.5952C160.307 63.7798 159.139 67.3406 161.354 69.9205C162.468 71.103 164.253 71.318 165.931 70.7805C172.549 68.1334 176.374 62.6914 180.025 57.5853C184.71 57.424 188.576 53.4064 192.227 49.8993C193.918 49.6977 196.267 49.1602 197.1 50.1546C197.247 50.4099 197.207 50.8802 196.804 51.3505C195.516 52.8554 181.435 60.1115 183.207 68.4828C183.703 70.3236 185.435 71.0358 186.415 71.0358C191.663 70.7402 194.039 67.4078 197.502 64.9891C197.408 66.5881 197.261 68.4559 198.442 69.8668C199.14 70.6461 199.838 71.2508 201.623 70.9283C203.006 70.6058 205.435 69.0874 205.596 68.9934C207.905 67.6631 209.972 65.4729 211.838 64.1291C211.704 65.8625 211.583 69.3293 213.462 70.5118C215.945 71.9227 221.194 70.0952 223.583 69.0202C232.496 64.7607 241.382 52.7614 242.671 50.2486C245.074 49.523 247.919 48.4078 248.98 48.7437C250 49.0796 250.161 50.6518 249.691 51.3236C246.147 56.4969 234.456 59.0902 235.006 67.475C235.355 69.8533 237.677 71.0627 240.12 70.9149C245.476 70.5789 249.718 66.4538 253.356 62.4495C254.134 61.4955 257.356 57.9078 256.899 56.8463C256.819 56.6984 256.698 56.8463 256.698 56.8463M219.207 41.0308C218.442 40.2783 216.952 40.5336 215.892 41.622C214.818 42.7104 214.576 44.1885 215.341 44.9544C216.107 45.7069 217.597 45.4516 218.657 44.3632C219.731 43.2882 219.972 41.7967 219.207 41.0308ZM260.201 66.2253C260.161 66.1044 260.094 66.0103 260 65.9432C259.919 65.876 259.799 65.8357 259.664 65.8222C259.517 65.7953 259.356 65.7953 259.168 65.7953C259.154 66.4403 259.141 67.0987 259.141 67.7437C259.168 67.7437 259.195 67.7437 259.221 67.7437C259.248 67.7437 259.275 67.7437 259.302 67.7437C259.611 67.7437 259.852 67.6631 260.027 67.4884C260.201 67.3272 260.282 67.0584 260.282 66.7225C260.282 66.5075 260.255 66.3463 260.215 66.2253M259.154 68.0393V68.335C259.154 68.7381 259.154 69.074 259.168 69.3965C259.168 69.7055 259.195 70.0011 259.208 70.2968C259.127 70.2968 259.033 70.2833 258.94 70.2833H258.295C258.201 70.2833 258.107 70.2833 258.027 70.2968C258.04 70.0011 258.067 69.6921 258.067 69.3965C258.067 69.0874 258.067 68.7381 258.067 68.335V67.3675C258.067 66.9644 258.067 66.615 258.067 66.306C258.067 65.9969 258.04 65.6878 258.027 65.3788C258.107 65.3788 258.201 65.3922 258.295 65.4057C258.389 65.4057 258.497 65.4057 258.617 65.4057C258.738 65.4057 258.886 65.4057 259.06 65.3788C259.221 65.3788 259.423 65.3654 259.664 65.3654C259.852 65.3654 260 65.3654 260.134 65.3788C260.255 65.3788 260.376 65.4057 260.47 65.4191C260.564 65.4325 260.644 65.4594 260.711 65.4997C260.778 65.5266 260.846 65.5669 260.913 65.6072C261.06 65.7147 261.168 65.8491 261.248 65.9969C261.329 66.1581 261.369 66.3328 261.369 66.5478C261.369 66.8972 261.275 67.1794 261.087 67.3944C260.899 67.6093 260.631 67.7706 260.268 67.8647C260.497 68.2678 260.738 68.6709 260.993 69.074C261.262 69.4771 261.517 69.8802 261.785 70.2699C261.678 70.2699 261.57 70.2565 261.463 70.2565H260.819C260.711 70.2565 260.604 70.2565 260.497 70.2699L259.221 68.0125H259.154V68.0393ZM259.718 64.0888C257.691 64.0888 256.04 65.7282 256.04 67.7706C256.04 69.813 257.691 71.4524 259.718 71.4524C261.745 71.4524 263.396 69.813 263.396 67.7706C263.396 65.7282 261.745 64.0888 259.718 64.0888ZM264 67.7572C264 70.1355 262.081 72.057 259.705 72.057C257.329 72.057 255.409 70.1355 255.409 67.7572C255.409 65.3788 257.329 63.4573 259.705 63.4573C262.081 63.4573 264 65.3788 264 67.7572ZM146.387 29.2062C147.112 29.2062 148.159 29.1793 149.568 29.1793H151.407C152.038 29.1793 152.199 29.1256 152.199 28.8568C152.199 27.4997 150.347 25.4975 148.226 25.4975C146.253 25.4975 143.528 27.2444 143.528 30.0527C143.528 32.2967 145.474 34.0435 148.025 34.0435C150.575 34.0435 152.132 32.337 152.132 32.0414C152.132 31.9473 152.038 31.7861 151.958 31.7861C151.877 31.7861 151.73 31.8398 151.569 31.9742C150.884 32.458 150.065 32.7133 149.233 32.7133C148.132 32.7133 145.931 32.1758 145.77 29.2062H146.401H146.387ZM145.716 28.5075C145.958 26.2097 147.649 26.2097 147.85 26.2097C148.924 26.2097 149.824 27.0428 149.824 27.9834C149.824 28.4537 149.622 28.4671 148.414 28.494C147.448 28.5209 146.521 28.5478 145.716 28.5209M133.259 20.7811C134.025 20.6064 134.4 20.4855 135.004 20.1765C135.434 19.9615 135.568 19.9077 135.729 19.9077C135.931 19.9212 135.998 20.0018 135.998 20.3108C135.998 20.7543 135.917 22.7698 135.917 23.1729L135.864 27.1369C136.87 26.0485 137.756 25.605 138.83 25.605C139.595 25.605 140.374 25.9007 140.884 26.3844C141.595 27.0697 141.877 27.9968 141.81 30.1199L141.77 31.692C141.743 32.6192 141.917 32.8879 142.575 33.1701C142.911 33.3045 143.045 33.4254 143.045 33.6001C143.045 33.7882 142.924 33.9226 142.763 33.9226L142.333 33.8823C141.689 33.8285 141.34 33.7613 140.884 33.7613C140.723 33.7613 140.28 33.8017 139.837 33.842C139.407 33.8823 139.018 33.9226 138.911 33.9226C138.669 33.9226 138.508 33.8017 138.508 33.627C138.508 33.4926 138.642 33.3717 138.991 33.1836C139.528 32.8745 139.515 32.4445 139.515 31.7727C139.515 28.8703 139.474 26.8144 137.783 26.8144C136.548 26.8144 135.944 27.8222 135.944 28.0103V32.0145C135.944 32.5654 136.266 32.9417 136.991 33.1432C137.474 33.2776 137.676 33.4254 137.676 33.6404C137.676 33.8151 137.555 33.9092 137.327 33.9092C137.139 33.9092 136.669 33.8688 136.159 33.8285C135.676 33.7882 135.192 33.7479 135.031 33.7479C134.87 33.7479 134.4 33.7882 133.944 33.8017C133.501 33.8151 133.058 33.8688 132.937 33.8688C132.763 33.8688 132.669 33.8151 132.669 33.6807C132.669 33.506 132.749 33.3851 133.031 33.2776C133.635 33.0223 133.783 32.6729 133.743 31.3427L133.702 30.6439V23.7507C133.702 22.098 133.541 21.6142 132.763 21.453C132.508 21.4127 132.4 21.3321 132.4 21.2246C132.4 20.9961 132.602 20.8752 133.273 20.7677M126.467 30.8321C126.467 32.4311 127.071 33.0761 128.561 33.2776C129.058 33.3314 129.246 33.4254 129.246 33.6404C129.246 33.8285 129.085 33.9092 128.803 33.9092C128.709 33.9092 128.575 33.9092 128.333 33.8823C127.528 33.8285 126.843 33.7479 125.957 33.7479C124.816 33.7479 123.702 33.8017 122.789 33.8823C122.534 33.9226 122.387 33.9226 122.293 33.9226C121.957 33.9226 121.796 33.8285 121.796 33.6135C121.796 33.4254 121.984 33.3179 122.494 33.2507C123.783 33.0626 124.038 32.6461 124.038 30.8455V22.5011C124.038 21.883 123.796 21.7083 122.883 21.7083C119.984 21.7083 119.702 22.6758 119.528 23.7104C119.42 24.2479 119.313 24.4629 119.085 24.4629C118.883 24.4629 118.816 24.3688 118.816 24.0598C118.816 22.8236 119.044 21.1842 119.246 20.8886C119.367 20.6871 119.581 20.7139 119.769 20.7274C119.93 20.7274 124.159 20.8483 129.675 20.6468L130.803 20.6064C131.367 20.593 131.38 20.6871 131.488 20.9961C131.595 21.3052 131.689 22.3667 131.689 23.0251C131.689 23.5492 131.635 23.7373 131.434 23.7373C131.273 23.7373 131.152 23.5895 131.031 23.2132C130.629 21.9905 130.145 21.7083 128.575 21.7083C126.508 21.7083 126.454 21.8292 126.454 24.2345V30.8321H126.467Z" fill="black"/>
<path d="M66.3595 88.9737H66.3058C65.5675 90.8549 64.9098 92.763 64.2252 94.5904H68.3058L66.3595 88.9737ZM68.5609 101.201V100.422C70.024 100.207 70.1985 99.9653 69.8226 98.9172C69.5542 98.111 69.1381 96.9554 68.6951 95.7863H63.836C63.5138 96.6732 63.1782 97.6138 62.8829 98.5947C62.4668 99.9115 62.5876 100.234 64.3729 100.422V101.201H58.9902V100.422C60.5742 100.234 60.8963 99.9787 61.7151 97.8825L66.7488 85.2517L67.8226 84.9561C69.3663 89.2022 70.8965 93.5961 72.4804 97.8019C73.2858 99.9518 73.6079 100.247 75.165 100.422V101.201H68.5609Z" fill="black"/>
<path d="M88.118 101.203V100.584C89.4334 100.45 89.5408 100.316 89.514 98.7032L89.4737 91.9444H89.3798L85.5005 101.068H85.0038L81.4333 92.1191H81.3662L81.1514 96.7011C81.0843 98.1523 81.0843 98.9854 81.1514 99.5229C81.2185 100.316 81.5675 100.463 82.7353 100.571V101.189H78.5205V100.571C79.5004 100.49 79.836 100.168 79.9434 99.5498C80.0507 98.9854 80.185 98.0717 80.3192 96.2442L80.6011 92.7775C80.7353 90.7754 80.6145 90.5335 79.1111 90.3857V89.7676H82.7353L86.118 97.4536L89.5543 89.7676H93.0711V90.3857C91.6751 90.5335 91.5946 90.6679 91.6348 92.1191L91.7959 98.6898C91.8362 100.302 91.9167 100.423 93.2859 100.571V101.189H88.0911L88.118 101.203Z" fill="black"/>
<path d="M105.715 98.2862C105.608 99.079 105.246 100.678 105.098 101.202H96.1582V100.584C97.6482 100.463 97.8227 100.355 97.8227 98.864V92.132C97.8227 90.6002 97.6482 90.5195 96.3998 90.412V89.7939H104.655C104.668 90.103 104.762 91.3392 104.829 92.4276L104.199 92.5217C104.024 91.9036 103.796 91.3258 103.474 91.0167C103.178 90.6942 102.709 90.5733 101.715 90.5733H100.87C100.225 90.5733 100.145 90.6136 100.145 91.1914V94.9135H101.326C102.803 94.9135 103.031 94.8329 103.272 93.5966H103.903V97.144H103.272C103.031 95.8809 102.816 95.8138 101.326 95.8138H100.145V98.8505C100.145 99.6702 100.212 100.114 100.561 100.288C100.87 100.423 101.474 100.463 102.145 100.463C103.044 100.463 103.675 100.342 104.091 99.8986C104.427 99.5089 104.736 98.9446 105.071 98.1787L105.689 98.2996L105.715 98.2862Z" fill="black"/>
<path d="M112.682 95.6124C113.42 95.6124 114.011 95.4915 114.4 95.1421C114.991 94.645 115.246 93.9462 115.246 93.0459C115.246 91.1782 114.158 90.5063 113.179 90.5063C112.736 90.5063 112.494 90.5735 112.387 90.681C112.266 90.7885 112.225 90.9632 112.225 91.326V95.599H112.682V95.6124ZM119.273 101.364C119.165 101.364 118.95 101.35 118.749 101.35C116.534 101.243 115.863 100.759 115.152 99.6436C114.695 98.9314 114.226 97.9774 113.715 97.0636C113.434 96.5261 113.125 96.3112 112.561 96.2977H112.225V98.8642C112.225 100.302 112.4 100.477 113.715 100.598V101.216H108.427V100.598C109.742 100.477 109.93 100.302 109.93 98.8642V92.1322C109.93 90.7348 109.769 90.5467 108.494 90.4257V89.8076H113.42C114.95 89.8076 115.836 89.9823 116.534 90.4795C117.232 90.9363 117.729 91.7291 117.729 92.8175C117.729 94.3628 116.709 95.1824 115.541 95.6796C115.783 96.1902 116.454 97.3592 116.964 98.1655C117.595 99.1329 117.971 99.6973 118.32 100.06C118.709 100.463 118.991 100.678 119.393 100.813L119.286 101.377L119.273 101.364Z" fill="black"/>
<path d="M121.931 101.202V100.584C123.233 100.463 123.38 100.342 123.38 98.864V92.1454C123.38 90.6539 123.219 90.533 121.931 90.412V89.7939H127.192V90.412C125.89 90.533 125.743 90.6539 125.743 92.1454V98.864C125.743 100.342 125.904 100.463 127.192 100.584V101.202H121.931Z" fill="black"/>
<path d="M141.205 98.2184C140.977 99.065 140.521 100.395 140.225 101.013C139.769 101.121 138.158 101.47 136.964 101.47C132.306 101.47 130.359 98.4334 130.359 95.6385C130.359 92.0374 133.125 89.5381 137.313 89.5381C138.735 89.5381 140.024 89.9009 140.507 90.0084C140.668 90.9759 140.789 91.7821 140.91 92.8839L140.266 93.0049C139.688 90.9087 138.333 90.304 136.99 90.304C134.453 90.304 133.044 92.7092 133.044 95.2892C133.044 98.5141 134.776 100.637 137.165 100.637C138.615 100.637 139.715 99.71 140.601 97.9363L141.219 98.2184H141.205Z" fill="black"/>
<path d="M148.937 92.7495H148.884C148.4 94.0261 147.958 95.2892 147.501 96.5388H150.239L148.937 92.7495ZM150.427 101.215V100.597C151.461 100.436 151.555 100.234 151.273 99.4547C151.098 98.9306 150.83 98.1916 150.575 97.466H147.206C147.018 98.0169 146.79 98.6484 146.575 99.3472C146.333 100.18 146.36 100.436 147.649 100.583V101.201H143.716V100.583C144.884 100.449 145.098 100.247 145.676 98.7828L149.273 89.7665L150.172 89.5381C151.3 92.6017 152.387 95.6654 153.515 98.6753C154.105 100.221 154.333 100.449 155.448 100.583V101.201H150.441L150.427 101.215Z" fill="black"/>
<path d="M159.408 85.9512C160.321 85.9512 161.529 86.7843 161.529 88.2086C161.529 89.8345 160.012 90.7751 158.576 91.1782L158.334 90.5332C159.341 90.0763 159.891 89.4717 159.891 88.773C159.891 88.0742 159.381 87.6174 158.616 87.4696C158.549 87.4561 158.361 87.2546 158.361 86.8111C158.361 86.314 158.898 85.9512 159.381 85.9512H159.408Z" fill="black"/>
<path d="M171.247 92.6562C170.884 91.5544 170.226 90.251 168.79 90.251C167.81 90.251 167.085 90.99 167.085 91.9844C167.085 92.9787 167.716 93.5162 169.26 94.2821C171.099 95.1824 172.361 96.1633 172.361 97.8967C172.361 99.8988 170.656 101.458 168.092 101.458C167.461 101.458 166.857 101.363 166.32 101.216C165.824 101.081 165.501 100.933 165.246 100.826C165.085 100.396 164.857 98.9179 164.736 97.8429L165.354 97.6548C165.703 98.7835 166.736 100.745 168.428 100.745C169.502 100.745 170.186 100.006 170.186 98.9045C170.186 97.8698 169.421 97.2248 168.092 96.5127C166.293 95.599 165.045 94.6449 165.045 92.9653C165.045 91.0304 166.575 89.5254 169.059 89.5254C170.186 89.5254 171.179 89.8748 171.502 89.9957C171.569 90.6407 171.689 91.42 171.837 92.5084L171.247 92.6562Z" fill="black"/>
<path d="M187.529 93.4483C188.629 93.4483 189.435 93.2736 190.012 92.7898C190.871 92.0777 191.234 91.1102 191.234 89.8337C191.234 87.2 189.65 86.246 188.106 86.246C187.448 86.246 187.086 86.34 186.911 86.4879C186.737 86.6357 186.697 86.9044 186.697 87.4688V93.4483H187.529ZM196.603 101.43C196.401 101.43 196.133 101.403 195.851 101.403C193.22 101.282 192.267 100.637 191.22 99.0918C190.509 98.0169 189.784 96.6194 189.072 95.3832C188.656 94.671 188.24 94.362 187.274 94.362H186.71V98.0437C186.71 100.073 186.925 100.288 188.804 100.436V101.215H181.811V100.436C183.69 100.288 183.931 100.073 183.931 98.0437V88.49C183.931 86.4879 183.717 86.2863 181.905 86.1251V85.3457H188.442C190.468 85.3457 191.677 85.5607 192.63 86.2191C193.609 86.8775 194.267 87.9525 194.267 89.4709C194.267 91.5939 192.898 92.8167 191.193 93.5289C191.583 94.2814 192.536 95.8938 193.274 97.0225C194.133 98.3394 194.643 99.0784 195.18 99.6293C195.744 100.234 196.2 100.53 196.764 100.704L196.616 101.43H196.603Z" fill="black"/>
<path d="M209.328 98.2862C209.22 99.079 208.858 100.678 208.71 101.202H199.771V100.584C201.26 100.463 201.435 100.355 201.435 98.864V92.132C201.435 90.6002 201.26 90.5195 200.012 90.412V89.7939H208.267C208.281 90.103 208.375 91.3392 208.442 92.4276L207.811 92.5217C207.636 91.9036 207.408 91.3258 207.086 91.0167C206.791 90.6942 206.321 90.5733 205.341 90.5733H204.495C203.851 90.5733 203.771 90.6136 203.771 91.1914V94.9135H204.952C206.428 94.9135 206.657 94.8329 206.898 93.5966H207.529V97.144H206.898C206.643 95.8809 206.442 95.8138 204.952 95.8138H203.771V98.8505C203.771 99.6702 203.838 100.114 204.2 100.288C204.509 100.423 205.113 100.463 205.771 100.463C206.67 100.463 207.301 100.342 207.717 99.8986C208.053 99.5089 208.361 98.9446 208.697 98.1787L209.314 98.2996L209.328 98.2862Z" fill="black"/>
<path d="M218.563 92.6562C218.187 91.5544 217.543 90.251 216.107 90.251C215.127 90.251 214.402 90.99 214.402 91.9844C214.402 92.9787 215.033 93.5162 216.577 94.2821C218.416 95.1824 219.677 96.1633 219.677 97.8967C219.677 99.8988 217.973 101.458 215.422 101.458C214.791 101.458 214.174 101.363 213.65 101.216C213.167 101.081 212.832 100.933 212.576 100.826C212.415 100.396 212.187 98.9179 212.066 97.8429L212.684 97.6548C213.033 98.7835 214.066 100.745 215.758 100.745C216.832 100.745 217.516 100.006 217.516 98.9045C217.516 97.8698 216.738 97.2248 215.422 96.5127C213.61 95.599 212.375 94.6449 212.375 92.9653C212.375 91.0304 213.905 89.5254 216.389 89.5254C217.516 89.5254 218.509 89.8748 218.832 89.9957C218.899 90.6407 219.02 91.42 219.167 92.5084L218.577 92.6562H218.563Z" fill="black"/>
<path d="M228.724 90.2774C226.966 90.2774 225.583 92.1585 225.583 95.1953C225.583 98.2321 226.912 100.745 229.154 100.745C230.818 100.745 232.174 99.119 232.174 95.8806C232.174 92.387 230.751 90.2774 228.737 90.2774H228.724ZM229.073 89.5518C232.241 89.5518 234.858 91.9032 234.858 95.3834C234.858 99.1727 232.147 101.47 228.845 101.47C225.341 101.47 222.898 98.8905 222.898 95.5178C222.898 92.4945 225.033 89.5518 229.046 89.5518H229.06H229.073Z" fill="black"/>
<path d="M242.16 95.6124C242.899 95.6124 243.489 95.4915 243.879 95.1421C244.469 94.645 244.711 93.9462 244.711 93.0459C244.711 91.1782 243.623 90.5063 242.644 90.5063C242.214 90.5063 241.959 90.5735 241.852 90.681C241.731 90.7885 241.691 90.9632 241.691 91.326V95.599H242.147L242.16 95.6124ZM248.751 101.364C248.644 101.364 248.429 101.35 248.228 101.35C246.026 101.243 245.342 100.759 244.63 99.6436C244.174 98.9314 243.704 97.9774 243.194 97.0636C242.912 96.5261 242.603 96.3112 242.04 96.2977H241.704V98.8642C241.704 100.302 241.879 100.477 243.194 100.598V101.216H237.905V100.598C239.221 100.477 239.409 100.302 239.409 98.8642V92.1322C239.409 90.7348 239.248 90.5467 237.972 90.4257V89.8076H242.899C244.429 89.8076 245.315 89.9823 246.013 90.4795C246.711 90.9363 247.207 91.7291 247.207 92.8175C247.207 94.3628 246.187 95.1824 245.019 95.6796C245.261 96.1902 245.932 97.3592 246.442 98.1655C247.073 99.1329 247.436 99.6973 247.785 100.06C248.174 100.463 248.456 100.678 248.858 100.813L248.751 101.377V101.364Z" fill="black"/>
<path d="M260.349 92.8041C260.134 91.8904 259.893 91.3126 259.57 90.9901C259.275 90.6677 258.819 90.5736 257.799 90.5736H256.993V98.8777C256.993 100.369 257.168 100.477 258.711 100.598V101.216H252.993V100.598C254.47 100.477 254.644 100.369 254.644 98.8777V90.5736H254.054C252.617 90.5736 252.295 90.7617 252.04 91.0439C251.758 91.3395 251.53 91.9442 251.302 92.8176H250.671C250.738 91.5411 250.845 90.2645 250.886 89.3643H251.302C251.584 89.7674 251.812 89.8077 252.295 89.8077H259.342C259.812 89.8077 260.067 89.7002 260.362 89.3643H260.778C260.792 90.1033 260.886 91.6486 260.966 92.7638L260.335 92.8041H260.349Z" fill="black"/>
</svg>
