<svg width="22" height="22" viewBox="0 0 22 22" fill="none" xmlns="http://www.w3.org/2000/svg">
<path d="M6.99802 5.24654C6.99802 4.22541 6.16727 3.39466 5.14614 3.39466C4.12501 3.39466 3.29422 4.22541 3.29422 5.24654C3.29422 6.26767 4.12497 7.09842 5.1461 7.09842C6.16723 7.09842 6.99802 6.26767 6.99802 5.24654ZM5.1461 5.92786C4.7704 5.92786 4.46478 5.62224 4.46478 5.24654C4.46478 4.87084 4.7704 4.56522 5.1461 4.56522C5.5218 4.56522 5.82742 4.87084 5.82742 5.24654C5.82742 5.62224 5.5218 5.92786 5.1461 5.92786Z" fill="black"/>
<path d="M20.9995 10.7235C20.9903 10.4929 20.8463 10.2892 20.6321 10.2035L14.4107 7.71491C14.2303 7.64282 14.026 7.66481 13.8652 7.77366C13.7043 7.88251 13.608 8.06408 13.608 8.25832V16.8425C12.8927 17.0539 12.3381 17.6424 12.175 18.377H3.8963C3.27227 18.377 2.76455 17.8693 2.76455 17.2452C2.76455 16.6212 3.27227 16.1135 3.8963 16.1135H9.1924C10.3966 16.1135 11.3762 15.1338 11.3762 13.9296C11.3762 12.7255 10.3966 11.7458 9.1924 11.7458H6.17821L8.69632 7.53583C9.12311 6.82233 9.3487 6.00572 9.3487 5.17433C9.3487 2.87261 7.47609 1 5.17437 1C2.87265 1 1 2.87257 1 5.17429V5.18922C1 6.00943 1.21999 6.81661 1.63615 7.52339L4.64178 12.628C4.73554 12.7787 4.90835 12.9178 5.14413 12.9163H9.19244C9.75117 12.9163 10.2057 13.3709 10.2057 13.9296C10.2057 14.4883 9.75117 14.9429 9.19244 14.9429H3.8963C2.6268 14.9429 1.59395 15.9757 1.59395 17.2452C1.59395 18.5147 2.6268 19.5476 3.8963 19.5476H12.256C12.5496 20.3324 13.307 20.8927 14.193 20.8927C15.333 20.8927 16.2604 19.9653 16.2604 18.8252C16.2604 17.8886 15.6342 17.096 14.7786 16.8428V14.198L20.6749 11.2713C20.8816 11.1686 21.0088 10.9541 20.9995 10.7235ZM2.64484 6.92944C2.33457 6.40246 2.17056 5.80069 2.17056 5.18918V5.17425C2.17056 3.518 3.51804 2.17048 5.17433 2.17048C6.83062 2.17048 8.1781 3.518 8.1781 5.17425C8.1781 5.7941 8.00991 6.40289 7.69174 6.93489L5.15009 11.1842L2.64484 6.92944ZM15.0898 18.8252C15.0898 19.3197 14.6874 19.722 14.193 19.722C13.6985 19.722 13.2961 19.3197 13.2961 18.8252C13.2961 18.3313 13.6975 17.9294 14.1912 17.9284L14.1933 17.9285L14.1952 17.9284C14.6887 17.9296 15.0898 18.3314 15.0898 18.8252ZM14.7786 12.8911V9.12283L18.9825 10.8044L14.7786 12.8911Z" fill="black"/>
</svg>
