<svg width="32" height="32" viewBox="0 0 32 32" fill="none" xmlns="http://www.w3.org/2000/svg">
<path fill-rule="evenodd" clip-rule="evenodd" d="M4.5 4.5V12.932H12.9206V4.5H4.5ZM3.5 4.48C3.5 3.93933 3.93793 3.5 4.47942 3.5H12.9412C13.4826 3.5 13.9206 3.93933 13.9206 4.48V12.952C13.9206 13.4927 13.4826 13.932 12.9412 13.932H4.47942C3.93793 13.932 3.5 13.4927 3.5 12.952V4.48Z" fill="black"/>
<path fill-rule="evenodd" clip-rule="evenodd" d="M19.0791 4.5V12.932H27.4997V4.5H19.0791ZM18.0791 4.48C18.0791 3.93933 18.517 3.5 19.0585 3.5H27.5203C28.0617 3.5 28.4997 3.93933 28.4997 4.48V12.952C28.4997 13.4927 28.0617 13.932 27.5203 13.932H19.0585C18.517 13.932 18.0791 13.4927 18.0791 12.952V4.48Z" fill="black"/>
<path fill-rule="evenodd" clip-rule="evenodd" d="M4.5 19.0684V27.5004H12.9206V19.0684H4.5ZM3.5 19.0484C3.5 18.5077 3.93793 18.0684 4.47942 18.0684H12.9412C13.4826 18.0684 13.9206 18.5077 13.9206 19.0484V27.5204C13.9206 28.061 13.4826 28.5004 12.9412 28.5004H4.47942C3.93793 28.5004 3.5 28.061 3.5 27.5204V19.0484Z" fill="black"/>
<path fill-rule="evenodd" clip-rule="evenodd" d="M19.0791 19.0684V27.5004H27.4997V19.0684H19.0791ZM18.0791 19.0484C18.0791 18.5077 18.517 18.0684 19.0585 18.0684H27.5203C28.0617 18.0684 28.4997 18.5077 28.4997 19.0484V27.5204C28.4997 28.061 28.0617 28.5004 27.5203 28.5004H19.0585C18.517 28.5004 18.0791 28.061 18.0791 27.5204V19.0484Z" fill="black"/>
</svg>
