<svg width="22" height="22" viewBox="0 0 22 22" fill="none" xmlns="http://www.w3.org/2000/svg">
<path fill-rule="evenodd" clip-rule="evenodd" d="M12.7275 10.9332L10.7559 12.9049L9.27241 11.4214L10.1011 10.5927L10.7559 11.2475L11.8988 10.1046L12.7275 10.9332Z" fill="black"/>
<path fill-rule="evenodd" clip-rule="evenodd" d="M11 8.55235C9.47931 8.55235 8.24656 9.7851 8.24656 11.3058C8.24656 12.8264 9.47931 14.0592 11 14.0592C12.5207 14.0592 13.7534 12.8264 13.7534 11.3058C13.7534 9.7851 12.5206 8.55235 11 8.55235ZM7.07466 11.3058C7.07466 9.13787 8.83209 7.38045 11 7.38045C13.1679 7.38045 14.9253 9.13787 14.9253 11.3058C14.9253 13.4737 13.1679 15.2311 11 15.2311C8.83209 15.2311 7.07466 13.4737 7.07466 11.3058Z" fill="black"/>
<path fill-rule="evenodd" clip-rule="evenodd" d="M10.3704 1H11.6296L14.6382 6.30247L20.6109 7.5253L21 8.72289L16.8867 13.2228L17.5694 19.281L16.5507 20.0211L11 17.4998L5.44924 20.0211L4.43055 19.281L5.11323 13.2228L1 8.72289L1.38908 7.5253L7.36175 6.30247L10.3704 1ZM11 2.26507L8.11831 7.34379L2.39769 8.51501L6.33737 12.8251L5.6835 18.6276L11 16.2127L16.3165 18.6276L15.6626 12.8251L19.6023 8.51501L13.8817 7.34379L11 2.26507Z" fill="black"/>
</svg>
