<svg width="20" height="20" viewBox="0 0 20 20" fill="none" xmlns="http://www.w3.org/2000/svg">
<path d="M17.6877 19H6.70742C5.92118 19 5.17831 18.3274 5.02106 17.4705L3.19915 5.06596C3.11239 4.61035 3.22084 4.14931 3.49738 3.81846C3.74138 3.52014 4.09384 3.35742 4.48967 3.35742H14.5102C15.2965 3.35742 16.0393 4.02999 16.202 4.88697L18.9674 17.2535C19.0596 17.7471 18.9511 18.2081 18.6746 18.539C18.4306 18.8373 18.0781 19 17.6823 19H17.6877ZM4.48967 4.44763C4.41918 4.44763 4.37038 4.46933 4.33242 4.51814C4.26735 4.5995 4.24024 4.74052 4.27278 4.89239L6.09469 17.2969C6.15976 17.644 6.47426 17.9207 6.71284 17.9207H17.6877C17.7582 17.9207 17.807 17.899 17.845 17.8501C17.91 17.7688 17.9372 17.6278 17.9046 17.4759L15.1392 5.10935C15.0687 4.72425 14.7488 4.44763 14.5102 4.44763H4.48967Z" fill="black"/>
<path d="M7.28237 19H1.31776C0.921928 19 0.569474 18.8372 0.325467 18.5389C0.0489262 18.2081 -0.0595213 17.747 0.032659 17.2752L2.80349 4.87064C2.96074 4.03536 3.69818 3.36279 4.48985 3.36279C4.78808 3.36279 5.03209 3.60687 5.03209 3.90519C5.03209 4.2035 4.78808 4.44758 4.48985 4.44758C4.25127 4.44758 3.93677 4.7242 3.86628 5.0876L1.09002 17.4921C1.06291 17.6277 1.09002 17.7687 1.15509 17.8447C1.19305 17.8935 1.24727 17.9152 1.31234 17.9152H7.27695C7.57518 17.9152 7.81919 18.1593 7.81919 18.4576C7.81919 18.7559 7.57518 19 7.27695 19H7.28237Z" fill="black"/>
<path d="M12.3574 6.54673C12.1134 6.54673 11.8911 6.37859 11.8314 6.12909L11.1482 3.27068C10.8825 2.07742 9.72754 1.07941 8.62138 1.07941C8.16047 1.07941 7.76464 1.25298 7.50979 1.57299C7.21156 1.94182 7.11938 2.45709 7.24409 3.0266L7.92731 5.87416C7.9978 6.16705 7.81887 6.45994 7.52606 6.53046C7.23325 6.60097 6.94044 6.42198 6.86995 6.12909L6.18673 3.27068C5.99152 2.37573 6.16504 1.51333 6.6639 0.895C7.13022 0.31464 7.82429 -0.00537109 8.62138 -0.00537109C10.2535 -0.00537109 11.8314 1.32891 12.2056 3.0266L12.8888 5.87416C12.9593 6.16705 12.7803 6.45994 12.4875 6.53046C12.4442 6.5413 12.4008 6.54673 12.3628 6.54673H12.3574Z" fill="black"/>
</svg>
