<svg width="22" height="22" viewBox="0 0 22 22" fill="none" xmlns="http://www.w3.org/2000/svg">
<path fill-rule="evenodd" clip-rule="evenodd" d="M6.89844 10.9609C6.89844 13.2232 8.73776 15.0625 11 15.0625C13.2622 15.0625 15.1016 13.2232 15.1016 10.9609C15.1016 8.6987 13.2622 6.85938 11 6.85938C8.73776 6.85938 6.89844 8.6987 6.89844 10.9609ZM11 13.8906C9.38497 13.8906 8.07031 12.576 8.07031 10.9609C8.07031 9.34591 9.38497 8.03125 11 8.03125C12.615 8.03125 13.9297 9.34591 13.9297 10.9609C13.9297 12.576 12.615 13.8906 11 13.8906Z" fill="black"/>
<path fill-rule="evenodd" clip-rule="evenodd" d="M1 5.88282C1 6.20642 1.26233 6.46875 1.58594 6.46875H6.27344C6.59704 6.46875 6.85938 6.20642 6.85938 5.88282V1.58594C6.85938 1.26234 6.59704 1 6.27344 1C5.94983 1 5.6875 1.26234 5.6875 1.58594V5.29688H2.17187V1.58594C2.17187 1.26234 1.90954 1 1.58594 1C1.26233 1 1 1.26234 1 1.58594V5.88282Z" fill="black"/>
<path fill-rule="evenodd" clip-rule="evenodd" d="M3.92969 6.46875C4.25329 6.46875 4.51562 6.20642 4.51562 5.88282V1.58594C4.51562 1.26234 4.25329 1 3.92969 1C3.60608 1 3.34375 1.26234 3.34375 1.58594V5.88282C3.34375 6.20642 3.60608 6.46875 3.92969 6.46875Z" fill="black"/>
<path fill-rule="evenodd" clip-rule="evenodd" d="M19.2422 19.8281C18.9186 19.8281 18.6562 19.5658 18.6562 19.2422V14.6719H19.8281V19.2422C19.8281 19.5658 19.5658 19.8281 19.2422 19.8281ZM17.4844 19.2422C17.4844 20.213 18.2714 21 19.2422 21C20.213 21 21 20.213 21 19.2422V14.0859C21 13.7623 20.7377 13.5 20.4141 13.5H18.0703C17.7467 13.5 17.4844 13.7623 17.4844 14.0859V19.2422Z" fill="black"/>
<path fill-rule="evenodd" clip-rule="evenodd" d="M4.61034 15.1083C5.96768 17.1955 8.32204 18.5781 11 18.5781C14.1247 18.5781 16.8081 16.6965 17.9828 14.0073C18.1124 13.7108 17.977 13.3654 17.6804 13.2358C17.3839 13.1063 17.0385 13.2417 16.9089 13.5382C15.9139 15.8161 13.6421 17.4063 11 17.4063C8.73527 17.4063 6.74315 16.2384 5.59275 14.4694C5.41633 14.1981 5.0534 14.1212 4.78211 14.2976C4.51083 14.4741 4.43392 14.837 4.61034 15.1083Z" fill="black"/>
<path fill-rule="evenodd" clip-rule="evenodd" d="M17.5516 8.33814C17.8409 8.19312 17.9579 7.84104 17.8129 7.55175C16.5627 5.05794 13.9823 3.34375 11 3.34375C8.95604 3.34375 7.09926 4.1497 5.73167 5.45968C5.49798 5.68353 5.49 6.05444 5.71385 6.28813C5.93769 6.52182 6.3086 6.5298 6.5423 6.30595C7.70057 5.19648 9.27012 4.51563 11 4.51563C13.5218 4.51563 15.706 5.96402 16.7652 8.07693C16.9103 8.36621 17.2624 8.48317 17.5516 8.33814Z" fill="black"/>
<path fill-rule="evenodd" clip-rule="evenodd" d="M3.92969 19.8281C3.6061 19.8281 3.34375 19.5658 3.34375 19.2422V8.61719C3.34375 8.42128 3.24584 8.23834 3.08284 8.12966C2.52518 7.75788 2.18573 7.13712 2.17229 6.46875H5.68709C5.67365 7.13712 5.33419 7.75788 4.77654 8.12966C4.61353 8.23834 4.51563 8.42128 4.51563 8.61719V19.2422C4.51563 19.5658 4.25327 19.8281 3.92969 19.8281ZM2.17188 19.2422C2.17188 20.213 2.9589 21 3.92969 21C4.90048 21 5.6875 20.213 5.6875 19.2422V8.91109C6.42514 8.30363 6.85938 7.39432 6.85938 6.4275V5.88282C6.85938 5.55921 6.59704 5.29688 6.27344 5.29688H1.58594C1.26233 5.29688 1 5.55921 1 5.88282V6.4275C1 7.39432 1.43423 8.30363 2.17188 8.91109V19.2422Z" fill="black"/>
<path fill-rule="evenodd" clip-rule="evenodd" d="M16.7031 13.3047C16.7031 14.0598 17.3152 14.6719 18.0703 14.6719H20.4141C20.7377 14.6719 21 14.4095 21 14.0859L21 1.58594C21 1.39377 20.9058 1.21381 20.7478 1.10435C20.5899 0.994883 20.3883 0.969833 20.2083 1.03731C18.0999 1.82795 16.7031 3.84353 16.7031 6.09532V13.3047ZM18.0703 13.5C17.9624 13.5 17.875 13.4126 17.875 13.3047V6.09532C17.875 4.63202 18.6282 3.29611 19.8281 2.53006V13.5H18.0703Z" fill="black"/>
</svg>
