<svg width="22" height="22" viewBox="0 0 22 22" fill="none" xmlns="http://www.w3.org/2000/svg">
<path fill-rule="evenodd" clip-rule="evenodd" d="M15.7352 4.01188C13.0519 1.32937 8.69521 1.32937 6.01188 4.01188C3.32937 6.69521 3.32937 11.0519 6.01188 13.7352C8.69521 16.4177 13.0519 16.4177 15.7352 13.7352C18.4177 11.0519 18.4177 6.69521 15.7352 4.01188ZM14.851 4.89604C17.046 7.09104 17.046 10.656 14.851 12.851C12.656 15.046 9.09104 15.046 6.89604 12.851C4.70104 10.656 4.70104 7.09104 6.89604 4.89604C9.09104 2.70104 12.656 2.70104 14.851 4.89604Z" fill="black"/>
<path fill-rule="evenodd" clip-rule="evenodd" d="M15.496 15.0402C14.2085 16.0085 12.6077 16.5819 10.8735 16.5819C9.13938 16.5819 7.53854 16.0085 6.25104 15.0402C5.97521 14.8335 5.58271 14.8894 5.37521 15.1652C5.16854 15.4402 5.22437 15.8327 5.50021 16.0402C6.99771 17.1652 8.85854 17.8319 10.8735 17.8319C12.8885 17.8319 14.7494 17.1652 16.2469 16.0402C16.5227 15.8327 16.5785 15.4402 16.3719 15.1652C16.1644 14.8894 15.7719 14.8335 15.496 15.0402Z" fill="black"/>
<path fill-rule="evenodd" clip-rule="evenodd" d="M10.2485 17.2069V19.2902C10.2485 19.6352 10.5285 19.9152 10.8735 19.9152C11.2185 19.9152 11.4985 19.6352 11.4985 19.2902V17.2069C11.4985 16.8619 11.2185 16.5819 10.8735 16.5819C10.5285 16.5819 10.2485 16.8619 10.2485 17.2069Z" fill="black"/>
<path fill-rule="evenodd" clip-rule="evenodd" d="M12.936 5.04354C13.1802 5.28771 13.1802 5.68354 12.936 5.92688C12.6919 6.17104 12.296 6.17104 12.0519 5.92688C11.8085 5.68354 11.8085 5.28771 12.0519 5.04354C12.296 4.79938 12.6919 4.79938 12.936 5.04354Z" fill="black"/>
<path fill-rule="evenodd" clip-rule="evenodd" d="M10.8735 5.33771C11.1177 5.58188 11.1177 5.97771 10.8735 6.22188C10.6294 6.46604 10.2335 6.46604 9.98938 6.22188C9.74604 5.97771 9.74604 5.58188 9.98938 5.33771C10.2335 5.09438 10.6294 5.09438 10.8735 5.33771Z" fill="black"/>
<path fill-rule="evenodd" clip-rule="evenodd" d="M14.7035 6.81104C14.9477 7.05521 14.9477 7.45104 14.7035 7.69521C14.4594 7.93854 14.0635 7.93854 13.8202 7.69521C13.576 7.45104 13.576 7.05521 13.8202 6.81104C14.0635 6.56688 14.4594 6.56688 14.7035 6.81104Z" fill="black"/>
<path fill-rule="evenodd" clip-rule="evenodd" d="M12.641 7.10604C12.8852 7.34938 12.8852 7.74604 12.641 7.98938C12.3977 8.23354 12.001 8.23354 11.7577 7.98938C11.5135 7.74604 11.5135 7.34938 11.7577 7.10604C12.001 6.86188 12.3977 6.86188 12.641 7.10604Z" fill="black"/>
<path fill-rule="evenodd" clip-rule="evenodd" d="M14.4094 8.87354C14.6527 9.11771 14.6527 9.51354 14.4094 9.75771C14.1652 10.001 13.7694 10.001 13.5252 9.75771C13.281 9.51354 13.281 9.11771 13.5252 8.87354C13.7694 8.62937 14.1652 8.62937 14.4094 8.87354Z" fill="black"/>
</svg>
