<svg width="22" height="22" viewBox="0 0 22 22" fill="none" xmlns="http://www.w3.org/2000/svg">
<path fill-rule="evenodd" clip-rule="evenodd" d="M3.47339 9.98359C3.797 9.98359 4.05933 9.72126 4.05933 9.39766V4.98332C4.05933 4.53526 4.42264 4.17188 4.87101 4.17188H17.129C17.5774 4.17188 17.9407 4.53526 17.9407 4.98332V9.39766C17.9407 9.72126 18.203 9.98359 18.5266 9.98359C18.8502 9.98359 19.1126 9.72126 19.1126 9.39766V4.98332C19.1126 3.88786 18.2244 3 17.129 3H4.87101C3.77562 3 2.88745 3.88786 2.88745 4.98332V9.39766C2.88745 9.72126 3.14979 9.98359 3.47339 9.98359Z" fill="black"/>
<path fill-rule="evenodd" clip-rule="evenodd" d="M1 16.9148C1 17.6394 1.58743 18.2268 2.31203 18.2268H19.688C20.4126 18.2268 21 17.6394 21 16.9148V12.4623C21 11.7378 20.4126 11.1503 19.688 11.1503H2.31203C1.58743 11.1503 1 11.7377 1 12.4623V16.9148ZM2.31203 17.0549C2.2346 17.0549 2.17187 16.9921 2.17187 16.9148V12.4623C2.17187 12.385 2.2346 12.3222 2.31203 12.3222H19.688C19.7654 12.3222 19.8281 12.3849 19.8281 12.4623V16.9148C19.8281 16.9922 19.7654 17.0549 19.688 17.0549H2.31203Z" fill="black"/>
<path fill-rule="evenodd" clip-rule="evenodd" d="M2.56216 12.3222C2.88576 12.3222 3.14809 12.0599 3.14809 11.7363V10.8139C3.14809 10.3554 3.51986 9.98358 3.97864 9.98358H18.0214C18.4802 9.98358 18.8519 10.3554 18.8519 10.8139V11.7363C18.8519 12.0599 19.1143 12.3222 19.4379 12.3222C19.7615 12.3222 20.0238 12.0599 20.0238 11.7363V10.8139C20.0238 9.70805 19.1272 8.8117 18.0214 8.8117H3.97864C2.87282 8.8117 1.97622 9.70805 1.97622 10.8139V11.7363C1.97622 12.0599 2.23855 12.3222 2.56216 12.3222Z" fill="black"/>
<path fill-rule="evenodd" clip-rule="evenodd" d="M6.14615 8.81172C6.07003 8.81172 6.0085 8.75006 6.0085 8.67418V7.78246C6.0085 7.70664 6.07 7.64496 6.14615 7.64496H9.29256C9.36865 7.64496 9.43018 7.70662 9.43018 7.78246V8.67418C9.43018 8.75008 9.36863 8.81172 9.29256 8.81172C8.96895 8.81172 8.70662 9.07405 8.70662 9.39766C8.70662 9.72126 8.96895 9.98359 9.29256 9.98359C10.0157 9.98359 10.6021 9.39742 10.6021 8.67418V7.78246C10.6021 7.05924 10.0157 6.47309 9.29256 6.47309H6.14615C5.423 6.47309 4.83662 7.05922 4.83662 7.78246V8.67418C4.83662 9.39744 5.42298 9.98359 6.14615 9.98359C6.46976 9.98359 6.73209 9.72126 6.73209 9.39766C6.73209 9.07405 6.46976 8.81172 6.14615 8.81172Z" fill="black"/>
<path fill-rule="evenodd" clip-rule="evenodd" d="M12.7075 8.81172C12.6314 8.81172 12.5698 8.75004 12.5698 8.67418V7.78246C12.5698 7.70666 12.6314 7.64496 12.7075 7.64496H15.8539C15.93 7.64496 15.9915 7.70662 15.9915 7.78246V8.67418C15.9915 8.75008 15.93 8.81172 15.8539 8.81172C15.5303 8.81172 15.268 9.07405 15.268 9.39766C15.268 9.72126 15.5303 9.98359 15.8539 9.98359C16.577 9.98359 17.1634 9.39742 17.1634 8.67418V7.78246C17.1634 7.05924 16.577 6.47309 15.8539 6.47309H12.7075C11.9844 6.47309 11.398 7.0592 11.398 7.78246V8.67418C11.398 9.39746 11.9844 9.98359 12.7075 9.98359C13.0311 9.98359 13.2934 9.72126 13.2934 9.39766C13.2934 9.07405 13.0311 8.81172 12.7075 8.81172Z" fill="black"/>
<path fill-rule="evenodd" clip-rule="evenodd" d="M2.83302 19.3372C3.15662 19.3372 3.41895 19.0748 3.41895 18.7512V17.6409C3.41895 17.3172 3.15662 17.0549 2.83302 17.0549C2.50941 17.0549 2.24708 17.3172 2.24708 17.6409V18.7512C2.24708 19.0748 2.50941 19.3372 2.83302 19.3372Z" fill="black"/>
<path fill-rule="evenodd" clip-rule="evenodd" d="M19.167 19.3372C19.4906 19.3372 19.753 19.0748 19.753 18.7512V17.6409C19.753 17.3172 19.4906 17.0549 19.167 17.0549C18.8434 17.0549 18.5811 17.3172 18.5811 17.6409V18.7512C18.5811 19.0748 18.8434 19.3372 19.167 19.3372Z" fill="black"/>
</svg>
