<svg width="14" height="20" viewBox="0 0 14 20" fill="none" xmlns="http://www.w3.org/2000/svg">
<path d="M13.4495 4.26973C13.0968 3.43703 12.592 2.6894 11.9494 2.04756C11.3068 1.40572 10.5583 0.90185 9.7247 0.54964C8.86127 0.184958 7.9445 0 7 0C6.0555 0 5.13873 0.184958 4.27541 0.54964C3.44182 0.901739 2.6933 1.40572 2.05068 2.04756C1.40795 2.6894 0.903298 3.43703 0.550642 4.26973C0.185181 5.13227 0 6.04815 0 6.99187C0 8.22065 0.323815 9.42939 0.936481 10.4876C1.82809 12.0275 5.01034 17.5463 5.96441 19.2011C6.18044 19.5757 6.56762 19.7994 7 19.7994C7.43238 19.7994 7.81956 19.5757 8.03559 19.2011C8.98766 17.5497 12.1641 12.041 13.0635 10.4876C13.6762 9.42939 14 8.22054 14 6.99187C14 6.04815 13.8148 5.13238 13.4495 4.26973ZM7 1.52554C7.7395 1.52554 8.4565 1.66996 9.13097 1.95492C9.78283 2.23029 10.3683 2.6246 10.8713 3.12691C11.3743 3.62923 11.769 4.21383 12.0446 4.86469C12.3298 5.53804 12.4743 6.25371 12.4743 6.99187C12.4743 7.95252 12.2215 8.89701 11.7432 9.72326C10.92 11.1451 8.11309 16.0126 6.99989 17.943C5.88858 16.0157 3.08693 11.1573 2.25657 9.72314C1.7782 8.8969 1.52543 7.9524 1.52543 6.99176C1.52543 6.2536 1.66996 5.53793 1.95514 4.86458C2.23074 4.21383 2.62549 3.62911 3.12847 3.1268C3.63145 2.62448 4.21695 2.23018 4.86881 1.95481C5.54339 1.66985 6.2605 1.52554 7 1.52554Z" fill="black"/>
<path d="M4.24293 9.74642C4.97931 10.4819 5.95833 10.8869 6.99971 10.8869C8.04108 10.8869 9.0201 10.4819 9.75648 9.74642C10.4932 9.01071 10.8989 8.03247 10.8989 6.99187C10.8989 5.95128 10.4932 4.97304 9.75648 4.23733C9.0201 3.50184 8.04108 3.09685 6.99971 3.09685C5.95833 3.09685 4.97931 3.50184 4.24293 4.23733C3.50622 4.97304 3.10056 5.95128 3.10056 6.99187C3.10056 8.03247 3.50622 9.01071 4.24293 9.74642ZM6.99971 4.62239C7.63386 4.62239 8.23005 4.86904 8.67847 5.31679C9.12655 5.76432 9.37331 6.35917 9.37331 6.99187C9.37331 7.62458 9.12655 8.21954 8.67847 8.66696C8.23016 9.11471 7.63386 9.36136 6.99971 9.36136C6.36555 9.36136 5.76936 9.11471 5.32094 8.66696C4.87286 8.21943 4.6261 7.62458 4.6261 6.99187C4.6261 6.35917 4.87286 5.7642 5.32094 5.31679C5.76925 4.86904 6.36555 4.62239 6.99971 4.62239Z" fill="black"/>
</svg>
