<svg width="14" height="14" viewBox="0 0 14 14" fill="none" xmlns="http://www.w3.org/2000/svg">
<path d="M5.98396 8.18305L8.18537 8.18311L8.18571 8.18007L12.5892 8.17411C12.7354 8.17646 12.8807 8.14966 13.0165 8.0953C13.1524 8.04093 13.2761 7.96008 13.3806 7.85746C13.485 7.75484 13.568 7.63251 13.6247 7.4976C13.6814 7.3627 13.7107 7.21792 13.7109 7.07172C13.7111 6.92552 13.6822 6.78082 13.6258 6.64607C13.5695 6.51132 13.4868 6.38921 13.3827 6.28687C13.2785 6.18453 13.155 6.10402 13.0193 6.05002C12.8836 5.99602 12.7384 5.96962 12.5922 5.97235L8.18869 5.97831H8.0002L7.5002 5.98129H7.0002L6.5002 5.97831L5.98693 5.98129L1.58341 5.98725C1.29475 5.99266 1.01945 6.11122 0.816808 6.3174C0.614168 6.52359 0.500403 6.80089 0.500012 7.08959C0.499621 7.3783 0.612638 7.65529 0.814721 7.86093C1.01681 8.06656 1.29179 8.18438 1.58044 8.18901L5.98396 8.18305Z" fill="black"/>
</svg>
