<svg width="17" height="17" viewBox="0 0 17 17" fill="none" xmlns="http://www.w3.org/2000/svg">
<path d="M15.6406 10.3519L11.0222 9.51752C10.8093 9.47911 10.5912 9.54735 10.4382 9.70033L9.33926 10.7993C8.10617 10.0345 7.01893 8.98012 6.20065 7.66072L7.29964 6.56174C7.45262 6.4088 7.5209 6.19057 7.48245 5.97775L6.64807 1.35938C6.61371 1.16926 6.49777 1.00374 6.33084 0.906462C5.28342 0.296254 4.36421 -0.154373 2.88355 0.0498216C1.91682 0.161224 1.03497 0.547306 0.262446 1.19742C0.12438 1.31362 0.039904 1.48125 0.0286845 1.66129C-0.51192 10.3313 6.66232 17.5128 15.3387 16.9712C15.5188 16.96 15.6864 16.8756 15.8026 16.7375C16.4526 15.965 16.8387 15.0831 16.9502 14.1164C17.1544 12.6358 16.7037 11.7165 16.0935 10.6691C15.9963 10.5022 15.8308 10.3863 15.6406 10.3519V10.3519ZM15.6396 13.9591C15.5694 14.5777 15.3426 15.1516 14.9645 15.6688C7.23311 15.9807 1.02542 9.621 1.33107 2.03545C1.91167 1.611 2.43925 1.44482 3.05747 1.35819C3.96141 1.23231 4.53127 1.41068 5.40385 1.89699L6.12207 5.87251L4.90702 7.08755C4.69908 7.29549 4.65381 7.61588 4.79597 7.87327C5.80344 9.69742 7.30008 11.1951 9.12657 12.2039C9.384 12.346 9.7044 12.3007 9.91229 12.0928L11.1273 10.8778L15.1029 11.596C15.6997 12.6668 15.7307 13.1484 15.6396 13.9591V13.9591Z" fill="black"/>
</svg>
