<svg width="14" height="14" viewBox="0 0 14 14" fill="none" xmlns="http://www.w3.org/2000/svg">
<path d="M5.95912 8.18299L5.95316 12.5865C5.95779 12.8752 6.07561 13.1501 6.28124 13.3522C6.48688 13.5543 6.76387 13.6673 7.05258 13.6669C7.34128 13.6665 7.61858 13.5528 7.82477 13.3501C8.03095 13.1475 8.14951 12.8722 8.15492 12.5835L8.16088 8.18002L12.5644 8.17406C12.7106 8.1764 12.8558 8.14961 12.9917 8.09524C13.1276 8.04087 13.2513 7.96002 13.3557 7.8574C13.4601 7.75478 13.5431 7.63245 13.5998 7.49754C13.6566 7.36264 13.6859 7.21786 13.6861 7.07166C13.6863 6.92546 13.6573 6.78076 13.601 6.64601C13.5446 6.51126 13.462 6.38915 13.3578 6.28681C13.2537 6.18448 13.1302 6.10396 12.9945 6.04996C12.8587 5.99596 12.7136 5.96956 12.5674 5.9723L8.16386 5.97826L8.16982 1.57474C8.17256 1.42855 8.14615 1.28337 8.09215 1.14765C8.03815 1.01193 7.95764 0.888402 7.8553 0.784266C7.75296 0.68013 7.63085 0.597474 7.4961 0.541121C7.36135 0.484768 7.21665 0.455848 7.07045 0.456046C6.92425 0.456244 6.77947 0.485555 6.64457 0.542273C6.50966 0.598991 6.38733 0.681978 6.28471 0.786391C6.18209 0.890804 6.10124 1.01455 6.04687 1.15042C5.99251 1.28628 5.96571 1.43154 5.96805 1.57772L5.9621 5.98124L1.55858 5.98719C1.26991 5.9926 0.994615 6.11116 0.791975 6.31735C0.589335 6.52353 0.475569 6.80084 0.475179 7.08954C0.474788 7.37824 0.587805 7.65524 0.789888 7.86087C0.991971 8.06651 1.26695 8.18433 1.5556 8.18895L5.95912 8.18299Z" fill="black"/>
</svg>
