<svg width="17" height="16" viewBox="0 0 17 16" fill="none" xmlns="http://www.w3.org/2000/svg">
<path d="M16.0267 8.22675L8.62163 0.540242C8.28781 0.195552 7.83649 0.0014279 7.36563 0H3.33401C1.94291 0.00380124 0.8142 1.16968 0.803717 2.61362V6.81132C0.80245 7.30062 0.98987 7.7701 1.32418 8.11506L6.89894 13.9017C7.41862 14.3906 8.2268 13.6047 7.73627 13.0325L2.16157 7.2459C2.05098 7.13033 1.98865 6.97422 1.98806 6.81132V2.61718C1.99458 1.84991 2.59481 1.23101 3.33401 1.22936H7.36563C7.5226 1.22978 7.67306 1.2945 7.7843 1.40946L14.7706 8.66132L8.72923 14.9324C8.15383 15.5118 9.00846 16.3989 9.56662 15.8016L16.0267 9.09596C16.2579 8.85592 16.2579 8.46678 16.0267 8.22675Z" fill="black"/>
<path d="M3.17285 4.30253C3.17285 4.66725 3.27704 5.02378 3.47225 5.32703C3.66745 5.63028 3.94491 5.86663 4.26952 6.0062C4.59414 6.14577 4.95134 6.18229 5.29595 6.11114C5.64056 6.03999 5.9571 5.86436 6.20555 5.60647C6.454 5.34857 6.6232 5.02 6.69175 4.66229C6.7603 4.30458 6.72512 3.93381 6.59065 3.59685C6.45619 3.2599 6.22849 2.9719 5.93635 2.76927C5.6442 2.56665 5.30073 2.4585 4.94937 2.4585C4.47837 2.45903 4.0268 2.65349 3.69375 2.9992C3.3607 3.3449 3.17337 3.81363 3.17285 4.30253ZM5.54154 4.30253C5.54154 4.42411 5.50681 4.54295 5.44174 4.64403C5.37667 4.74512 5.28419 4.8239 5.17598 4.87042C5.06778 4.91695 4.94871 4.92912 4.83384 4.9054C4.71897 4.88169 4.61346 4.82314 4.53064 4.73718C4.44782 4.65121 4.39142 4.54169 4.36857 4.42245C4.34572 4.30322 4.35745 4.17962 4.40227 4.06731C4.44709 3.95499 4.52299 3.85899 4.62037 3.79145C4.71776 3.72391 4.83225 3.68785 4.94937 3.68785C5.10638 3.688 5.25692 3.75281 5.36794 3.86805C5.47896 3.9833 5.5414 4.13956 5.54154 4.30253Z" fill="black"/>
</svg>
