<svg width="24" height="24" viewBox="0 0 24 24" fill="none" xmlns="http://www.w3.org/2000/svg">
<path d="M0.835848 7.25391C1.29757 7.25391 1.6717 6.87967 1.6717 6.41806V2.85423L7.05512 8.23653C7.21839 8.39969 7.43225 8.48127 7.64612 8.48127C7.8601 8.48127 8.07407 8.39969 8.23723 8.23642C8.56366 7.91 8.56366 7.38074 8.23712 7.05442L2.85348 1.672H6.41809C6.8797 1.672 7.25394 1.29777 7.25394 0.836154C7.25394 0.374542 6.87981 0.000305176 6.41809 0.000305176H0.835848C0.374126 0.000305176 0 0.374542 0 0.836154V6.41817C0 6.87967 0.374126 7.25391 0.835848 7.25391Z" fill="#000000"/>
<path d="M23.1641 16.7462C22.7024 16.7462 22.3282 17.1204 22.3282 17.582V21.146L16.7791 15.5968C16.4526 15.2704 15.9234 15.2704 15.597 15.5968C15.2706 15.9232 15.2706 16.4525 15.597 16.7788L21.146 22.3278H17.5823C17.1206 22.3278 16.7465 22.7021 16.7465 23.1637C16.7465 23.6253 17.1206 23.9995 17.5823 23.9995H23.1642C23.6259 23.9995 24.0001 23.6253 24.0001 23.1637V17.582C23.9999 17.1204 23.6257 16.7462 23.1641 16.7462Z" fill="#000000"/>
<path d="M7.22089 15.5968L1.67231 21.1459V17.582C1.67231 17.1204 1.29818 16.7462 0.836459 16.7462C0.374736 16.7462 0.000610352 17.1204 0.000610352 17.582V23.1639C0.000610352 23.6255 0.374736 23.9998 0.836459 23.9998H6.41814C6.87976 23.9998 7.25399 23.6255 7.25399 23.1639C7.25399 22.7023 6.87987 22.3281 6.41814 22.3281H2.85431L8.40301 16.7788C8.72943 16.4524 8.72943 15.9231 8.40289 15.5967C8.07669 15.2704 7.54743 15.2704 7.22089 15.5968Z" fill="#000000"/>
<path d="M23.1642 0.000244141H17.5823C17.1206 0.000244141 16.7465 0.374481 16.7465 0.836093C16.7465 1.2977 17.1206 1.67194 17.5823 1.67194H21.1462L15.7636 7.05492C15.4372 7.38135 15.4372 7.91061 15.7637 8.23703C15.9269 8.40019 16.1408 8.48177 16.3547 8.48177C16.5686 8.48177 16.7826 8.40008 16.9458 8.23692L22.3285 2.85394V6.418C22.3285 6.87961 22.7026 7.25385 23.1643 7.25385C23.626 7.25385 24.0002 6.87961 24.0002 6.418V0.836093C24.0001 0.37437 23.6258 0.000244141 23.1642 0.000244141Z" fill="#000000"/>
</svg>
