<svg width="180" height="74" viewBox="0 0 180 74" fill="none" xmlns="http://www.w3.org/2000/svg">
<path fill-rule="evenodd" clip-rule="evenodd" d="M70 2H48V12H70V2ZM101 2H80V12H101V2ZM132 2H111V12H132V2ZM54 22H33V31.9937H54V22ZM85 22H64V31.9937H85V22ZM116 22H95V31.9937H116V22ZM147 22H126V31.9937H147V22ZM38.5 41.9937H17.5V51.9873H38.5V41.9937ZM69.5 41.9937H48.5V51.9873H69.5V41.9937ZM100.5 41.9937H79.5V51.9873H100.5V41.9937ZM131.5 41.9937H110.5V51.9873H131.5V41.9937ZM162.5 41.9937H141.5V51.9873H162.5V41.9937ZM23 61.9873H2V71.981H23V61.9873ZM54 61.9873H33V71.981H54V61.9873ZM85 61.9873H64V71.981H85V61.9873ZM116 61.9873H95V71.981H116V61.9873ZM147 61.9873H126V71.981H147V61.9873ZM178 61.9873H157V71.981H178V61.9873ZM46 0V14H72V0H46ZM78 0V14H103V0H78ZM134 0V14H109V0H134ZM31 20V33.9937H56V20H31ZM87 20V33.9937H62V20H87ZM93 20V33.9937H118V20H93ZM149 20V33.9937H124V20H149ZM15.5 39.9937V53.9873H40.5V39.9937H15.5ZM71.5 39.9937V53.9873H46.5V39.9937H71.5ZM77.5 39.9937V53.9873H102.5V39.9937H77.5ZM133.5 39.9937V53.9873H108.5V39.9937H133.5ZM139.5 39.9937V53.9873H164.5V39.9937H139.5ZM25 59.9873V73.981H0V59.9873H25ZM31 59.9873V73.981H56V59.9873H31ZM87 59.9873V73.981H62V59.9873H87ZM93 59.9873V73.981H118V59.9873H93ZM149 59.9873V73.981H124V59.9873H149ZM155 59.9873V73.981H180V59.9873H155Z" fill="black"/>
</svg>
