<svg viewBox="0 0 24 24" fill="none" xmlns="http://www.w3.org/2000/svg" id="trip-advisor" class="v-icon__icon v-icon__icon--trip-advisor"><path d="M24 6.41h-3.394C18.254 4.81 15.375 4 12 4s-6.254.81-8.606 2.41H0c.514.505.993 1.609 1.192 2.448A5.945 5.945 0 000 12.41c0 3.308 2.692 6 6 6a5.965 5.965 0 004.107-1.65L12 19.6l1.893-2.839A5.965 5.965 0 0018 18.411c3.308 0 6-2.692 6-6a5.945 5.945 0 00-1.192-3.553c.2-.84.678-1.943 1.192-2.447zM6 16.49c-2.25 0-4.08-1.83-4.08-4.08 0-2.249 1.83-4.08 4.08-4.08s4.08 1.831 4.08 4.08c0 2.25-1.83 4.08-4.08 4.08zm6-4.08c0-2.9-2.07-5.325-4.81-5.879C8.634 6.045 10.235 5.8 12 5.8c1.765 0 3.366.245 4.81.731-2.74.554-4.81 2.98-4.81 5.88zm6 4.08c-2.25 0-4.08-1.83-4.08-4.08 0-2.249 1.83-4.08 4.08-4.08s4.08 1.831 4.08 4.08c0 2.25-1.83 4.08-4.08 4.08zM6 9.83a2.583 2.583 0 00-2.58 2.58A2.583 2.583 0 006 14.99a2.583 2.583 0 002.58-2.58A2.583 2.583 0 006 9.83zm0 3.35a.78.78 0 110-1.56.78.78 0 010 1.56zm12-3.35a2.583 2.583 0 00-2.58 2.58A2.583 2.583 0 0018 14.99a2.583 2.583 0 002.58-2.58A2.583 2.583 0 0018 9.83zm0 3.35a.78.78 0 110-1.56.78.78 0 010 1.56z" fill="currentColor"/></svg>