<svg viewBox="0 0 24 24" fill="none" xmlns="http://www.w3.org/2000/svg" id="twitter" class="v-icon__icon v-icon__icon--twitter"><path fill-rule="evenodd" clip-rule="evenodd" d="M22 5.945a8.104 8.104 0 01-2.356.652 4.147 4.147 0 001.804-2.293 8.15 8.15 0 01-2.607 1.005A4.073 4.073 0 0015.846 4c-2.264 0-4.101 1.857-4.101 4.147 0 .325.035.641.105.945-3.41-.174-6.433-1.823-8.458-4.335a4.176 4.176 0 00-.555 2.087c0 1.438.724 2.708 1.825 3.452a4.072 4.072 0 01-1.86-.517v.05c0 2.01 1.416 3.688 3.294 4.067a3.966 3.966 0 01-1.081.146c-.265 0-.523-.025-.773-.073.523 1.647 2.037 2.846 3.833 2.878a8.175 8.175 0 01-5.096 1.777c-.331 0-.659-.02-.979-.057a11.543 11.543 0 006.29 1.862c7.548 0 11.674-6.32 11.674-11.8 0-.18-.003-.36-.01-.538A8.351 8.351 0 0022 5.945" fill="currentColor"/></svg>