<svg width="102" height="78" viewBox="0 0 102 78" fill="none" xmlns="http://www.w3.org/2000/svg">
<path fill-rule="evenodd" clip-rule="evenodd" d="M65.8911 50.8911H35.2772V3.48513H26.802V59.3663H74.3663V3.48513H65.8911V50.8911ZM76.3663 1.48513V61.3663H24.802V1.48513H37.2772V48.8911H63.8911V1.48513H76.3663ZM25.9707 69.1881V76H32.7826V69.1881H25.9707ZM40.1094 69.1881V76H46.9213V69.1881H40.1094ZM54.2471 69.1881V76H61.059V69.1881H54.2471ZM68.3857 69.1881V76H75.1976V69.1881H68.3857ZM11 50.0594V56.8713H17.8119V50.0594H11ZM11 34.2574V41.0693H17.8119V34.2574H11ZM11 18.4554V25.2673H17.8119V18.4554H11ZM11 2.65344V9.46533H17.8119V2.65344H11ZM84.1875 50.0594V56.8713H90.9994V50.0594H84.1875ZM84.1875 34.2574V41.0693H90.9994V34.2574H84.1875ZM84.1875 18.4554V25.2673H90.9994V18.4554H84.1875ZM84.1875 2.65344V9.46532H90.9994V2.65344H84.1875ZM82.1875 11.4653H92.9994V0.653442H82.1875V11.4653ZM9 11.4653H19.8119V0.653444H9V11.4653ZM23.9707 67.1881H34.7826V78H23.9707V67.1881ZM38.1094 78H48.9213V67.1881H38.1094V78ZM52.2471 67.1881H63.059V78H52.2471V67.1881ZM66.3857 78H77.1976V67.1881H66.3857V78ZM9 48.0594H19.8119V58.8713H9V48.0594ZM9 43.0693H19.8119V32.2574H9V43.0693ZM9 16.4554H19.8119V27.2673H9V16.4554ZM82.1875 48.0594H92.9994V58.8713H82.1875V48.0594ZM82.1875 43.0693H92.9994V32.2574H82.1875V43.0693ZM82.1875 16.4554H92.9994V27.2673H82.1875V16.4554Z" fill="black"/>
</svg>
